<svg xmlns="http://www.w3.org/2000/svg" xmlns:xlink="http://www.w3.org/1999/xlink" width="108" height="108" viewBox="0 0 108 108">
  <defs>
    <filter id="Trazado_904820" x="0" y="0" width="108" height="108" filterUnits="userSpaceOnUse">
      <feOffset dy="3" input="SourceAlpha"/>
      <feGaussianBlur stdDeviation="3" result="blur"/>
      <feFlood flood-opacity="0.161"/>
      <feComposite operator="in" in2="blur"/>
      <feComposite in="SourceGraphic"/>
    </filter>
  </defs>
  <g id="Grupo_1173917" data-name="Grupo 1173917" transform="translate(-620 -8740.852)">
    <g id="Grupo_1173774" data-name="Grupo 1173774" transform="translate(629 8746.852)">
      <g id="Grupo_1173428" data-name="Grupo 1173428" transform="translate(0 0)">
        <g id="Grupo_1171958" data-name="Grupo 1171958">
          <g id="Grupo_1167341" data-name="Grupo 1167341">
            <g id="Grupo_1166792" data-name="Grupo 1166792">
              <g transform="matrix(1, 0, 0, 1, -9, -6)" filter="url(#Trazado_904820)">
                <g id="Trazado_904820-2" data-name="Trazado 904820" transform="translate(9 6)" fill="#e9f9fd">
                  <path d="M 44.99999618530273 88.5 C 39.12687301635742 88.5 33.43022155761719 87.35007476806641 28.06829643249512 85.08216857910156 C 22.88852119445801 82.89131164550781 18.23629570007324 79.75458526611328 14.24084663391113 75.75914764404297 C 10.24540901184082 71.76369476318359 7.108683586120605 67.11147308349609 4.917821407318115 61.93169784545898 C 2.649921178817749 56.56977081298828 1.499996185302734 50.87311935424805 1.499996185302734 44.99999618530273 C 1.499996185302734 39.12687301635742 2.649921178817749 33.43022155761719 4.917821407318115 28.06829643249512 C 7.108683586120605 22.88852119445801 10.24540901184082 18.23629570007324 14.24084663391113 14.24084663391113 C 18.23629570007324 10.24540901184082 22.88852119445801 7.108683586120605 28.06829643249512 4.917821407318115 C 33.43022155761719 2.649921178817749 39.12687301635742 1.499996185302734 44.99999618530273 1.499996185302734 C 50.87311935424805 1.499996185302734 56.56977081298828 2.649921178817749 61.93169784545898 4.917821407318115 C 67.11147308349609 7.108683586120605 71.76369476318359 10.24540901184082 75.75914764404297 14.24084663391113 C 79.75458526611328 18.23629570007324 82.89131164550781 22.88852119445801 85.08216857910156 28.06829643249512 C 87.35007476806641 33.43022155761719 88.5 39.12687301635742 88.5 44.99999618530273 C 88.5 50.87311935424805 87.35007476806641 56.56977081298828 85.08216857910156 61.93169784545898 C 82.89131164550781 67.11147308349609 79.75458526611328 71.76369476318359 75.75914764404297 75.75914764404297 C 71.76369476318359 79.75458526611328 67.11147308349609 82.89131164550781 61.93169784545898 85.08216857910156 C 56.56977081298828 87.35007476806641 50.87311935424805 88.5 44.99999618530273 88.5 Z" stroke="none"/>
                  <path d="M 44.99999618530273 2.999992370605469 C 39.32870864868164 2.999992370605469 33.82865142822266 4.110054016113281 28.65262603759766 6.299339294433594 C 23.65165710449219 8.414566040039062 19.15968322753906 11.44333648681641 15.301513671875 15.301513671875 C 11.44333648681641 19.15968322753906 8.414566040039062 23.65165710449219 6.299339294433594 28.65262603759766 C 4.110054016113281 33.82865142822266 2.999992370605469 39.32870864868164 2.999992370605469 44.99999618530273 C 2.999992370605469 50.67128372192383 4.110054016113281 56.17134094238281 6.299339294433594 61.34736633300781 C 8.414566040039062 66.34834289550781 11.44333648681641 70.84030914306641 15.301513671875 74.69847869873047 C 19.15968322753906 78.55665588378906 23.65165710449219 81.58542633056641 28.65262603759766 83.70065307617188 C 33.82865142822266 85.88993835449219 39.32870864868164 87 44.99999618530273 87 C 50.67128372192383 87 56.17134094238281 85.88993835449219 61.34736633300781 83.70065307617188 C 66.34834289550781 81.58542633056641 70.84030914306641 78.55665588378906 74.69847869873047 74.69847869873047 C 78.55665588378906 70.84030914306641 81.58542633056641 66.34834289550781 83.70065307617188 61.34736633300781 C 85.88993835449219 56.17134094238281 87 50.67128372192383 87 44.99999618530273 C 87 39.32870864868164 85.88993835449219 33.82865142822266 83.70065307617188 28.65262603759766 C 81.58542633056641 23.65165710449219 78.55665588378906 19.15968322753906 74.69847869873047 15.301513671875 C 70.84030914306641 11.44333648681641 66.34834289550781 8.414566040039062 61.34736633300781 6.299339294433594 C 56.17134094238281 4.110054016113281 50.67128372192383 2.999992370605469 44.99999618530273 2.999992370605469 M 44.99999618530273 -7.62939453125e-06 C 69.85281372070312 -7.62939453125e-06 90 20.14717864990234 90 44.99999618530273 C 90 69.85281372070312 69.85281372070312 90 44.99999618530273 90 C 20.14717864990234 90 -7.62939453125e-06 69.85281372070312 -7.62939453125e-06 44.99999618530273 C -7.62939453125e-06 20.14717864990234 20.14717864990234 -7.62939453125e-06 44.99999618530273 -7.62939453125e-06 Z" stroke="none" fill="#36ceef"/>
                </g>
              </g>
            </g>
          </g>
        </g>
      </g>
    </g>
    <g id="pyramid-chart_1968900" transform="translate(650.623 8763.944)">
      <path id="Trazado_1031026" data-name="Trazado 1031026" d="M16.605,114.4A183.584,183.584,0,0,0,34.043,68.932a2.934,2.934,0,0,1,5.713,0A183.584,183.584,0,0,0,57.194,114.4Zm0,0" transform="translate(-14.796 -59.402)" fill="#00abef"/>
      <path id="Trazado_1031027" data-name="Trazado 1031027" d="M210.9,114.395h-2.974a183.6,183.6,0,0,1-17.438-45.469,2.846,2.846,0,0,0-1.37-1.877,2.939,2.939,0,0,1,4.344,1.877A183.564,183.564,0,0,0,210.9,114.395Zm0,0" transform="translate(-168.5 -59.396)" fill="#0092ce"/>
      <path id="Trazado_1031028" data-name="Trazado 1031028" d="M153.178,228.1s-9.915-10.9-15.405-31.745a2.774,2.774,0,0,0-5.369,0C126.914,217.2,117,228.1,117,228.1Zm0,0" transform="translate(-104.244 -173.104)" fill="#ffb54e"/>
      <path id="Trazado_1031029" data-name="Trazado 1031029" d="M288.865,228.1h-3.954s-8.934-10.9-14.425-31.746a2.71,2.71,0,0,0-1.2-1.658,2.781,2.781,0,0,1,4.171,1.658c5.49,20.846,15.405,31.746,15.405,31.746Zm0,0" transform="translate(-239.931 -173.104)" fill="#ff9a1b"/>
      <path id="Trazado_1031030" data-name="Trazado 1031030" d="M82.949,358.539s-7.875-1.525-12.7-16.077a2.6,2.6,0,0,0-4.934,0c-4.823,14.552-12.7,16.077-12.7,16.077Zm0,0" transform="translate(-46.884 -303.54)" fill="#ff4a59"/>
      <path id="Trazado_1031031" data-name="Trazado 1031031" d="M194.73,358.543h-4.935s-5.913-1.525-10.735-16.077a2.551,2.551,0,0,0-.981-1.328,2.606,2.606,0,0,1,3.954,1.328c4.823,14.552,12.7,16.077,12.7,16.077Zm0,0" transform="translate(-158.664 -303.543)" fill="#f92f41"/>
      <path id="Trazado_1031032" data-name="Trazado 1031032" d="M51.214,52.165a.818.818,0,0,0-.818.818v1.2H49.306a46.7,46.7,0,0,1-2.873-3.823,80.485,80.485,0,0,1-6.795-12.234.818.818,0,1,0-1.491.672,75.361,75.361,0,0,0,9.047,15.384H36.16a8.315,8.315,0,0,1-1.984-.87,17,17,0,0,1-4.706-4.23A.818.818,0,0,0,28.189,50.1a19.468,19.468,0,0,0,4.3,4.084H9.33c2.866-1.94,6.936-6.121,9.879-15a1.781,1.781,0,0,1,3.381,0q.471,1.421,1,2.746l-1.2,0h0a.818.818,0,0,0,0,1.635l1.9,0a35.443,35.443,0,0,0,1.661,3.24.818.818,0,1,0,1.413-.823Q26.7,44.836,26.1,43.564l5.647.008h0a.818.818,0,0,0,0-1.635l-6.381-.009q-.653-1.555-1.221-3.263a3.569,3.569,0,0,0-.271-.612,98.586,98.586,0,0,0,5.078-14.59,1.957,1.957,0,0,1,3.788,0q.326,1.239.686,2.467l-1.629,0h0a.818.818,0,0,0,0,1.635l2.121,0c.816,2.641,1.733,5.235,2.746,7.746a.818.818,0,1,0,1.516-.612c-.934-2.316-1.786-4.7-2.551-7.132l5.513.008h0a.818.818,0,0,0,0-1.635l-6.014-.008Q34.7,24.5,34.32,23.046a3.555,3.555,0,0,0-3.475-2.684,3.593,3.593,0,0,0-1.928.551c-1.2-3.878-2.265-7.765-3.159-11.569a3.752,3.752,0,0,0-7.3,0q-.243,1.034-.5,2.074l-5.85.009a.818.818,0,0,0,0,1.635h0l5.43-.008c-1.079,4.153-2.341,8.364-3.767,12.564a.818.818,0,1,0,1.548.526c1.487-4.377,2.8-8.767,3.909-13.093l1.026,0a.818.818,0,0,0,0-1.635h-.613q.21-.851.41-1.7a2.116,2.116,0,0,1,4.121,0c.974,4.144,2.145,8.385,3.478,12.6a3.736,3.736,0,0,0-.273.724,97.233,97.233,0,0,1-4.728,13.742,3.427,3.427,0,0,0-1.74-.466,3.369,3.369,0,0,0-3.243,2.343c-1.327,4-3.758,9.517-7.806,13.039a11.148,11.148,0,0,1-4.21,2.478H3.2A183.294,183.294,0,0,0,14.053,29.737a.818.818,0,1,0-1.537-.557A180.58,180.58,0,0,1,1.635,53.638v-52h1.2A.818.818,0,0,0,2.834,0H.817A.818.818,0,0,0,0,.816V55a.818.818,0,0,0,.818.818h50.4A.818.818,0,0,0,52.032,55V52.982a.818.818,0,0,0-.818-.818Zm0,0"/>
      <path id="Trazado_1031033" data-name="Trazado 1031033" d="M64.419,132.135h4.35a.818.818,0,1,0,0-1.635h-4.35a.818.818,0,1,0,0,1.635Zm0,0" transform="translate(-56.668 -116.274)"/>
      <path id="Trazado_1031034" data-name="Trazado 1031034" d="M52.88,159.807h5.608a.818.818,0,1,0,0-1.635H52.88a.818.818,0,1,0,0,1.635Zm0,0" transform="translate(-46.387 -140.929)"/>
      <path id="Trazado_1031035" data-name="Trazado 1031035" d="M369.867,264.439a.818.818,0,0,0,.818.818h4.35a.818.818,0,1,0,0-1.635h-4.35A.818.818,0,0,0,369.867,264.439Zm0,0" transform="translate(-329.545 -234.882)"/>
      <path id="Trazado_1031036" data-name="Trazado 1031036" d="M369.867,292.111a.818.818,0,0,0,.818.818h5.608a.818.818,0,1,0,0-1.635h-5.608A.818.818,0,0,0,369.867,292.111Zm0,0" transform="translate(-329.545 -259.538)"/>
      <path id="Trazado_1031037" data-name="Trazado 1031037" d="M284.506,411.983h4.35a.818.818,0,1,0,0-1.635h-4.35a.818.818,0,0,0,0,1.635Zm0,0" transform="translate(-252.761 -365.613)"/>
      <path id="Trazado_1031038" data-name="Trazado 1031038" d="M284.506,439.655h5.608a.818.818,0,1,0,0-1.635h-5.608a.818.818,0,0,0,0,1.635Zm0,0" transform="translate(-252.761 -390.268)"/>
    </g>
  </g>
</svg>
