<svg xmlns="http://www.w3.org/2000/svg" xmlns:xlink="http://www.w3.org/1999/xlink" width="108" height="108" viewBox="0 0 108 108">
  <defs>
    <filter id="Trazado_904820" x="0" y="0" width="108" height="108" filterUnits="userSpaceOnUse">
      <feOffset dy="3" input="SourceAlpha"/>
      <feGaussianBlur stdDeviation="3" result="blur"/>
      <feFlood flood-opacity="0.161"/>
      <feComposite operator="in" in2="blur"/>
      <feComposite in="SourceGraphic"/>
    </filter>
  </defs>
  <g id="Grupo_1173915" data-name="Grupo 1173915" transform="translate(-200 -2071)">
    <g id="Grupo_1173743" data-name="Grupo 1173743" transform="translate(0 1335)">
      <g id="Grupo_1173428" data-name="Grupo 1173428" transform="translate(-1 -6845.052)">
        <g id="Grupo_1171958" data-name="Grupo 1171958" transform="translate(210 7587.052)">
          <g id="Grupo_1167341" data-name="Grupo 1167341" transform="translate(0 0)">
            <g id="Grupo_1166792" data-name="Grupo 1166792">
              <g transform="matrix(1, 0, 0, 1, -9, -6)" filter="url(#Trazado_904820)">
                <g id="Trazado_904820-2" data-name="Trazado 904820" transform="translate(9 6)" fill="#f2f7e5">
                  <path d="M 44.99999618530273 88.49999237060547 C 39.12687301635742 88.49999237060547 33.43022155761719 87.35006713867188 28.06829643249512 85.08216857910156 C 22.88852119445801 82.89130401611328 18.23629570007324 79.75457763671875 14.24084663391113 75.75914001464844 C 10.24540901184082 71.76369476318359 7.108683586120605 67.11146545410156 4.917821407318115 61.93169403076172 C 2.649921178817749 56.56976699829102 1.499996185302734 50.87311553955078 1.499996185302734 44.99999237060547 C 1.499996185302734 39.12686920166016 2.649921178817749 33.43021774291992 4.917821407318115 28.06829261779785 C 7.108683586120605 22.88851737976074 10.24540901184082 18.23630523681641 14.24084663391113 14.24085521697998 C 18.23629570007324 10.24540519714355 22.88852119445801 7.108692169189453 28.06829643249512 4.917829990386963 C 33.43022155761719 2.649929761886597 39.12687301635742 1.500004887580872 44.99999618530273 1.500004887580872 C 50.87311935424805 1.500004887580872 56.56977081298828 2.649929761886597 61.93169784545898 4.917829990386963 C 67.11147308349609 7.108692169189453 71.76369476318359 10.24540519714355 75.75914764404297 14.24085521697998 C 79.75458526611328 18.23630523681641 82.89131164550781 22.88851737976074 85.08216857910156 28.06829261779785 C 87.35007476806641 33.43021774291992 88.5 39.12686920166016 88.5 44.99999237060547 C 88.5 50.87311553955078 87.35007476806641 56.56976699829102 85.08216857910156 61.93169403076172 C 82.89131164550781 67.11146545410156 79.75458526611328 71.76369476318359 75.75914764404297 75.75914001464844 C 71.76369476318359 79.75457763671875 67.11147308349609 82.89130401611328 61.93169784545898 85.08216857910156 C 56.56977081298828 87.35006713867188 50.87311935424805 88.49999237060547 44.99999618530273 88.49999237060547 Z" stroke="none"/>
                  <path d="M 44.99999618530273 2.999992370605469 C 39.32870864868164 2.999992370605469 33.82865142822266 4.11004638671875 28.65262603759766 6.299331665039062 C 23.65165710449219 8.414566040039062 19.15968322753906 11.44333648681641 15.301513671875 15.30150604248047 C 11.44333648681641 19.15967559814453 8.414566040039062 23.65164947509766 6.299339294433594 28.65262222290039 C 4.110054016113281 33.82864761352539 2.999992370605469 39.32870483398438 2.999992370605469 44.99999237060547 C 2.999992370605469 50.67127990722656 4.110054016113281 56.17132186889648 6.299339294433594 61.34736633300781 C 8.414566040039062 66.34833526611328 11.44333648681641 70.84029388427734 15.301513671875 74.69846343994141 C 19.15968322753906 78.55663299560547 23.65165710449219 81.58540344238281 28.65262603759766 83.70063781738281 C 33.82865142822266 85.88992309570312 39.32870864868164 86.99997711181641 44.99999618530273 86.99997711181641 C 50.67128372192383 86.99997711181641 56.17134094238281 85.88992309570312 61.34736633300781 83.70063781738281 C 66.34834289550781 81.58540344238281 70.84030914306641 78.55663299560547 74.69847869873047 74.69846343994141 C 78.55665588378906 70.84029388427734 81.58542633056641 66.34833526611328 83.70065307617188 61.34736633300781 C 85.88993835449219 56.17132186889648 87 50.67127990722656 87 44.99999237060547 C 87 39.32870483398438 85.88993835449219 33.82864761352539 83.70065307617188 28.65262222290039 C 81.58542633056641 23.65164947509766 78.55665588378906 19.15967559814453 74.69847869873047 15.30150604248047 C 70.84030914306641 11.44333648681641 66.34834289550781 8.414566040039062 61.34736633300781 6.299331665039062 C 56.17134094238281 4.11004638671875 50.67128372192383 2.999992370605469 44.99999618530273 2.999992370605469 M 44.99999618530273 -7.62939453125e-06 C 69.85281372070312 -7.62939453125e-06 90 20.14717864990234 90 44.99999237060547 C 90 69.85279083251953 69.85281372070312 89.99997711181641 44.99999618530273 89.99997711181641 C 20.14717864990234 89.99997711181641 -7.62939453125e-06 69.85279083251953 -7.62939453125e-06 44.99999237060547 C -7.62939453125e-06 20.14717864990234 20.14717864990234 -7.62939453125e-06 44.99999618530273 -7.62939453125e-06 Z" stroke="none" fill="#86b60c"/>
                </g>
              </g>
            </g>
          </g>
        </g>
      </g>
    </g>
    <g id="Fill_out_line" data-name="Fill out line" transform="translate(228.417 2094.095)">
      <path id="Trazado_1029475" data-name="Trazado 1029475" d="M129.827,256h3.655a1.827,1.827,0,0,1,1.827,1.827V282.5H128V257.827A1.827,1.827,0,0,1,129.827,256Z" transform="translate(-117.036 -228.59)" fill="#ff9509"/>
      <path id="Trazado_1029476" data-name="Trazado 1029476" d="M217.827,328h3.655a1.827,1.827,0,0,1,1.827,1.827v16.446H216V329.827A1.827,1.827,0,0,1,217.827,328Z" transform="translate(-194.985 -292.367)" fill="#fe0050"/>
      <path id="Trazado_1029477" data-name="Trazado 1029477" d="M305.827,264h3.655a1.827,1.827,0,0,1,1.827,1.827v23.756H304V265.827A1.827,1.827,0,0,1,305.827,264Z" transform="translate(-272.935 -235.676)" fill="#ffc300"/>
      <path id="Trazado_1029478" data-name="Trazado 1029478" d="M399.309,197.461H392V161.827A1.827,1.827,0,0,1,393.827,160h3.655a1.827,1.827,0,0,1,1.827,1.827Z" transform="translate(-350.885 -143.554)" fill="#25c73b"/>
      <path id="Trazado_1029479" data-name="Trazado 1029479" d="M80.2,24v3.655h2.741l-17.36,17.36L54.619,34.05,40,48.669l2.741,2.741L54.619,39.532,65.583,50.5l20.1-20.1v2.741h3.655V24Z" transform="translate(-39.086 -23.086)" fill="#fe0050"/>
      <path id="Trazado_1029480" data-name="Trazado 1029480" d="M60.789,382.4a6.391,6.391,0,0,1-3.2,5.539l-.006,0A6.4,6.4,0,1,1,54.393,376v6.4Z" transform="translate(-46.17 -334.885)" fill="#25c73b"/>
      <path id="Trazado_1029481" data-name="Trazado 1029481" d="M128,352h0a6.4,6.4,0,0,1,6.4,6.4H128Z" transform="translate(-117.036 -313.626)" fill="#8acce7"/>
      <path id="Trazado_1029482" data-name="Trazado 1029482" d="M57.594,437.539l-.006,0A6.4,6.4,0,0,1,48,432h6.4Z" transform="translate(-46.173 -384.489)" fill="#eebe33"/>
      <path id="Trazado_1029483" data-name="Trazado 1029483" d="M110.4,432a6.391,6.391,0,0,1-3.2,5.539L104,432Z" transform="translate(-95.777 -384.489)" fill="#396795"/>
      <path id="Trazado_1029484" data-name="Trazado 1029484" d="M120,351.309a.914.914,0,0,0,.914.914h6.4a.914.914,0,0,0,.914-.914A7.318,7.318,0,0,0,120.914,344a.914.914,0,0,0-.914.914Zm1.827-5.406a5.5,5.5,0,0,1,4.492,4.492h-4.492Z" transform="translate(-109.95 -306.539)"/>
      <path id="Trazado_1029485" data-name="Trazado 1029485" d="M129.137,260.791v-10.05A2.744,2.744,0,0,0,126.4,248h-3.655A2.744,2.744,0,0,0,120,250.741v6.4h1.827v-6.4a.915.915,0,0,1,.914-.914H126.4a.915.915,0,0,1,.914.914v10.05Z" transform="translate(-109.95 -221.503)"/>
      <path id="Trazado_1029486" data-name="Trazado 1029486" d="M81.338,154.741A2.744,2.744,0,0,0,78.6,152H74.943a2.744,2.744,0,0,0-2.741,2.741v34.72h-.914V166.619a2.744,2.744,0,0,0-2.741-2.741H64.892a2.744,2.744,0,0,0-2.741,2.741v22.842h-.914V173.928a2.744,2.744,0,0,0-2.741-2.741H54.842a2.744,2.744,0,0,0-2.741,2.741v15.532h-.914v-5.482H49.36v5.482H45.05a7.292,7.292,0,0,0,2.482-5.482.914.914,0,0,0-.914-.914H41.137v-5.482a.914.914,0,0,0-.914-.914A7.3,7.3,0,0,0,35.4,189.461H32v1.827H83.166v-1.827H81.338ZM43.715,188.2l-1.91-3.308h3.823A5.483,5.483,0,0,1,43.715,188.2Zm-4.406-9.627v4.492H34.818A5.5,5.5,0,0,1,39.309,178.573Zm-4.491,6.32H39.7l2.439,4.224a5.481,5.481,0,0,1-7.316-4.224Zm19.11,4.568V173.928a.915.915,0,0,1,.914-.914H58.5a.915.915,0,0,1,.914.914v15.532Zm10.05,0V166.619a.915.915,0,0,1,.914-.914h3.655a.915.915,0,0,1,.914.914v22.842Zm10.05,0v-34.72a.915.915,0,0,1,.914-.914H78.6a.915.915,0,0,1,.914.914v34.72Z" transform="translate(-32 -136.468)"/>
      <path id="Trazado_1029487" data-name="Trazado 1029487" d="M82.252,16H73.115a.914.914,0,0,0-.914.914v3.655a.914.914,0,0,0,.914.914h.535L58.5,36.636,48.178,26.318a.914.914,0,0,0-1.292,0L32.267,40.937a.914.914,0,0,0,0,1.292l2.741,2.741a.914.914,0,0,0,1.292,0L47.532,33.738,57.85,44.056a.914.914,0,0,0,1.292,0L77.684,25.515v.535a.914.914,0,0,0,.914.914h3.655a.914.914,0,0,0,.914-.914V16.914A.914.914,0,0,0,82.252,16Zm-.914,9.137H79.511V23.309a.914.914,0,0,0-1.56-.646L58.5,42.118,48.178,31.8a.914.914,0,0,0-1.292,0L35.655,43.032l-1.449-1.449L47.532,28.256,57.85,38.574a.914.914,0,0,0,1.292,0L76.5,21.214a.914.914,0,0,0-.646-1.56H74.029V17.827h7.309Z" transform="translate(-32 -16)"/>
    </g>
  </g>
</svg>
