<svg xmlns="http://www.w3.org/2000/svg" width="610" height="549.773" viewBox="0 0 610 549.773">
  <g id="Grupo_1173920" data-name="Grupo 1173920" transform="translate(-180 -2339)">
    <path id="influencer-their-pet-creating-content-online-spaces-social-media" d="M0,0H610V549.773H0Z" transform="translate(180 2339)" fill="#f6f3ef"/>
    <path id="Trazado_1030149" data-name="Trazado 1030149" d="M5767,6220.181h609.5" transform="translate(-5587 -3816.272)" fill="none" stroke="#cdcdcd" stroke-width="1"/>
    <path id="Trazado_1030150" data-name="Trazado 1030150" d="M5662,2438v388.688h427.407" transform="translate(-5384.407 -11.113)" fill="none" stroke="#707070" stroke-width="1"/>
    <path id="Trazado_1030151" data-name="Trazado 1030151" d="M5654.593,2762.891h9.64" transform="translate(-5377 -11.113)" fill="none" stroke="#707070" stroke-width="1"/>
    <path id="Trazado_1030152" data-name="Trazado 1030152" d="M5654.593,2762.891h9.64" transform="translate(-5377 -74.113)" fill="none" stroke="#707070" stroke-width="1"/>
    <path id="Trazado_1030153" data-name="Trazado 1030153" d="M5654.593,2762.891h9.64" transform="translate(-5377 -136.113)" fill="none" stroke="#707070" stroke-width="1"/>
    <path id="Trazado_1030154" data-name="Trazado 1030154" d="M5654.593,2762.891h9.64" transform="translate(-5377 -199.113)" fill="none" stroke="#707070" stroke-width="1"/>
    <path id="Trazado_1030155" data-name="Trazado 1030155" d="M5654.593,2762.891h9.64" transform="translate(-5377 -261.113)" fill="none" stroke="#707070" stroke-width="1"/>
    <path id="Trazado_1030156" data-name="Trazado 1030156" d="M5654.593,2762.891h9.64" transform="translate(-5377 -325.113)" fill="none" stroke="#707070" stroke-width="1"/>
    <path id="Trazado_1031061" data-name="Trazado 1031061" d="M6.5-11.453V0H4.039V-8.672a2.947,2.947,0,0,1-.48.34,4.96,4.96,0,0,1-.59.289,5.267,5.267,0,0,1-.648.219,4.736,4.736,0,0,1-.664.129V-9.773a10.266,10.266,0,0,0,1.813-.719,10.315,10.315,0,0,0,1.539-.961Z" transform="translate(263 2749)" fill="#212429"/>
    <path id="Trazado_1031062" data-name="Trazado 1031062" d="M4.539.2q-4,0-4-5.617A7.643,7.643,0,0,1,1.621-9.863a3.605,3.605,0,0,1,3.137-1.527q3.906,0,3.906,5.711A7.526,7.526,0,0,1,7.6-1.32,3.513,3.513,0,0,1,4.539.2Zm.109-9.7q-1.6,0-1.6,4.023,0,3.789,1.57,3.789Q6.148-1.7,6.148-5.6T4.648-9.508Z" transform="translate(263 2810)" fill="#212429"/>
    <path id="Trazado_1031063" data-name="Trazado 1031063" d="M6.5-11.453V0H4.039V-8.672a2.947,2.947,0,0,1-.48.34,4.96,4.96,0,0,1-.59.289,5.267,5.267,0,0,1-.648.219,4.736,4.736,0,0,1-.664.129V-9.773a10.266,10.266,0,0,0,1.813-.719,10.315,10.315,0,0,0,1.539-.961Z" transform="translate(320 2834.887)" fill="#212429"/>
    <path id="Trazado_1031064" data-name="Trazado 1031064" d="M3.352-2.047H8.1V0H.648V-.844A3.927,3.927,0,0,1,.938-2.387a5.12,5.12,0,0,1,.727-1.227,6.3,6.3,0,0,1,.957-.961q.52-.418.988-.754Q4.1-5.68,4.473-6A4.919,4.919,0,0,0,5.1-6.637a2.421,2.421,0,0,0,.379-.641A1.905,1.905,0,0,0,5.6-7.969,1.39,1.39,0,0,0,5.2-9.055a1.806,1.806,0,0,0-1.242-.367A4.172,4.172,0,0,0,1.188-8.273v-2.172a5.937,5.937,0,0,1,3.3-.945,4.869,4.869,0,0,1,1.527.223,3.231,3.231,0,0,1,1.145.637,2.716,2.716,0,0,1,.715,1,3.388,3.388,0,0,1,.246,1.316,3.712,3.712,0,0,1-.238,1.375,4.225,4.225,0,0,1-.633,1.094,5.74,5.74,0,0,1-.91.9q-.516.41-1.07.793-.375.266-.723.527A6.851,6.851,0,0,0,3.93-3a2.8,2.8,0,0,0-.422.5A.856.856,0,0,0,3.352-2.047Z" transform="translate(387 2834.887)" fill="#212429"/>
    <path id="Trazado_1031065" data-name="Trazado 1031065" d="M.914-.367V-2.516a4.336,4.336,0,0,0,2.625.82A2.363,2.363,0,0,0,5.012-2.1a1.349,1.349,0,0,0,.527-1.133,1.288,1.288,0,0,0-.652-1.156A3.38,3.38,0,0,0,3.094-4.8H2.055V-6.687h.961Q5.2-6.687,5.2-8.141q0-1.367-1.68-1.367a3.829,3.829,0,0,0-2.187.727V-10.8a6.042,6.042,0,0,1,2.75-.594,4.15,4.15,0,0,1,2.676.773,2.461,2.461,0,0,1,.957,2.008,2.611,2.611,0,0,1-2.227,2.75v.039a3.027,3.027,0,0,1,1.875.863A2.434,2.434,0,0,1,8.055-3.2,3.006,3.006,0,0,1,6.906-.719,4.965,4.965,0,0,1,3.734.2,6.13,6.13,0,0,1,.914-.367Z" transform="translate(454 2834.887)" fill="#212429"/>
    <path id="Trazado_1031066" data-name="Trazado 1031066" d="M3.8,0H1.281V-11.2H3.8ZM13.838,0H11.377V-4.445q0-1.859-1.328-1.859a1.318,1.318,0,0,0-1.055.492,1.875,1.875,0,0,0-.414,1.25V0H6.111V-8H8.58v1.266h.031A2.829,2.829,0,0,1,11.181-8.2q2.656,0,2.656,3.3Zm9.8-.914a4.526,4.526,0,0,1-1.289,3.449,5.224,5.224,0,0,1-3.734,1.223A5.919,5.919,0,0,1,16.05,3.3V1.219a4.907,4.907,0,0,0,2.492.719,2.684,2.684,0,0,0,1.938-.66,2.369,2.369,0,0,0,.688-1.793v-.633h-.031A2.757,2.757,0,0,1,18.644.2a3,3,0,0,1-2.43-1.078,4.372,4.372,0,0,1-.9-2.891,4.87,4.87,0,0,1,1-3.227,3.265,3.265,0,0,1,2.633-1.2A2.429,2.429,0,0,1,21.136-7.07h.031V-8h2.469ZM21.2-3.844v-.633a1.945,1.945,0,0,0-.449-1.293A1.453,1.453,0,0,0,19.581-6.3a1.51,1.51,0,0,0-1.289.641,3.012,3.012,0,0,0-.469,1.8,2.543,2.543,0,0,0,.445,1.582,1.451,1.451,0,0,0,1.219.582,1.511,1.511,0,0,0,1.238-.59A2.418,2.418,0,0,0,21.2-3.844Zm9.72-1.93a2.142,2.142,0,0,0-1.039-.242,1.5,1.5,0,0,0-1.258.59,2.573,2.573,0,0,0-.453,1.605V0H25.7V-8h2.469v1.484H28.2a2.136,2.136,0,0,1,2.109-1.625,1.59,1.59,0,0,1,.609.094ZM39.194-3.3H33.975q.125,1.742,2.2,1.742a4.286,4.286,0,0,0,2.32-.625V-.4A6.1,6.1,0,0,1,35.608.2,4.058,4.058,0,0,1,32.6-.879a4.058,4.058,0,0,1-1.07-3,4.281,4.281,0,0,1,1.156-3.156A3.852,3.852,0,0,1,35.53-8.2a3.5,3.5,0,0,1,2.707,1.039,4,4,0,0,1,.957,2.82ZM36.9-4.812q0-1.719-1.391-1.719a1.328,1.328,0,0,0-1.027.492,2.234,2.234,0,0,0-.527,1.227Zm3.236,4.6v-2a5.256,5.256,0,0,0,1.215.547,4.028,4.028,0,0,0,1.145.18,2.455,2.455,0,0,0,1.035-.18.581.581,0,0,0,.379-.547.506.506,0,0,0-.172-.391,1.6,1.6,0,0,0-.441-.273,5.009,5.009,0,0,0-.59-.211q-.32-.094-.617-.211a5.913,5.913,0,0,1-.84-.387,2.427,2.427,0,0,1-.609-.48A1.889,1.889,0,0,1,40.27-4.8a2.525,2.525,0,0,1-.129-.852A2.192,2.192,0,0,1,40.434-6.8a2.393,2.393,0,0,1,.781-.793,3.57,3.57,0,0,1,1.117-.453A5.825,5.825,0,0,1,43.641-8.2a7.261,7.261,0,0,1,1.078.082,8.047,8.047,0,0,1,1.078.238v1.906a3.9,3.9,0,0,0-1-.41,4.235,4.235,0,0,0-1.051-.137,2.328,2.328,0,0,0-.457.043,1.505,1.505,0,0,0-.379.125.7.7,0,0,0-.258.211.486.486,0,0,0-.094.293.541.541,0,0,0,.141.375,1.221,1.221,0,0,0,.367.27,3.625,3.625,0,0,0,.5.2q.277.09.551.184a7.161,7.161,0,0,1,.891.375,2.848,2.848,0,0,1,.684.477,1.871,1.871,0,0,1,.438.641,2.277,2.277,0,0,1,.152.875,2.282,2.282,0,0,1-.309,1.215,2.471,2.471,0,0,1-.82.82,3.72,3.72,0,0,1-1.18.461A6.54,6.54,0,0,1,42.586.2,7.149,7.149,0,0,1,40.141-.211ZM51.517.2A4.3,4.3,0,0,1,48.373-.926a4.064,4.064,0,0,1-1.145-3.043,4.065,4.065,0,0,1,1.188-3.105A4.487,4.487,0,0,1,51.627-8.2a4.249,4.249,0,0,1,3.125,1.121,3.985,3.985,0,0,1,1.133,2.965A4.23,4.23,0,0,1,54.717-.961,4.348,4.348,0,0,1,51.517.2Zm.063-6.5a1.647,1.647,0,0,0-1.359.6A2.653,2.653,0,0,0,49.736-4q0,2.3,1.859,2.3,1.773,0,1.773-2.367Q53.369-6.3,51.58-6.3ZM56.964-.211v-2a5.256,5.256,0,0,0,1.215.547,4.028,4.028,0,0,0,1.145.18,2.455,2.455,0,0,0,1.035-.18.581.581,0,0,0,.379-.547.506.506,0,0,0-.172-.391,1.6,1.6,0,0,0-.441-.273,5.009,5.009,0,0,0-.59-.211q-.32-.094-.617-.211a5.913,5.913,0,0,1-.84-.387,2.427,2.427,0,0,1-.609-.48,1.889,1.889,0,0,1-.375-.633,2.525,2.525,0,0,1-.129-.852A2.192,2.192,0,0,1,57.257-6.8a2.393,2.393,0,0,1,.781-.793,3.57,3.57,0,0,1,1.117-.453A5.825,5.825,0,0,1,60.464-8.2a7.261,7.261,0,0,1,1.078.082,8.047,8.047,0,0,1,1.078.238v1.906a3.9,3.9,0,0,0-1-.41,4.235,4.235,0,0,0-1.051-.137,2.328,2.328,0,0,0-.457.043,1.505,1.505,0,0,0-.379.125.7.7,0,0,0-.258.211.486.486,0,0,0-.094.293.541.541,0,0,0,.141.375,1.221,1.221,0,0,0,.367.27,3.625,3.625,0,0,0,.5.2q.277.09.551.184a7.161,7.161,0,0,1,.891.375,2.848,2.848,0,0,1,.684.477,1.871,1.871,0,0,1,.438.641,2.277,2.277,0,0,1,.152.875A2.282,2.282,0,0,1,62.8-1.23a2.471,2.471,0,0,1-.82.82A3.72,3.72,0,0,1,60.8.051,6.54,6.54,0,0,1,59.41.2,7.149,7.149,0,0,1,56.964-.211Z" transform="translate(461 2857.887)" fill="#212429"/>
    <path id="Trazado_1031067" data-name="Trazado 1031067" d="M7.758-9.148H3.8V-6.4H7.438v2.047H3.8V0H1.281V-11.2H7.758ZM14.58-5.773a2.142,2.142,0,0,0-1.039-.242,1.5,1.5,0,0,0-1.258.59A2.573,2.573,0,0,0,11.83-3.82V0H9.361V-8H11.83v1.484h.031A2.136,2.136,0,0,1,13.97-8.141a1.59,1.59,0,0,1,.609.094ZM22.855-3.3H17.636q.125,1.742,2.2,1.742a4.286,4.286,0,0,0,2.32-.625V-.4A6.1,6.1,0,0,1,19.269.2,4.058,4.058,0,0,1,16.261-.879a4.058,4.058,0,0,1-1.07-3,4.281,4.281,0,0,1,1.156-3.156A3.852,3.852,0,0,1,19.191-8.2,3.5,3.5,0,0,1,21.9-7.156a4,4,0,0,1,.957,2.82ZM20.566-4.812q0-1.719-1.391-1.719a1.328,1.328,0,0,0-1.027.492,2.234,2.234,0,0,0-.527,1.227ZM30.388-.289A4.881,4.881,0,0,1,27.974.2,4.083,4.083,0,0,1,24.989-.922,3.859,3.859,0,0,1,23.849-3.8,4.251,4.251,0,0,1,25.071-7.02,4.518,4.518,0,0,1,28.341-8.2a4.2,4.2,0,0,1,2.047.375v2.094A2.814,2.814,0,0,0,28.661-6.3a2.275,2.275,0,0,0-1.684.621,2.317,2.317,0,0,0-.621,1.715A2.28,2.28,0,0,0,26.95-2.3a2.182,2.182,0,0,0,1.633.605,3.258,3.258,0,0,0,1.8-.578ZM39.608,0H37.147V-1.219h-.039A2.792,2.792,0,0,1,34.663.2q-2.781,0-2.781-3.367V-8h2.461v4.609q0,1.7,1.344,1.7a1.329,1.329,0,0,0,1.063-.465,1.874,1.874,0,0,0,.4-1.262V-8h2.461Zm9.267-3.3H43.656q.125,1.742,2.2,1.742a4.286,4.286,0,0,0,2.32-.625V-.4A6.1,6.1,0,0,1,45.289.2,4.058,4.058,0,0,1,42.281-.879a4.058,4.058,0,0,1-1.07-3,4.281,4.281,0,0,1,1.156-3.156A3.852,3.852,0,0,1,45.211-8.2a3.5,3.5,0,0,1,2.707,1.039,4,4,0,0,1,.957,2.82ZM46.586-4.812q0-1.719-1.391-1.719a1.328,1.328,0,0,0-1.027.492,2.234,2.234,0,0,0-.527,1.227ZM58.072,0H55.611V-4.445q0-1.859-1.328-1.859a1.318,1.318,0,0,0-1.055.492,1.875,1.875,0,0,0-.414,1.25V0H50.346V-8h2.469v1.266h.031A2.829,2.829,0,0,1,55.416-8.2q2.656,0,2.656,3.3Zm8.017-.289A4.881,4.881,0,0,1,63.675.2,4.083,4.083,0,0,1,60.691-.922,3.859,3.859,0,0,1,59.55-3.8,4.251,4.251,0,0,1,60.773-7.02,4.518,4.518,0,0,1,64.042-8.2a4.2,4.2,0,0,1,2.047.375v2.094A2.814,2.814,0,0,0,64.363-6.3a2.275,2.275,0,0,0-1.684.621,2.317,2.317,0,0,0-.621,1.715A2.28,2.28,0,0,0,62.652-2.3a2.182,2.182,0,0,0,1.633.605,3.258,3.258,0,0,0,1.8-.578Zm2.869-8.977a1.442,1.442,0,0,1-1.023-.371,1.2,1.2,0,0,1-.4-.91,1.153,1.153,0,0,1,.4-.906,1.49,1.49,0,0,1,1.023-.352,1.486,1.486,0,0,1,1.027.352,1.158,1.158,0,0,1,.395.906,1.191,1.191,0,0,1-.395.922A1.466,1.466,0,0,1,68.958-9.266ZM70.177,0H67.708V-8h2.469Zm8.736,0H76.577V-1.148h-.031A2.607,2.607,0,0,1,74.163.2a2.492,2.492,0,0,1-1.832-.66,2.366,2.366,0,0,1-.668-1.762q0-2.328,2.758-2.687L76.593-5.2q0-1.312-1.422-1.312a4.853,4.853,0,0,0-2.719.852V-7.523a6.116,6.116,0,0,1,1.41-.469,7.413,7.413,0,0,1,1.629-.2q3.422,0,3.422,3.414Zm-2.32-3.25v-.539L75.139-3.6q-1.2.156-1.2,1.086a.9.9,0,0,0,.293.691,1.126,1.126,0,0,0,.793.27,1.462,1.462,0,0,0,1.133-.48A1.735,1.735,0,0,0,76.593-3.25Z" transform="translate(253 2667.887) rotate(-90)" fill="#212429"/>
    <path id="Trazado_1031068" data-name="Trazado 1031068" d="M7.438-11.2v7.063H8.781V-2.3H7.438V0H5.188V-2.3H.3v-1.93q.648-.727,1.344-1.59T2.992-7.594q.648-.914,1.207-1.84a18.443,18.443,0,0,0,.949-1.77ZM2.516-4.141H5.188V-8.055q-.273.508-.594,1.027T3.922-6q-.352.5-.711.977T2.516-4.141Z" transform="translate(521 2834.887)" fill="#212429"/>
    <path id="Trazado_1031069" data-name="Trazado 1031069" d="M1.109-.289V-2.4a4.605,4.605,0,0,0,2.445.7A2.3,2.3,0,0,0,5.082-2.16a1.565,1.565,0,0,0,.551-1.262q0-1.664-2.352-1.664a17.413,17.413,0,0,0-2,.133L1.7-11.2h5.93v2.016H3.586L3.43-6.945q.6-.047,1.039-.047a3.821,3.821,0,0,1,2.7.906,3.165,3.165,0,0,1,.977,2.438A3.6,3.6,0,0,1,6.984-.879,4.473,4.473,0,0,1,3.828.2,6.754,6.754,0,0,1,1.109-.289Z" transform="translate(589 2834.887)" fill="#212429"/>
    <path id="Trazado_1031070" data-name="Trazado 1031070" d="M8.672-3.727A4.107,4.107,0,0,1,8.383-2.18a3.776,3.776,0,0,1-.8,1.246,3.723,3.723,0,0,1-1.227.828A3.95,3.95,0,0,1,4.8.2,3.922,3.922,0,0,1,3.105-.156a3.414,3.414,0,0,1-1.262-1.02,4.767,4.767,0,0,1-.789-1.637,8.088,8.088,0,0,1-.273-2.2,9.039,9.039,0,0,1,.355-2.621A6.018,6.018,0,0,1,2.152-9.641a4.562,4.562,0,0,1,1.6-1.293,4.751,4.751,0,0,1,2.109-.457,5.32,5.32,0,0,1,2.016.3v2.063a3.7,3.7,0,0,0-1.859-.484,2.6,2.6,0,0,0-1.133.242,2.5,2.5,0,0,0-.871.688A3.324,3.324,0,0,0,3.441-7.5a4.781,4.781,0,0,0-.223,1.4h.047A2.717,2.717,0,0,1,5.617-7.2a3.064,3.064,0,0,1,1.258.25,2.729,2.729,0,0,1,.961.707,3.243,3.243,0,0,1,.617,1.1A4.379,4.379,0,0,1,8.672-3.727ZM6.258-3.57q0-1.8-1.477-1.8a1.449,1.449,0,0,0-.609.125A1.356,1.356,0,0,0,3.7-4.9a1.6,1.6,0,0,0-.3.535A2.1,2.1,0,0,0,3.3-3.68a2.644,2.644,0,0,0,.109.773,2.054,2.054,0,0,0,.309.629,1.528,1.528,0,0,0,.473.426A1.206,1.206,0,0,0,4.8-1.7,1.319,1.319,0,0,0,5.4-1.832a1.356,1.356,0,0,0,.461-.383,1.759,1.759,0,0,0,.293-.594A2.708,2.708,0,0,0,6.258-3.57Z" transform="translate(654 2834.887)" fill="#212429"/>
    <path id="Trazado_1031071" data-name="Trazado 1031071" d="M3.352-2.047H8.1V0H.648V-.844A3.927,3.927,0,0,1,.938-2.387a5.12,5.12,0,0,1,.727-1.227,6.3,6.3,0,0,1,.957-.961q.52-.418.988-.754Q4.1-5.68,4.473-6A4.919,4.919,0,0,0,5.1-6.637a2.421,2.421,0,0,0,.379-.641A1.905,1.905,0,0,0,5.6-7.969,1.39,1.39,0,0,0,5.2-9.055a1.806,1.806,0,0,0-1.242-.367A4.172,4.172,0,0,0,1.188-8.273v-2.172a5.937,5.937,0,0,1,3.3-.945,4.869,4.869,0,0,1,1.527.223,3.231,3.231,0,0,1,1.145.637,2.716,2.716,0,0,1,.715,1,3.388,3.388,0,0,1,.246,1.316,3.712,3.712,0,0,1-.238,1.375,4.225,4.225,0,0,1-.633,1.094,5.74,5.74,0,0,1-.91.9q-.516.41-1.07.793-.375.266-.723.527A6.851,6.851,0,0,0,3.93-3a2.8,2.8,0,0,0-.422.5A.856.856,0,0,0,3.352-2.047Z" transform="translate(263 2685)" fill="#212429"/>
    <path id="Trazado_1031072" data-name="Trazado 1031072" d="M.914-.367V-2.516a4.336,4.336,0,0,0,2.625.82A2.363,2.363,0,0,0,5.012-2.1a1.349,1.349,0,0,0,.527-1.133,1.288,1.288,0,0,0-.652-1.156A3.38,3.38,0,0,0,3.094-4.8H2.055V-6.687h.961Q5.2-6.687,5.2-8.141q0-1.367-1.68-1.367a3.829,3.829,0,0,0-2.187.727V-10.8a6.042,6.042,0,0,1,2.75-.594,4.15,4.15,0,0,1,2.676.773,2.461,2.461,0,0,1,.957,2.008,2.611,2.611,0,0,1-2.227,2.75v.039a3.027,3.027,0,0,1,1.875.863A2.434,2.434,0,0,1,8.055-3.2,3.006,3.006,0,0,1,6.906-.719,4.965,4.965,0,0,1,3.734.2,6.13,6.13,0,0,1,.914-.367Z" transform="translate(263 2624)" fill="#212429"/>
    <path id="Trazado_1031073" data-name="Trazado 1031073" d="M7.438-11.2v7.063H8.781V-2.3H7.438V0H5.188V-2.3H.3v-1.93q.648-.727,1.344-1.59T2.992-7.594q.648-.914,1.207-1.84a18.443,18.443,0,0,0,.949-1.77ZM2.516-4.141H5.188V-8.055q-.273.508-.594,1.027T3.922-6q-.352.5-.711.977T2.516-4.141Z" transform="translate(263 2561)" fill="#212429"/>
    <path id="Trazado_1031074" data-name="Trazado 1031074" d="M1.109-.289V-2.4a4.605,4.605,0,0,0,2.445.7A2.3,2.3,0,0,0,5.082-2.16a1.565,1.565,0,0,0,.551-1.262q0-1.664-2.352-1.664a17.413,17.413,0,0,0-2,.133L1.7-11.2h5.93v2.016H3.586L3.43-6.945q.6-.047,1.039-.047a3.821,3.821,0,0,1,2.7.906,3.165,3.165,0,0,1,.977,2.438A3.6,3.6,0,0,1,6.984-.879,4.473,4.473,0,0,1,3.828.2,6.754,6.754,0,0,1,1.109-.289Z" transform="translate(263 2499)" fill="#212429"/>
    <path id="Trazado_1031075" data-name="Trazado 1031075" d="M8.672-3.727A4.107,4.107,0,0,1,8.383-2.18a3.776,3.776,0,0,1-.8,1.246,3.723,3.723,0,0,1-1.227.828A3.95,3.95,0,0,1,4.8.2,3.922,3.922,0,0,1,3.105-.156a3.414,3.414,0,0,1-1.262-1.02,4.767,4.767,0,0,1-.789-1.637,8.088,8.088,0,0,1-.273-2.2,9.039,9.039,0,0,1,.355-2.621A6.018,6.018,0,0,1,2.152-9.641a4.562,4.562,0,0,1,1.6-1.293,4.751,4.751,0,0,1,2.109-.457,5.32,5.32,0,0,1,2.016.3v2.063a3.7,3.7,0,0,0-1.859-.484,2.6,2.6,0,0,0-1.133.242,2.5,2.5,0,0,0-.871.688A3.324,3.324,0,0,0,3.441-7.5a4.781,4.781,0,0,0-.223,1.4h.047A2.717,2.717,0,0,1,5.617-7.2a3.064,3.064,0,0,1,1.258.25,2.729,2.729,0,0,1,.961.707,3.243,3.243,0,0,1,.617,1.1A4.379,4.379,0,0,1,8.672-3.727ZM6.258-3.57q0-1.8-1.477-1.8a1.449,1.449,0,0,0-.609.125A1.356,1.356,0,0,0,3.7-4.9a1.6,1.6,0,0,0-.3.535A2.1,2.1,0,0,0,3.3-3.68a2.644,2.644,0,0,0,.109.773,2.054,2.054,0,0,0,.309.629,1.528,1.528,0,0,0,.473.426A1.206,1.206,0,0,0,4.8-1.7,1.319,1.319,0,0,0,5.4-1.832a1.356,1.356,0,0,0,.461-.383,1.759,1.759,0,0,0,.293-.594A2.708,2.708,0,0,0,6.258-3.57Z" transform="translate(263 2435)" fill="#212429"/>
    <path id="Trazado_1030163" data-name="Trazado 1030163" d="M5662,2637.891h420" transform="translate(-5377 -11.113)" fill="none" stroke="#dbc5c5" stroke-width="1"/>
    <path id="Trazado_1030167" data-name="Trazado 1030167" d="M5662,2637.891h420" transform="translate(-5377 -74.005)" fill="none" stroke="#dbc5c5" stroke-width="1"/>
    <path id="Trazado_1030168" data-name="Trazado 1030168" d="M5662,2637.891h420" transform="translate(-5377 -136.005)" fill="none" stroke="#dbc5c5" stroke-width="1"/>
    <path id="Trazado_1030169" data-name="Trazado 1030169" d="M5662,2637.891h420" transform="translate(-5377 -200.005)" fill="none" stroke="#dbc5c5" stroke-width="1"/>
    <path id="Trazado_1030164" data-name="Trazado 1030164" d="M5662,2637.891h420" transform="translate(-5377 50.778)" fill="none" stroke="#7d7575" stroke-width="1"/>
    <path id="Trazado_1030165" data-name="Trazado 1030165" d="M5662,2637.891h420" transform="translate(-5377 113.995)" fill="none" stroke="#dbc5c5" stroke-width="1"/>
    <path id="Trazado_1030166" data-name="Trazado 1030166" d="M5662,2637.891h420" transform="translate(-5377 51.104)" fill="none" stroke="#dbc5c5" stroke-width="1"/>
    <path id="Trazado_1030170" data-name="Trazado 1030170" d="M5701.96,2439v368.62" transform="translate(-5377 -11.113)" fill="none" stroke="#dbc5c5" stroke-width="1"/>
    <path id="Trazado_1030171" data-name="Trazado 1030171" d="M5701.96,2439v368.62" transform="translate(-5311.96 -11.113)" fill="none" stroke="#dbc5c5" stroke-width="1"/>
    <path id="Trazado_1030172" data-name="Trazado 1030172" d="M5701.96,2439v368.62" transform="translate(-5240.96 -11.113)" fill="none" stroke="#dbc5c5" stroke-width="1"/>
    <path id="Trazado_1030173" data-name="Trazado 1030173" d="M5701.96,2439v368.62" transform="translate(-5175.96 -11.113)" fill="none" stroke="#dbc5c5" stroke-width="1"/>
    <path id="Trazado_1030174" data-name="Trazado 1030174" d="M5701.96,2439v368.62" transform="translate(-5108.46 -11.113)" fill="none" stroke="#dbc5c5" stroke-width="1"/>
    <path id="Trazado_1031076" data-name="Trazado 1031076" d="M0,0H53V64H0Z" transform="translate(298 2751.887)" fill="#86b60c"/>
    <path id="Trazado_1031077" data-name="Trazado 1031077" d="M0,0H53V127H0Z" transform="translate(365 2688.887)" fill="#86b60c"/>
    <path id="Trazado_1031078" data-name="Trazado 1031078" d="M0,0H53V189H0Z" transform="translate(432 2626.887)" fill="#86b60c"/>
    <path id="Trazado_1031079" data-name="Trazado 1031079" d="M0,0H53V252H0Z" transform="translate(499 2563.887)" fill="#86b60c"/>
    <path id="Trazado_1031080" data-name="Trazado 1031080" d="M0,0H53V314H0Z" transform="translate(567 2501.887)" fill="#86b60c"/>
    <path id="Trazado_1031081" data-name="Trazado 1031081" d="M0,0H53V378H0Z" transform="translate(632 2437.887)" fill="#86b60c"/>
    <path id="Trazado_1030157" data-name="Trazado 1030157" d="M5701.5,2821.784V2827" transform="translate(-5377 -11.113)" fill="none" stroke="#0b0a0a" stroke-width="1"/>
    <path id="Trazado_1030158" data-name="Trazado 1030158" d="M5701.5,2821.784V2827" transform="translate(-5310 -11.113)" fill="none" stroke="#0b0a0a" stroke-width="1"/>
    <path id="Trazado_1030159" data-name="Trazado 1030159" d="M5701.5,2821.784V2827" transform="translate(-5243 -11.113)" fill="none" stroke="#0b0a0a" stroke-width="1"/>
    <path id="Trazado_1030160" data-name="Trazado 1030160" d="M5701.5,2821.784V2827" transform="translate(-5176 -11.113)" fill="none" stroke="#0b0a0a" stroke-width="1"/>
    <path id="Trazado_1030161" data-name="Trazado 1030161" d="M5701.5,2821.784V2827" transform="translate(-5108 -11.113)" fill="none" stroke="#0b0a0a" stroke-width="1"/>
    <path id="Trazado_1030162" data-name="Trazado 1030162" d="M5701.5,2821.784V2827" transform="translate(-5043 -11.113)" fill="none" stroke="#0b0a0a" stroke-width="1"/>
    <path id="driver-with-opened-car-door" d="M0,0H610V65H0Z" transform="translate(180 2339)" fill="#e2dacc" opacity="0.67"/>
    <path id="Trazado_1031082" data-name="Trazado 1031082" d="M11.786-.844A9.07,9.07,0,0,1,7.2.22,6.635,6.635,0,0,1,2.4-1.463,6.123,6.123,0,0,1,.65-6.1a6.472,6.472,0,0,1,1.916-4.843,6.981,6.981,0,0,1,5.1-1.872,10.354,10.354,0,0,1,3.533.554V-9.6a7.022,7.022,0,0,0-3.568-.844A3.831,3.831,0,0,0,4.75-9.294,4.213,4.213,0,0,0,3.639-6.231a4.226,4.226,0,0,0,1,3.006A3.516,3.516,0,0,0,7.33-2.162a3.75,3.75,0,0,0,1.617-.29V-4.913H6.425V-7.181h5.361ZM19.839-6.5a2.409,2.409,0,0,0-1.169-.272,1.684,1.684,0,0,0-1.415.664,2.9,2.9,0,0,0-.51,1.806V0H13.968V-9h2.777v1.67h.035a2.4,2.4,0,0,1,2.373-1.828,1.788,1.788,0,0,1,.686.105ZM28.621,0H25.993V-1.292h-.035A2.933,2.933,0,0,1,23.277.22a2.8,2.8,0,0,1-2.061-.743A2.661,2.661,0,0,1,20.465-2.5q0-2.619,3.1-3.023l2.443-.325q0-1.477-1.6-1.477a5.46,5.46,0,0,0-3.059.958V-8.464a6.881,6.881,0,0,1,1.586-.527,8.339,8.339,0,0,1,1.833-.229q3.85,0,3.85,3.841ZM26.01-3.656v-.606l-1.635.211q-1.354.176-1.354,1.222a1.01,1.01,0,0,0,.33.778,1.266,1.266,0,0,0,.892.3,1.644,1.644,0,0,0,1.274-.541A1.952,1.952,0,0,0,26.01-3.656Zm1.784-9.606-2.751,2.839h-2l2.285-2.839Zm8.9,2.065a2.806,2.806,0,0,0-1.028-.211q-1.336,0-1.336,1.45V-9h2.057v2.048H34.327V0H31.558V-6.952H30.046V-9h1.512v-1.116a3.24,3.24,0,0,1,1-2.479,3.821,3.821,0,0,1,2.725-.94,4.785,4.785,0,0,1,1.406.176Zm2.436.773a1.622,1.622,0,0,1-1.151-.417,1.345,1.345,0,0,1-.448-1.024,1.3,1.3,0,0,1,.448-1.02,1.676,1.676,0,0,1,1.151-.4,1.672,1.672,0,0,1,1.156.4,1.3,1.3,0,0,1,.444,1.02,1.34,1.34,0,0,1-.444,1.037A1.65,1.65,0,0,1,39.127-10.424ZM40.5,0H37.721V-9H40.5Zm9.16-.325A5.492,5.492,0,0,1,46.943.22a4.593,4.593,0,0,1-3.357-1.257A4.341,4.341,0,0,1,42.3-4.28,4.782,4.782,0,0,1,43.677-7.9,5.083,5.083,0,0,1,47.356-9.22a4.72,4.72,0,0,1,2.3.422v2.355a3.166,3.166,0,0,0-1.942-.65,2.559,2.559,0,0,0-1.894.7,2.607,2.607,0,0,0-.7,1.929,2.565,2.565,0,0,0,.668,1.876,2.455,2.455,0,0,0,1.837.681,3.666,3.666,0,0,0,2.03-.65Zm6.11.545a4.838,4.838,0,0,1-3.538-1.261,4.573,4.573,0,0,1-1.288-3.423,4.573,4.573,0,0,1,1.336-3.494A5.048,5.048,0,0,1,55.892-9.22a4.78,4.78,0,0,1,3.516,1.261,4.483,4.483,0,0,1,1.274,3.335,4.759,4.759,0,0,1-1.314,3.542A4.892,4.892,0,0,1,55.769.22Zm.07-7.312a1.852,1.852,0,0,0-1.529.677A2.984,2.984,0,0,0,53.765-4.5q0,2.593,2.092,2.593,2,0,2-2.663Q57.852-7.093,55.839-7.093ZM76.26,0H73.482V-1.239h-.035A3.114,3.114,0,0,1,70.661.22,3.412,3.412,0,0,1,67.945-.971,4.93,4.93,0,0,1,66.917-4.3a5.366,5.366,0,0,1,1.134-3.577A3.7,3.7,0,0,1,71.021-9.22a2.527,2.527,0,0,1,2.426,1.248h.035v-5.353H76.26ZM73.535-4.377v-.677a2.13,2.13,0,0,0-.51-1.459,1.683,1.683,0,0,0-1.327-.58,1.673,1.673,0,0,0-1.441.725,3.367,3.367,0,0,0-.519,1.991,2.914,2.914,0,0,0,.5,1.828,1.663,1.663,0,0,0,1.389.642A1.67,1.67,0,0,0,73-2.584,2.821,2.821,0,0,0,73.535-4.377Zm13.15.668H80.814q.141,1.96,2.47,1.96a4.822,4.822,0,0,0,2.61-.7v2A6.858,6.858,0,0,1,82.651.22,4.565,4.565,0,0,1,79.267-.989a4.566,4.566,0,0,1-1.2-3.371,4.816,4.816,0,0,1,1.3-3.551,4.334,4.334,0,0,1,3.2-1.31,3.933,3.933,0,0,1,3.045,1.169,4.5,4.5,0,0,1,1.077,3.173ZM84.11-5.414q0-1.934-1.564-1.934a1.494,1.494,0,0,0-1.156.554,2.513,2.513,0,0,0-.593,1.38ZM93.579,0V-12.6h4.588a5.729,5.729,0,0,1,3.243.773,2.488,2.488,0,0,1,1.134,2.18,2.58,2.58,0,0,1-.69,1.784A3.625,3.625,0,0,1,100.092-6.8v.035a3.493,3.493,0,0,1,2.149.993,2.778,2.778,0,0,1,.8,2.013,3.364,3.364,0,0,1-1.239,2.747A5.186,5.186,0,0,1,98.422,0Zm2.839-10.512v2.988h1.248a2.08,2.08,0,0,0,1.384-.426,1.453,1.453,0,0,0,.505-1.173q0-1.389-2.074-1.389Zm0,5.1v3.322h1.538A2.367,2.367,0,0,0,99.5-2.549a1.527,1.527,0,0,0,.558-1.248,1.425,1.425,0,0,0-.549-1.187,2.43,2.43,0,0,0-1.534-.431ZM112.337,0h-2.628V-1.292h-.035A2.933,2.933,0,0,1,106.993.22a2.8,2.8,0,0,1-2.061-.743,2.661,2.661,0,0,1-.751-1.982q0-2.619,3.1-3.023l2.443-.325q0-1.477-1.6-1.477a5.46,5.46,0,0,0-3.059.958V-8.464a6.881,6.881,0,0,1,1.586-.527,8.339,8.339,0,0,1,1.833-.229q3.85,0,3.85,3.841Zm-2.61-3.656v-.606l-1.635.211q-1.354.176-1.354,1.222a1.01,1.01,0,0,0,.33.778,1.266,1.266,0,0,0,.892.3,1.644,1.644,0,0,0,1.274-.541A1.952,1.952,0,0,0,109.727-3.656ZM120.407-6.5a2.409,2.409,0,0,0-1.169-.272,1.684,1.684,0,0,0-1.415.664,2.9,2.9,0,0,0-.51,1.806V0h-2.777V-9h2.777v1.67h.035a2.4,2.4,0,0,1,2.373-1.828,1.788,1.788,0,0,1,.686.105Zm7.165,0a2.409,2.409,0,0,0-1.169-.272,1.684,1.684,0,0,0-1.415.664,2.9,2.9,0,0,0-.51,1.806V0H121.7V-9h2.777v1.67h.035a2.4,2.4,0,0,1,2.373-1.828,1.788,1.788,0,0,1,.686.105ZM136.354,0h-2.628V-1.292h-.035A2.933,2.933,0,0,1,131.01.22a2.8,2.8,0,0,1-2.061-.743A2.661,2.661,0,0,1,128.2-2.5q0-2.619,3.1-3.023l2.443-.325q0-1.477-1.6-1.477a5.46,5.46,0,0,0-3.059.958V-8.464a6.881,6.881,0,0,1,1.586-.527A8.339,8.339,0,0,1,132.5-9.22q3.85,0,3.85,3.841Zm-2.61-3.656v-.606l-1.635.211q-1.354.176-1.354,1.222a1.01,1.01,0,0,0,.33.778,1.266,1.266,0,0,0,.892.3,1.644,1.644,0,0,0,1.274-.541A1.952,1.952,0,0,0,133.744-3.656Zm4.221,3.419v-2.25a5.913,5.913,0,0,0,1.367.615,4.531,4.531,0,0,0,1.288.2,2.762,2.762,0,0,0,1.165-.2.653.653,0,0,0,.426-.615.569.569,0,0,0-.193-.439,1.8,1.8,0,0,0-.5-.308,5.635,5.635,0,0,0-.664-.237q-.36-.105-.694-.237a6.653,6.653,0,0,1-.945-.435,2.731,2.731,0,0,1-.686-.541,2.125,2.125,0,0,1-.422-.712,2.841,2.841,0,0,1-.145-.958,2.466,2.466,0,0,1,.33-1.3,2.692,2.692,0,0,1,.879-.892,4.016,4.016,0,0,1,1.257-.51A6.553,6.553,0,0,1,141.9-9.22a8.168,8.168,0,0,1,1.213.092,9.053,9.053,0,0,1,1.213.268v2.145a4.383,4.383,0,0,0-1.129-.461,4.764,4.764,0,0,0-1.182-.154,2.619,2.619,0,0,0-.514.048,1.693,1.693,0,0,0-.426.141.783.783,0,0,0-.29.237.546.546,0,0,0-.105.33.609.609,0,0,0,.158.422,1.374,1.374,0,0,0,.413.3,4.078,4.078,0,0,0,.567.229q.312.1.62.207a8.056,8.056,0,0,1,1,.422,3.2,3.2,0,0,1,.769.536,2.105,2.105,0,0,1,.492.721,2.562,2.562,0,0,1,.171.984,2.568,2.568,0,0,1-.347,1.367,2.78,2.78,0,0,1-.923.923,4.185,4.185,0,0,1-1.327.519,7.357,7.357,0,0,1-1.56.163A8.042,8.042,0,0,1,137.964-.237Z" transform="translate(410 2378)" fill="#212429"/>
  </g>
</svg>
