<svg xmlns="http://www.w3.org/2000/svg" width="610" height="549.773" viewBox="0 0 610 549.773">
  <g id="Grupo_1173921" data-name="Grupo 1173921" transform="translate(-810 -2339)">
    <path id="influencer-their-pet-creating-content-online-spaces-social-media" d="M0,0H610V549.773H0Z" transform="translate(810 2339)" fill="#f6f3ef"/>
    <path id="Trazado_1030176" data-name="Trazado 1030176" d="M5767,6220.181h609.5" transform="translate(-4957 -3816.272)" fill="none" stroke="#cdcdcd" stroke-width="1"/>
    <path id="driver-with-opened-car-door" d="M0,0H610V65H0Z" transform="translate(810 2339)" fill="#e2dacc" opacity="0.67"/>
    <path id="Trazado_1031083" data-name="Trazado 1031083" d="M12.349,0H9.5V-5.133H4.28V0H1.441V-12.6H4.28v5.027H9.5V-12.6h2.848Zm4.018-10.424a1.622,1.622,0,0,1-1.151-.417,1.345,1.345,0,0,1-.448-1.024,1.3,1.3,0,0,1,.448-1.02,1.676,1.676,0,0,1,1.151-.4,1.672,1.672,0,0,1,1.156.4,1.3,1.3,0,0,1,.444,1.02,1.34,1.34,0,0,1-.444,1.037A1.65,1.65,0,0,1,16.367-10.424ZM17.738,0H14.961V-9h2.777Zm1.751-.237v-2.25a5.913,5.913,0,0,0,1.367.615,4.531,4.531,0,0,0,1.288.2,2.762,2.762,0,0,0,1.165-.2.653.653,0,0,0,.426-.615.569.569,0,0,0-.193-.439,1.8,1.8,0,0,0-.5-.308,5.635,5.635,0,0,0-.664-.237q-.36-.105-.694-.237a6.653,6.653,0,0,1-.945-.435,2.731,2.731,0,0,1-.686-.541,2.125,2.125,0,0,1-.422-.712,2.841,2.841,0,0,1-.145-.958,2.466,2.466,0,0,1,.33-1.3,2.692,2.692,0,0,1,.879-.892,4.016,4.016,0,0,1,1.257-.51,6.553,6.553,0,0,1,1.472-.163,8.168,8.168,0,0,1,1.213.092,9.053,9.053,0,0,1,1.213.268v2.145a4.383,4.383,0,0,0-1.129-.461,4.764,4.764,0,0,0-1.182-.154,2.619,2.619,0,0,0-.514.048,1.693,1.693,0,0,0-.426.141.783.783,0,0,0-.29.237.546.546,0,0,0-.105.33.609.609,0,0,0,.158.422,1.374,1.374,0,0,0,.413.3,4.078,4.078,0,0,0,.567.229q.312.1.62.207a8.056,8.056,0,0,1,1,.422,3.2,3.2,0,0,1,.769.536,2.105,2.105,0,0,1,.492.721,2.562,2.562,0,0,1,.171.984,2.568,2.568,0,0,1-.347,1.367,2.78,2.78,0,0,1-.923.923A4.185,4.185,0,0,1,23.8.057,7.357,7.357,0,0,1,22.24.22,8.042,8.042,0,0,1,19.489-.237Zm13.95.132A4.105,4.105,0,0,1,31.585.22q-2.936,0-2.936-3.05V-6.952H27.19V-9h1.459v-1.942l2.769-.791V-9h2.021v2.048H31.418v3.639q0,1.406,1.116,1.406a1.882,1.882,0,0,0,.905-.255ZM39.224.22a4.838,4.838,0,0,1-3.538-1.261A4.573,4.573,0,0,1,34.4-4.465a4.573,4.573,0,0,1,1.336-3.494A5.048,5.048,0,0,1,39.347-9.22a4.78,4.78,0,0,1,3.516,1.261,4.483,4.483,0,0,1,1.274,3.335,4.759,4.759,0,0,1-1.314,3.542A4.892,4.892,0,0,1,39.224.22Zm.07-7.312a1.852,1.852,0,0,0-1.529.677A2.984,2.984,0,0,0,37.22-4.5q0,2.593,2.092,2.593,2,0,2-2.663Q41.307-7.093,39.294-7.093ZM54.765-1.028a5.092,5.092,0,0,1-1.45,3.88,5.877,5.877,0,0,1-4.2,1.375,6.659,6.659,0,0,1-2.883-.519V1.371a5.521,5.521,0,0,0,2.8.809,3.02,3.02,0,0,0,2.18-.743A2.665,2.665,0,0,0,51.988-.58v-.712h-.035A3.1,3.1,0,0,1,49.149.22,3.372,3.372,0,0,1,46.415-.993,4.919,4.919,0,0,1,45.4-4.245a5.478,5.478,0,0,1,1.125-3.63A3.673,3.673,0,0,1,49.491-9.22a2.733,2.733,0,0,1,2.461,1.266h.035V-9h2.777Zm-2.742-3.3v-.712a2.188,2.188,0,0,0-.505-1.455,1.635,1.635,0,0,0-1.314-.6,1.7,1.7,0,0,0-1.45.721,3.389,3.389,0,0,0-.527,2.03,2.86,2.86,0,0,0,.5,1.78,1.633,1.633,0,0,0,1.371.655,1.7,1.7,0,0,0,1.393-.664A2.721,2.721,0,0,0,52.023-4.324ZM62.958-6.5a2.409,2.409,0,0,0-1.169-.272,1.684,1.684,0,0,0-1.415.664,2.9,2.9,0,0,0-.51,1.806V0H57.087V-9h2.777v1.67H59.9a2.4,2.4,0,0,1,2.373-1.828,1.788,1.788,0,0,1,.686.105ZM71.74,0H69.112V-1.292h-.035A2.933,2.933,0,0,1,66.4.22a2.8,2.8,0,0,1-2.061-.743A2.661,2.661,0,0,1,63.584-2.5q0-2.619,3.1-3.023l2.443-.325q0-1.477-1.6-1.477a5.46,5.46,0,0,0-3.059.958V-8.464a6.881,6.881,0,0,1,1.586-.527,8.339,8.339,0,0,1,1.833-.229q3.85,0,3.85,3.841ZM69.13-3.656v-.606L67.5-4.052q-1.354.176-1.354,1.222a1.01,1.01,0,0,0,.33.778,1.266,1.266,0,0,0,.892.3,1.644,1.644,0,0,0,1.274-.541A1.952,1.952,0,0,0,69.13-3.656ZM88.23,0H85.462V-5.133q0-1.96-1.441-1.96A1.324,1.324,0,0,0,82.9-6.5a2.42,2.42,0,0,0-.431,1.468V0H79.7V-5.186q0-1.907-1.415-1.907a1.356,1.356,0,0,0-1.138.563A2.475,2.475,0,0,0,76.717-5V0H73.939V-9h2.777v1.406h.035A3.321,3.321,0,0,1,77.96-8.767a3.321,3.321,0,0,1,1.7-.453,2.592,2.592,0,0,1,2.61,1.679A3.329,3.329,0,0,1,85.295-9.22q2.936,0,2.936,3.621Zm9.687,0H95.29V-1.292h-.035A2.933,2.933,0,0,1,92.574.22a2.8,2.8,0,0,1-2.061-.743A2.661,2.661,0,0,1,89.761-2.5q0-2.619,3.1-3.023l2.443-.325q0-1.477-1.6-1.477a5.46,5.46,0,0,0-3.059.958V-8.464a6.881,6.881,0,0,1,1.586-.527,8.339,8.339,0,0,1,1.833-.229q3.85,0,3.85,3.841Zm-2.61-3.656v-.606l-1.635.211q-1.354.176-1.354,1.222a1.01,1.01,0,0,0,.33.778,1.266,1.266,0,0,0,.892.3,1.644,1.644,0,0,0,1.274-.541A1.952,1.952,0,0,0,95.307-3.656Z" transform="translate(1064 2381)" fill="#212429"/>
    <g id="Grupo_1173744" data-name="Grupo 1173744" transform="translate(-36.32 -56.169)">
      <g id="Rectángulo_414990" data-name="Rectángulo 414990" transform="translate(888.283 2846.096)" fill="#86b60c" stroke="#496406" stroke-width="1">
        <rect width="76.55" height="9.14" stroke="none"/>
        <rect x="0.5" y="0.5" width="75.55" height="8.14" fill="none"/>
      </g>
      <g id="Rectángulo_414991" data-name="Rectángulo 414991" transform="translate(964.833 2718.132)" fill="#86b60c" stroke="#496406" stroke-width="1">
        <rect width="76.55" height="137.105" stroke="none"/>
        <rect x="0.5" y="0.5" width="75.55" height="136.105" fill="none"/>
      </g>
      <g id="Rectángulo_414992" data-name="Rectángulo 414992" transform="translate(1040.241 2571.887)" fill="#86b60c" stroke="#496406" stroke-width="1">
        <rect width="76.55" height="283.35" stroke="none"/>
        <rect x="0.5" y="0.5" width="75.55" height="282.35" fill="none"/>
      </g>
      <g id="Rectángulo_414993" data-name="Rectángulo 414993" transform="translate(1115.648 2609.591)" fill="#86b60c" stroke="#496406" stroke-width="1">
        <rect width="76.55" height="245.646" stroke="none"/>
        <rect x="0.5" y="0.5" width="75.55" height="244.646" fill="none"/>
      </g>
      <g id="Rectángulo_414994" data-name="Rectángulo 414994" transform="translate(1191.056 2756.978)" fill="#86b60c" stroke="#496406" stroke-width="1">
        <rect width="76.55" height="98.258" stroke="none"/>
        <rect x="0.5" y="0.5" width="75.55" height="97.258" fill="none"/>
      </g>
      <g id="Rectángulo_414995" data-name="Rectángulo 414995" transform="translate(1266.463 2806.107)" fill="#86b60c" stroke="#496406" stroke-width="1">
        <rect width="76.55" height="49.129" stroke="none"/>
        <rect x="0.5" y="0.5" width="75.55" height="48.129" fill="none"/>
      </g>
      <g id="Rectángulo_414996" data-name="Rectángulo 414996" transform="translate(1341.871 2844.954)" fill="#86b60c" stroke="#496406" stroke-width="1">
        <rect width="76.55" height="10.283" stroke="none"/>
        <rect x="0.5" y="0.5" width="75.55" height="9.283" fill="none"/>
      </g>
      <text id="_30" data-name="30" transform="translate(878 2880.234)" fill="#212429" font-size="17" font-family="SegoeUI-Bold, Segoe UI" font-weight="700" letter-spacing="0em"><tspan x="0" y="0">30</tspan></text>
      <text id="_35" data-name="35" transform="translate(953.979 2880.234)" fill="#212429" font-size="17" font-family="SegoeUI-Bold, Segoe UI" font-weight="700" letter-spacing="0em"><tspan x="0" y="0">35</tspan></text>
      <text id="_40" data-name="40" transform="translate(1030.529 2880.234)" fill="#212429" font-size="17" font-family="SegoeUI-Bold, Segoe UI" font-weight="700" letter-spacing="0em"><tspan x="0" y="0">40</tspan></text>
      <text id="_45" data-name="45" transform="translate(1105.937 2880.234)" fill="#212429" font-size="17" font-family="SegoeUI-Bold, Segoe UI" font-weight="700" letter-spacing="0em"><tspan x="0" y="0">45</tspan></text>
      <text id="_50" data-name="50" transform="translate(1181.344 2880.234)" fill="#212429" font-size="17" font-family="SegoeUI-Bold, Segoe UI" font-weight="700" letter-spacing="0em"><tspan x="0" y="0">50</tspan></text>
      <text id="_56" data-name="56" transform="translate(1256.752 2877.949)" fill="#212429" font-size="17" font-family="SegoeUI-Bold, Segoe UI" font-weight="700" letter-spacing="0em"><tspan x="0" y="0">56</tspan></text>
      <text id="_60" data-name="60" transform="translate(1332.159 2877.949)" fill="#212429" font-size="17" font-family="SegoeUI-Bold, Segoe UI" font-weight="700" letter-spacing="0em"><tspan x="0" y="0">60</tspan></text>
      <text id="_65" data-name="65" transform="translate(1404.139 2877.949)" fill="#212429" font-size="17" font-family="SegoeUI-Bold, Segoe UI" font-weight="700" letter-spacing="0em"><tspan x="0" y="0">65</tspan></text>
      <path id="Trazado_1030177" data-name="Trazado 1030177" d="M5701.5,2821.784v5.96" transform="translate(-4812.646 33.011)" fill="none" stroke="#496406" stroke-width="1"/>
      <path id="Trazado_1030178" data-name="Trazado 1030178" d="M5701.5,2821.784v5.96" transform="translate(-4736.667 33.011)" fill="none" stroke="#496406" stroke-width="1"/>
      <path id="Trazado_1030179" data-name="Trazado 1030179" d="M5701.5,2821.784v5.96" transform="translate(-4660.117 33.011)" fill="none" stroke="#496406" stroke-width="1"/>
      <path id="Trazado_1030182" data-name="Trazado 1030182" d="M5701.5,2821.784v5.96" transform="translate(-4433.894 33.206)" fill="none" stroke="#496406" stroke-width="1"/>
      <path id="Trazado_1030185" data-name="Trazado 1030185" d="M5701.5,2821.784v5.96" transform="translate(-4509.302 33.206)" fill="none" stroke="#496406" stroke-width="1"/>
      <path id="Trazado_1030186" data-name="Trazado 1030186" d="M5701.5,2821.784v5.96" transform="translate(-4584.709 33.011)" fill="none" stroke="#496406" stroke-width="1"/>
      <path id="Trazado_1030183" data-name="Trazado 1030183" d="M5701.5,2821.784v5.96" transform="translate(-4358.486 33.206)" fill="none" stroke="#496406" stroke-width="1"/>
      <path id="Trazado_1030184" data-name="Trazado 1030184" d="M5701.5,2821.784v5.96" transform="translate(-4283.079 33.206)" fill="none" stroke="#496406" stroke-width="1"/>
    </g>
  </g>
</svg>
