<svg xmlns="http://www.w3.org/2000/svg" width="34.669" height="34.669" viewBox="0 0 34.669 34.669">
  <g id="analysis_2979743" transform="translate(-1 -1)">
    <path id="Trazado_1030496" data-name="Trazado 1030496" d="M45.076,4V5.118h4.242L45.635,8.8,42.28,5.446l-5.987,5.987.791.791,5.2-5.2,3.355,3.355,4.473-4.473v4.242h1.118V4Z" transform="translate(-15.558 -1.322)"/>
    <path id="Trazado_1030497" data-name="Trazado 1030497" d="M28.959,16.1H27.84V8.269H24.485V16.1H23.367V11.624H20.012v5.592h4.473v1.151a2,2,0,0,0-1.575,2.6l.419,1.256-1.48,3.551a8.928,8.928,0,0,0-7.43-6.272V18.334h.559a2.8,2.8,0,0,0,2.8-2.8V14.207l.138-.069a1.774,1.774,0,0,0,.683-2.571l-.538-.808a1.672,1.672,0,0,1-.282-.93V7.514A3.358,3.358,0,0,0,16.657,1h0A3.329,3.329,0,0,0,15,1.44,6.1,6.1,0,0,0,12.743,1H11.8A8.562,8.562,0,0,0,8.619,17.511l.21.084v1.912A9.023,9.023,0,0,0,1,28.419v7.25H18.894V29.75l.963.963a3.558,3.558,0,0,0,5.866-1.319l2.062-5.774.805-1.207a2.193,2.193,0,0,0-.749-3.129V17.216h4.473v-6.71H28.959Zm-6.71,0H21.13V12.743h1.118Zm4.473,2.6a1.521,1.521,0,0,0-.975-.36H25.6V16.657a.559.559,0,1,1,1.118,0Zm0-9.306v5.695a1.571,1.571,0,0,0-1.118,0V9.388ZM24.81,19.453h.937a.416.416,0,0,1,.132.81l-1.011.337.353,1.061,1.012-.337a1.528,1.528,0,0,0,1-1.088,1.065,1.065,0,0,1,.427,1.556l-.606.909-2.685-.9-.4-1.189a.87.87,0,0,1-.046-.28A.885.885,0,0,1,24.81,19.453Zm-9.432,6.08-.331.331a4.807,4.807,0,0,1-2.191,1.255,23.292,23.292,0,0,0,1.661-2.633h.164Zm-8.4-2.166-.7-1.872a7.8,7.8,0,0,1,.942-.439,23.353,23.353,0,0,0,.944,2.311Zm1.589,1.118h.164a23.367,23.367,0,0,0,1.66,2.633A4.812,4.812,0,0,1,8.2,25.864l-.331-.331Zm3.056-.55.938,1.642c-.255.388-.518.771-.8,1.144l-.141.188-.141-.188c-.28-.373-.542-.755-.8-1.144Zm3.462-.568a23.379,23.379,0,0,0,.946-2.315,7.711,7.711,0,0,1,.946.427l-.708,1.888Zm-.13-2.627A22.188,22.188,0,0,1,13.233,24.5L12.3,22.86,14.1,20.6A8.02,8.02,0,0,1,14.956,20.74Zm2.171-9.36.538.807a.656.656,0,0,1-.252.95l-.756.378v1.464H15.539a1.119,1.119,0,0,1-1.118-1.118H13.3A2.239,2.239,0,0,0,15.539,16.1h1.015a1.675,1.675,0,0,1-1.575,1.118H13.22a1.113,1.113,0,0,1-1-.618l-.1-.191-1,.5.1.191a2.226,2.226,0,0,0,2,1.236H13.3v1.482l-1.678,2.1-1.678-2.1V13.581L8.232,12.3a1.3,1.3,0,0,1,.782-2.349h.932V8.828A1.119,1.119,0,0,1,11.065,7.71h5.592V9.829A2.792,2.792,0,0,0,17.127,11.38ZM4.355,9.562A7.451,7.451,0,0,1,11.8,2.118h.944a4.982,4.982,0,0,1,1.276.171A3.334,3.334,0,0,0,13.3,4.355H14.42a2.239,2.239,0,0,1,2.236-2.237h0a2.279,2.279,0,0,1,2.237,2.237,2.239,2.239,0,0,1-2.237,2.236H11.065A2.239,2.239,0,0,0,8.828,8.828v.007a2.423,2.423,0,0,0-1.268,4.354l1.268.951v2.241A7.4,7.4,0,0,1,4.355,9.562ZM9.145,20.6,10.95,22.86l-.934,1.635a22.231,22.231,0,0,1-1.722-3.752A7.9,7.9,0,0,1,9.145,20.6ZM2.118,28.42A7.883,7.883,0,0,1,5.31,22.1L6.2,24.485h1.02l-.793,1.189.979.979a5.917,5.917,0,0,0,3.655,1.72v6.177H5.473V26.722H4.355v7.828H2.118Zm22.551.6a2.439,2.439,0,0,1-4.022.9l-1.754-1.754V26.722H17.775v7.828H12.184V28.372a5.91,5.91,0,0,0,3.655-1.718l.979-.979-.793-1.189h1.02l.9-2.4a7.817,7.817,0,0,1,3.141,5.526l-.47,1.129,1.032.431,2.6-6.23,2.32.773Zm5.408-17.393H31.2V16.1H30.077Z" transform="translate(0 0)"/>
  </g>
</svg>
