<svg xmlns="http://www.w3.org/2000/svg" xmlns:xlink="http://www.w3.org/1999/xlink" width="108" height="108" viewBox="0 0 108 108">
  <defs>
    <filter id="Trazado_904820" x="0" y="0" width="108" height="108" filterUnits="userSpaceOnUse">
      <feOffset dy="3" input="SourceAlpha"/>
      <feGaussianBlur stdDeviation="3" result="blur"/>
      <feFlood flood-opacity="0.161"/>
      <feComposite operator="in" in2="blur"/>
      <feComposite in="SourceGraphic"/>
    </filter>
  </defs>
  <g id="Grupo_1173603" data-name="Grupo 1173603" transform="translate(-199.5 -442.431)">
    <g id="Grupo_1173427" data-name="Grupo 1173427" transform="translate(208.5 448.431)">
      <g id="Grupo_1171910" data-name="Grupo 1171910" transform="translate(0)">
        <g id="Grupo_1167341" data-name="Grupo 1167341" transform="translate(0)">
          <g id="Grupo_1166792" data-name="Grupo 1166792" transform="translate(0)">
            <g transform="matrix(1, 0, 0, 1, -9, -6)" filter="url(#Trazado_904820)">
              <g id="Trazado_904820-2" data-name="Trazado 904820" transform="translate(9 6)" fill="#e9f9fd">
                <path d="M 44.99999618530273 88.50003051757812 C 39.12687301635742 88.50003051757812 33.43022155761719 87.35010528564453 28.06829643249512 85.08219909667969 C 22.88852119445801 82.89134216308594 18.23629570007324 79.75461578369141 14.24084663391113 75.75916290283203 C 10.24540901184082 71.76371765136719 7.108683586120605 67.11150360107422 4.917821407318115 61.93172836303711 C 2.649921178817749 56.56978988647461 1.499996185302734 50.87313842773438 1.499996185302734 45.00001525878906 C 1.499996185302734 39.12689208984375 2.649921178817749 33.43024063110352 4.917821407318115 28.06831550598145 C 7.108683586120605 22.88854026794434 10.24540901184082 18.23631477355957 14.24084663391113 14.24086570739746 C 18.23629570007324 10.24541568756104 22.88852119445801 7.10869026184082 28.06829643249512 4.917840480804443 C 33.43022155761719 2.649927854537964 39.12687301635742 1.50000274181366 44.99999618530273 1.50000274181366 C 50.87311935424805 1.50000274181366 56.56977081298828 2.649927854537964 61.93169784545898 4.917840480804443 C 67.11147308349609 7.10869026184082 71.76369476318359 10.24541568756104 75.75914764404297 14.24086570739746 C 79.75458526611328 18.23631477355957 82.89131164550781 22.88854026794434 85.08216857910156 28.06831550598145 C 87.35007476806641 33.43024063110352 88.5 39.12689208984375 88.5 45.00001525878906 C 88.5 50.87313842773438 87.35007476806641 56.56978988647461 85.08216857910156 61.93172836303711 C 82.89131164550781 67.11150360107422 79.75458526611328 71.76371765136719 75.75914764404297 75.75916290283203 C 71.76369476318359 79.75461578369141 67.11147308349609 82.89134216308594 61.93169784545898 85.08219909667969 C 56.56977081298828 87.35010528564453 50.87311935424805 88.50003051757812 44.99999618530273 88.50003051757812 Z" stroke="none"/>
                <path d="M 44.99999618530273 3 C 39.32870864868164 3 33.82865142822266 4.110061645507812 28.65262603759766 6.299346923828125 C 23.65165710449219 8.414573669433594 19.15968322753906 11.44334411621094 15.301513671875 15.301513671875 C 11.44333648681641 19.15968322753906 8.414566040039062 23.65165710449219 6.299339294433594 28.65262985229492 C 4.110054016113281 33.82867050170898 2.999992370605469 39.32872772216797 2.999992370605469 45.00001525878906 C 2.999992370605469 50.67130279541016 4.110054016113281 56.17136001586914 6.299339294433594 61.34738922119141 C 8.414566040039062 66.34837341308594 11.44333648681641 70.84033203125 15.301513671875 74.69850158691406 C 19.15968322753906 78.55668640136719 23.65165710449219 81.58545684814453 28.65262603759766 83.70068359375 C 33.82865142822266 85.88996887207031 39.32870864868164 87.00003051757812 44.99999618530273 87.00003051757812 C 50.67128372192383 87.00003051757812 56.17134094238281 85.88996887207031 61.34736633300781 83.70068359375 C 66.34834289550781 81.58545684814453 70.84030914306641 78.55668640136719 74.69847869873047 74.69850158691406 C 78.55665588378906 70.84033203125 81.58542633056641 66.34837341308594 83.70065307617188 61.34738922119141 C 85.88993835449219 56.17136001586914 87 50.67130279541016 87 45.00001525878906 C 87 39.32872772216797 85.88993835449219 33.82867050170898 83.70065307617188 28.65262985229492 C 81.58542633056641 23.65165710449219 78.55665588378906 19.15968322753906 74.69847869873047 15.301513671875 C 70.84030914306641 11.44334411621094 66.34834289550781 8.414573669433594 61.34736633300781 6.299346923828125 C 56.17134094238281 4.110061645507812 50.67128372192383 3 44.99999618530273 3 M 44.99999618530273 0 C 69.85281372070312 0 90 20.14718627929688 90 45.00001525878906 C 90 69.85282897949219 69.85281372070312 90.00003051757812 44.99999618530273 90.00003051757812 C 20.14717864990234 90.00003051757812 -7.62939453125e-06 69.85282897949219 -7.62939453125e-06 45.00001525878906 C -7.62939453125e-06 20.14718627929688 20.14717864990234 0 44.99999618530273 0 Z" stroke="none" fill="#1d7083"/>
              </g>
            </g>
          </g>
        </g>
      </g>
    </g>
    <g id="data-analysis_2979962" transform="translate(225.195 465.127)">
      <g id="Grupo_1173790" data-name="Grupo 1173790" transform="translate(1.881 1.881)">
        <g id="Grupo_1173775" data-name="Grupo 1173775" transform="translate(3.523 0)">
          <path id="Trazado_1030498" data-name="Trazado 1030498" d="M23.739,2.793A4.367,4.367,0,0,1,26.258,2a4.475,4.475,0,0,1,4.4,4.4,4.4,4.4,0,0,1-3.523,4.316,4.151,4.151,0,0,1-.881.088H17.45a2.639,2.639,0,0,0-2.642,2.642v.881h-.59a2.937,2.937,0,0,0-1.762,5.285l2.352,1.762v5.285l-.881-.352A12.6,12.6,0,0,1,18.6,2h1.489a8.7,8.7,0,0,1,3.646.793Z" transform="translate(-6 -2)" fill="#656d78"/>
        </g>
        <g id="Grupo_1173776" data-name="Grupo 1173776" transform="translate(13.168 39.636)">
          <path id="Trazado_1030499" data-name="Trazado 1030499" d="M20.517,47l1.806,13.212H16.95L18.756,47Z" transform="translate(-16.95 -47)" fill="#e6e9ed"/>
        </g>
        <g id="Grupo_1173777" data-name="Grupo 1173777" transform="translate(13.758 33.47)">
          <path id="Trazado_1030500" data-name="Trazado 1030500" d="M19.716,40l2.1,2.519L20.6,46.166H18.835L17.62,42.519Z" transform="translate(-17.62 -40)" fill="#ccd1d9"/>
        </g>
        <g id="Grupo_1173778" data-name="Grupo 1173778" transform="translate(16.735 24.662)">
          <path id="Trazado_1030501" data-name="Trazado 1030501" d="M35.427,43.855,37.735,30H43.02L41.69,44.665a5.175,5.175,0,0,1-9.786,1.85l-1.215-2.422V58.185H22.806L21,44.973l1.215-3.646,2.308,2.766.793-9.46a13.18,13.18,0,0,1,5.752,2.713,13.318,13.318,0,0,1,4.36,6.509Z" transform="translate(-21 -30)" fill="#ff826e"/>
        </g>
        <g id="Grupo_1173779" data-name="Grupo 1173779" transform="translate(0 29.295)">
          <path id="Trazado_1030502" data-name="Trazado 1030502" d="M7.285,58.812H2V48.278A13.261,13.261,0,0,1,12.658,35.26l.793,9.46,2.308-2.766L16.973,45.6,15.168,58.812Z" transform="translate(-2 -35.26)" fill="#ff826e"/>
        </g>
        <g id="Grupo_1173780" data-name="Grupo 1173780" transform="translate(15.854 29.066)">
          <path id="Trazado_1030503" data-name="Trazado 1030503" d="M25.2,35.229l-.793,9.46L22.1,41.923,20,39.4,23.523,35A12.971,12.971,0,0,1,25.2,35.229Z" transform="translate(-20 -35)" fill="#fc6e51"/>
        </g>
        <g id="Grupo_1173781" data-name="Grupo 1173781" transform="translate(10.658 29.066)">
          <path id="Trazado_1030504" data-name="Trazado 1030504" d="M15.774,35,19.3,39.4l-2.1,2.519-2.308,2.766-.793-9.46A12.97,12.97,0,0,1,15.774,35Z" transform="translate(-14.1 -35)" fill="#fc6e51"/>
        </g>
        <g id="Grupo_1173782" data-name="Grupo 1173782" transform="translate(49.324 33.47)">
          <path id="Trazado_1030505" data-name="Trazado 1030505" d="M58,40h3.523V59.377H58Z" transform="translate(-58 -40)" fill="#ffeaa7"/>
        </g>
        <g id="Grupo_1173783" data-name="Grupo 1173783" transform="translate(35.232 45.801)">
          <path id="Trazado_1030506" data-name="Trazado 1030506" d="M42,54h3.523v7.046H42Z" transform="translate(-42 -54)" fill="#ffeaa7"/>
        </g>
        <g id="Grupo_1173784" data-name="Grupo 1173784" transform="translate(42.278 39.636)">
          <path id="Trazado_1030507" data-name="Trazado 1030507" d="M50,47h3.523V60.212H50Z" transform="translate(-50 -47)" fill="#ffeaa7"/>
        </g>
        <g id="Grupo_1173785" data-name="Grupo 1173785" transform="translate(35.232 0)">
          <path id="Trazado_1030508" data-name="Trazado 1030508" d="M54.331,3.762A1.767,1.767,0,0,0,52.569,2h5.285a1.767,1.767,0,0,1,1.762,1.762V21.377a1.767,1.767,0,0,1-1.762,1.762H43.762a1.774,1.774,0,0,0,1.762-1.762,1.767,1.767,0,0,0-1.762-1.762H42V3.762A1.767,1.767,0,0,1,43.762,2h5.285a1.774,1.774,0,0,0-1.762,1.762,1.767,1.767,0,0,0,1.762,1.762H45.523V19.616H56.093V5.523H52.569a1.774,1.774,0,0,0,1.762-1.762Z" transform="translate(-42 -2)" fill="#b4dd7f"/>
        </g>
        <g id="Grupo_1173786" data-name="Grupo 1173786" transform="translate(40.516 0)">
          <path id="Trazado_1030509" data-name="Trazado 1030509" d="M53.285,2a1.767,1.767,0,0,1,1.762,1.762,1.774,1.774,0,0,1-1.762,1.762H49.762A1.767,1.767,0,0,1,48,3.762,1.774,1.774,0,0,1,49.762,2Z" transform="translate(-48 -2)" fill="#aab2bd"/>
        </g>
        <g id="Grupo_1173787" data-name="Grupo 1173787" transform="translate(38.755 3.523)">
          <path id="Trazado_1030510" data-name="Trazado 1030510" d="M56.569,6V20.093H46V6H56.569Z" transform="translate(-46 -6)" fill="#e6e9ed"/>
        </g>
        <g id="Grupo_1173788" data-name="Grupo 1173788" transform="translate(31.708 17.616)">
          <path id="Trazado_1030511" data-name="Trazado 1030511" d="M43.285,25.523h3.523v.669a3.183,3.183,0,0,1-1.762,2.854H39.762L38.3,26.122a2.886,2.886,0,0,1-.3-1.268A2.857,2.857,0,0,1,40.854,22h2.431a1.767,1.767,0,0,1,1.762,1.762,1.774,1.774,0,0,1-1.762,1.762Z" transform="translate(-38 -22)" fill="#f0d0b4"/>
        </g>
        <g id="Grupo_1173789" data-name="Grupo 1173789" transform="translate(8.808 8.72)">
          <path id="Trazado_1030512" data-name="Trazado 1030512" d="M27.854,22.558V25.2a3.522,3.522,0,0,1-3.523,3.523H22.569v3.523l-3.523,4.4-3.523-4.4V22.558L13.171,20.8a2.937,2.937,0,0,1,1.762-5.285h.59V14.63a2.639,2.639,0,0,1,2.642-2.642h8.808a4.15,4.15,0,0,0,.881-.088v4.307a3.517,3.517,0,0,0,.59,1.955l.854,1.268a1.986,1.986,0,0,1,.317,1.066,1.907,1.907,0,0,1-1.057,1.709Z" transform="translate(-12 -11.9)" fill="#f0d0b4"/>
        </g>
      </g>
      <g id="Grupo_1173791" data-name="Grupo 1173791" transform="translate(1 1)">
        <path id="Trazado_1030513" data-name="Trazado 1030513" d="M34.146,46.8a6.029,6.029,0,0,0,6.033-5.509L41.472,27.07A4.03,4.03,0,0,0,43.264,23.9h9.7a2.646,2.646,0,0,0,2.642-2.642V3.642A2.646,2.646,0,0,0,52.967,1H38.874a2.646,2.646,0,0,0-2.642,2.642V18.637A3.719,3.719,0,0,0,33.1,24.016l1.333,2.665-1.767,10.6a14.256,14.256,0,0,0-10.529-7.132V28.3h.881a4.409,4.409,0,0,0,4.4-4.4V21.8l.217-.108a2.794,2.794,0,0,0,1.075-4.049l-.848-1.273a2.633,2.633,0,0,1-.444-1.466V11.261A5.289,5.289,0,0,0,25.662,1h0a5.244,5.244,0,0,0-2.6.692A9.6,9.6,0,0,0,19.5,1H18.009A13.486,13.486,0,0,0,13,27.007l.33.132v3.011A14.213,14.213,0,0,0,1,44.19V55.609H55.609V34.47H50.324V53.847H48.563V40.636H43.278V53.847H41.516V46.8H36.232v7.046H29.185v-9.63A6.017,6.017,0,0,0,34.146,46.8Zm17.94-10.569h1.762V53.847H52.086ZM53.847,3.642V21.258a.882.882,0,0,1-.881.881H41.354a2.487,2.487,0,0,0,0-1.762h10.73V4.523H50.162a2.613,2.613,0,0,0,.162-.881,2.613,2.613,0,0,0-.162-.881h2.8A.882.882,0,0,1,53.847,3.642ZM44.159,6.285h6.166V18.616H41.516V6.285Zm3.523-3.523a.881.881,0,1,1,0,1.762H44.159a.881.881,0,1,1,0-1.762Zm-8.808,0h2.8a2.613,2.613,0,0,0-.162.881,2.613,2.613,0,0,0,.162.881H39.755V18.776a2.622,2.622,0,0,0-.881-.16h-.881V3.642A.882.882,0,0,1,38.874,2.762ZM36.439,20.377h2.435a.881.881,0,0,1,0,1.762H36.232V23.9H41.49a2.278,2.278,0,0,1-1.08,1.762H35.9l-1.217-2.435a1.97,1.97,0,0,1,1.762-2.85Zm-22.61,11.5L16.6,35.339,14.03,38.42l-.542-6.5C13.6,31.905,13.716,31.891,13.83,31.879ZM17.623,42.4h.225l1.562,11.45H16.061Zm.358-1.762h-.492l-.861-2.582,1.107-1.327,1.106,1.327Zm.891-5.3,2.771-3.464c.113.012.226.022.339.038l-.543,6.508ZM26.4,17.35l.848,1.272a1.033,1.033,0,0,1-.4,1.5l-1.191.6V23.02H23.9a1.763,1.763,0,0,1-1.762-1.762H20.377A3.527,3.527,0,0,0,23.9,24.781h1.6a2.639,2.639,0,0,1-2.48,1.762H20.249a1.754,1.754,0,0,1-1.576-.973l-.151-.3-1.576.788.151.3A3.506,3.506,0,0,0,20.249,28.3h.129v2.334l-2.642,3.3-2.642-3.3V20.818l-2.7-2.026a2.055,2.055,0,0,1,1.232-3.7h1.468V13.331a1.763,1.763,0,0,1,1.762-1.762h8.808v3.337a4.4,4.4,0,0,0,.74,2.443ZM6.285,14.486A11.737,11.737,0,0,1,18.009,2.762H19.5a7.847,7.847,0,0,1,2.01.27,5.252,5.252,0,0,0-1.129,3.254h1.762a3.527,3.527,0,0,1,3.522-3.523h0a3.59,3.59,0,0,1,3.523,3.524,3.527,3.527,0,0,1-3.523,3.522H17.735a.881.881,0,1,1,0-1.762h.881V6.285h-.881a2.646,2.646,0,0,0-2.642,2.642,2.607,2.607,0,0,0,.3,1.206,3.521,3.521,0,0,0-2.066,3.2v.011a3.817,3.817,0,0,0-2,6.859l2,1.5v3.529A11.66,11.66,0,0,1,6.285,14.486ZM2.762,44.19a12.449,12.449,0,0,1,8.989-11.91l.881,10.57,2.671-3.2.652,1.954L14.283,53.847H8.046V37.993H6.285V53.847H2.762ZM45.039,42.4H46.8v11.45H45.039Zm-7.046,6.166h1.762v5.285H37.993ZM21.187,53.847,19.516,41.6l.652-1.954,2.671,3.2.881-10.568a12.459,12.459,0,0,1,8.417,8.194l-.3,1.777,1.738.29L36.1,27.424H39.67L38.425,41.132A4.3,4.3,0,0,1,30.3,42.665l-1.119-2.237V37.993H27.424V53.847Z" transform="translate(-1 -1)"/>
        <path id="Trazado_1030514" data-name="Trazado 1030514" d="M49,9h5.285v1.762H49Z" transform="translate(-6.722 -1.954)"/>
        <path id="Trazado_1030515" data-name="Trazado 1030515" d="M49,13h5.285v1.762H49Z" transform="translate(-6.722 -2.431)"/>
        <path id="Trazado_1030516" data-name="Trazado 1030516" d="M49,17h5.285v1.762H49Z" transform="translate(-6.722 -2.907)"/>
      </g>
    </g>
  </g>
</svg>
