<svg xmlns="http://www.w3.org/2000/svg" xmlns:xlink="http://www.w3.org/1999/xlink" width="108" height="108" viewBox="0 0 108 108">
  <defs>
    <filter id="Trazado_904820" x="0" y="0" width="108" height="108" filterUnits="userSpaceOnUse">
      <feOffset dy="3" input="SourceAlpha"/>
      <feGaussianBlur stdDeviation="3" result="blur"/>
      <feFlood flood-opacity="0.161"/>
      <feComposite operator="in" in2="blur"/>
      <feComposite in="SourceGraphic"/>
    </filter>
  </defs>
  <g id="Grupo_1173585" data-name="Grupo 1173585" transform="translate(9 6)">
    <g id="Grupo_1173428" data-name="Grupo 1173428" transform="translate(0)">
      <g id="Grupo_1171958" data-name="Grupo 1171958" transform="translate(0 0)">
        <g id="Grupo_1167341" data-name="Grupo 1167341">
          <g id="Grupo_1166792" data-name="Grupo 1166792">
            <g transform="matrix(1, 0, 0, 1, -9, -6)" filter="url(#Trazado_904820)">
              <g id="Trazado_904820-2" data-name="Trazado 904820" transform="translate(9 6)" fill="#e9f9fd">
                <path d="M 44.99999618530273 88.49999237060547 C 39.12687301635742 88.49999237060547 33.43022155761719 87.35006713867188 28.06829643249512 85.08216857910156 C 22.88852119445801 82.89130401611328 18.23629570007324 79.75457763671875 14.24084663391113 75.75914001464844 C 10.24540901184082 71.76369476318359 7.108683586120605 67.11146545410156 4.917821407318115 61.93169403076172 C 2.649921178817749 56.56976699829102 1.499996185302734 50.87311553955078 1.499996185302734 44.99999237060547 C 1.499996185302734 39.12686920166016 2.649921178817749 33.43021774291992 4.917821407318115 28.06829261779785 C 7.108683586120605 22.88851737976074 10.24540901184082 18.23630523681641 14.24084663391113 14.24085521697998 C 18.23629570007324 10.24540519714355 22.88852119445801 7.108692169189453 28.06829643249512 4.917829990386963 C 33.43022155761719 2.649929761886597 39.12687301635742 1.500004887580872 44.99999618530273 1.500004887580872 C 50.87311935424805 1.500004887580872 56.56977081298828 2.649929761886597 61.93169784545898 4.917829990386963 C 67.11147308349609 7.108692169189453 71.76369476318359 10.24540519714355 75.75914764404297 14.24085521697998 C 79.75458526611328 18.23630523681641 82.89131164550781 22.88851737976074 85.08216857910156 28.06829261779785 C 87.35007476806641 33.43021774291992 88.5 39.12686920166016 88.5 44.99999237060547 C 88.5 50.87311553955078 87.35007476806641 56.56976699829102 85.08216857910156 61.93169403076172 C 82.89131164550781 67.11146545410156 79.75458526611328 71.76369476318359 75.75914764404297 75.75914001464844 C 71.76369476318359 79.75457763671875 67.11147308349609 82.89130401611328 61.93169784545898 85.08216857910156 C 56.56977081298828 87.35006713867188 50.87311935424805 88.49999237060547 44.99999618530273 88.49999237060547 Z" stroke="none"/>
                <path d="M 44.99999618530273 2.999992370605469 C 39.32870864868164 2.999992370605469 33.82865142822266 4.11004638671875 28.65262603759766 6.299331665039062 C 23.65165710449219 8.414566040039062 19.15968322753906 11.44333648681641 15.301513671875 15.30150604248047 C 11.44333648681641 19.15967559814453 8.414566040039062 23.65164947509766 6.299339294433594 28.65262222290039 C 4.110054016113281 33.82864761352539 2.999992370605469 39.32870483398438 2.999992370605469 44.99999237060547 C 2.999992370605469 50.67127990722656 4.110054016113281 56.17132186889648 6.299339294433594 61.34736633300781 C 8.414566040039062 66.34833526611328 11.44333648681641 70.84029388427734 15.301513671875 74.69846343994141 C 19.15968322753906 78.55663299560547 23.65165710449219 81.58540344238281 28.65262603759766 83.70063781738281 C 33.82865142822266 85.88992309570312 39.32870864868164 86.99997711181641 44.99999618530273 86.99997711181641 C 50.67128372192383 86.99997711181641 56.17134094238281 85.88992309570312 61.34736633300781 83.70063781738281 C 66.34834289550781 81.58540344238281 70.84030914306641 78.55663299560547 74.69847869873047 74.69846343994141 C 78.55665588378906 70.84029388427734 81.58542633056641 66.34833526611328 83.70065307617188 61.34736633300781 C 85.88993835449219 56.17132186889648 87 50.67127990722656 87 44.99999237060547 C 87 39.32870483398438 85.88993835449219 33.82864761352539 83.70065307617188 28.65262222290039 C 81.58542633056641 23.65164947509766 78.55665588378906 19.15967559814453 74.69847869873047 15.30150604248047 C 70.84030914306641 11.44333648681641 66.34834289550781 8.414566040039062 61.34736633300781 6.299331665039062 C 56.17134094238281 4.11004638671875 50.67128372192383 2.999992370605469 44.99999618530273 2.999992370605469 M 44.99999618530273 -7.62939453125e-06 C 69.85281372070312 -7.62939453125e-06 90 20.14717864990234 90 44.99999237060547 C 90 69.85279083251953 69.85281372070312 89.99997711181641 44.99999618530273 89.99997711181641 C 20.14717864990234 89.99997711181641 -7.62939453125e-06 69.85279083251953 -7.62939453125e-06 44.99999237060547 C -7.62939453125e-06 20.14717864990234 20.14717864990234 -7.62939453125e-06 44.99999618530273 -7.62939453125e-06 Z" stroke="none" fill="#36ceef"/>
              </g>
            </g>
          </g>
        </g>
      </g>
    </g>
    <g id="Fill_out_line" data-name="Fill out line" transform="translate(19.193 18.421)">
      <path id="Trazado_1029475" data-name="Trazado 1029475" d="M129.772,256h3.544a1.772,1.772,0,0,1,1.772,1.772v23.921H128V257.772A1.772,1.772,0,0,1,129.772,256Z" transform="translate(-117.368 -229.421)" fill="#ff9509"/>
      <path id="Trazado_1029476" data-name="Trazado 1029476" d="M217.772,328h3.544a1.772,1.772,0,0,1,1.772,1.772v15.947H216V329.772A1.772,1.772,0,0,1,217.772,328Z" transform="translate(-195.623 -293.448)" fill="#fe0050"/>
      <path id="Trazado_1029477" data-name="Trazado 1029477" d="M305.772,264h3.544a1.772,1.772,0,0,1,1.772,1.772v23.035H304V265.772A1.772,1.772,0,0,1,305.772,264Z" transform="translate(-273.877 -236.535)" fill="#ffc300"/>
      <path id="Trazado_1029478" data-name="Trazado 1029478" d="M399.088,196.324H392V161.772A1.772,1.772,0,0,1,393.772,160h3.544a1.772,1.772,0,0,1,1.772,1.772Z" transform="translate(-352.132 -144.053)" fill="#25c73b"/>
      <path id="Trazado_1029479" data-name="Trazado 1029479" d="M78.982,24v3.544H81.64L64.807,44.377,54.175,33.746,40,47.921l2.658,2.658L54.175,39.061,64.807,49.693,84.3,30.2V32.86h3.544V24Z" transform="translate(-39.114 -23.114)" fill="#fe0050"/>
      <path id="Trazado_1029480" data-name="Trazado 1029480" d="M60.4,382.2a6.2,6.2,0,0,1-3.1,5.371l-.006,0A6.2,6.2,0,1,1,54.2,376v6.2Z" transform="translate(-46.226 -336.132)" fill="#25c73b"/>
      <path id="Trazado_1029481" data-name="Trazado 1029481" d="M128,352h0a6.2,6.2,0,0,1,6.2,6.2H128Z" transform="translate(-117.368 -314.79)" fill="#8acce7"/>
      <path id="Trazado_1029482" data-name="Trazado 1029482" d="M57.3,437.371l-.006,0A6.2,6.2,0,0,1,48,432h6.2Z" transform="translate(-46.228 -385.93)" fill="#eebe33"/>
      <path id="Trazado_1029483" data-name="Trazado 1029483" d="M110.2,432a6.2,6.2,0,0,1-3.1,5.371L104,432Z" transform="translate(-96.026 -385.93)" fill="#396795"/>
      <path id="Trazado_1029484" data-name="Trazado 1029484" d="M120,351.088a.886.886,0,0,0,.886.886h6.2a.886.886,0,0,0,.886-.886A7.1,7.1,0,0,0,120.886,344a.886.886,0,0,0-.886.886Zm1.772-5.242a5.33,5.33,0,0,1,4.356,4.356h-4.356Z" transform="translate(-110.254 -307.676)"/>
      <path id="Trazado_1029485" data-name="Trazado 1029485" d="M128.86,260.4v-9.746A2.661,2.661,0,0,0,126.2,248h-3.544A2.661,2.661,0,0,0,120,250.658v6.2h1.772v-6.2a.887.887,0,0,1,.886-.886H126.2a.887.887,0,0,1,.886.886V260.4Z" transform="translate(-110.254 -222.307)"/>
      <path id="Trazado_1029486" data-name="Trazado 1029486" d="M79.842,154.658A2.661,2.661,0,0,0,77.184,152H73.64a2.661,2.661,0,0,0-2.658,2.658v33.666H70.1V166.175a2.661,2.661,0,0,0-2.658-2.658H63.894a2.661,2.661,0,0,0-2.658,2.658v22.149h-.886V173.263a2.661,2.661,0,0,0-2.658-2.658H54.149a2.661,2.661,0,0,0-2.658,2.658v15.061h-.886v-5.316H48.833v5.316H44.654a7.071,7.071,0,0,0,2.407-5.316.886.886,0,0,0-.886-.886H40.86v-5.316a.886.886,0,0,0-.886-.886,7.083,7.083,0,0,0-4.681,12.4H32V190.1H81.614v-1.772H79.842ZM43.36,187.1l-1.852-3.207h3.707A5.317,5.317,0,0,1,43.36,187.1Zm-4.272-9.335v4.356H34.733A5.329,5.329,0,0,1,39.088,177.767Zm-4.355,6.128h4.729l2.365,4.1a5.315,5.315,0,0,1-7.094-4.1Zm18.53,4.43V173.263a.887.887,0,0,1,.886-.886h3.544a.887.887,0,0,1,.886.886v15.061Zm9.746,0V166.175a.887.887,0,0,1,.886-.886h3.544a.887.887,0,0,1,.886.886v22.149Zm9.746,0V154.658a.887.887,0,0,1,.886-.886h3.544a.887.887,0,0,1,.886.886v33.666Z" transform="translate(-32 -136.939)"/>
      <path id="Trazado_1029487" data-name="Trazado 1029487" d="M80.728,16h-8.86a.886.886,0,0,0-.886.886V20.43a.886.886,0,0,0,.886.886h.519L57.693,36.01,47.688,26.005a.886.886,0,0,0-1.253,0L32.259,40.18a.886.886,0,0,0,0,1.253l2.658,2.658a.886.886,0,0,0,1.253,0L47.061,33.2,57.066,43.205a.886.886,0,0,0,1.253,0L76.3,25.227v.519a.886.886,0,0,0,.886.886h3.544a.886.886,0,0,0,.886-.886v-8.86A.886.886,0,0,0,80.727,16Zm-.886,8.86H78.07V23.088a.886.886,0,0,0-1.512-.626L57.693,41.326,47.688,31.321a.886.886,0,0,0-1.253,0L35.544,42.212l-1.4-1.405L47.061,27.884,57.066,37.889a.886.886,0,0,0,1.253,0L75.152,21.056a.886.886,0,0,0-.626-1.512H72.754V17.772h7.088Z" transform="translate(-32 -16)"/>
    </g>
  </g>
</svg>
