<svg xmlns="http://www.w3.org/2000/svg" width="158.213" height="43.885" viewBox="0 0 158.213 43.885">
  <g id="Grupo_1173922" data-name="Grupo 1173922" transform="translate(-468.65 -3578.111)">
    <path id="Trazado_1031069" data-name="Trazado 1031069" d="M10.336-9.29a4.837,4.837,0,0,1-.316,1.753A3.9,3.9,0,0,1,9.057-6.1a4.579,4.579,0,0,1-1.639.971,6.932,6.932,0,0,1-2.338.356H3.164L2.162,0H.65L3.313-12.6H6.574a4.8,4.8,0,0,1,1.727.277,3.25,3.25,0,0,1,1.169.738,2.8,2.8,0,0,1,.659,1.059A3.767,3.767,0,0,1,10.336-9.29ZM8.78-9.158a2.234,2.234,0,0,0-.163-.866,1.787,1.787,0,0,0-.479-.668,2.179,2.179,0,0,0-.787-.426,3.587,3.587,0,0,0-1.085-.149H4.553L3.454-6.1H5.221a4.916,4.916,0,0,0,1.6-.233,3.049,3.049,0,0,0,1.107-.642,2.5,2.5,0,0,0,.642-.967A3.481,3.481,0,0,0,8.78-9.158Z" transform="translate(468 3601.996)" fill="#212429"/>
    <path id="Trazado_1031070" data-name="Trazado 1031070" d="M10.3-6.539H2.039V-7.7H10.3Zm0,3.744H2.039v-1.16H10.3Z" transform="translate(484 3601.996)" fill="#212429"/>
    <path id="Trazado_1031071" data-name="Trazado 1031071" d="M5.238,2.865H3.955A11.232,11.232,0,0,1,1.23-4.808a11.658,11.658,0,0,1,2.725-7.8h1.3A11.845,11.845,0,0,0,2.5-4.825,11.638,11.638,0,0,0,5.238,2.865ZM8.246,4.236h-1.3v-18h1.3ZM20.1,0h-1.8l-2.9-4.825a4.327,4.327,0,0,1-.29-.624h-.035q-.088.2-.3.624L11.781,0H9.97l4.219-6.337L10.3-12.6h1.811l2.575,4.43a8.885,8.885,0,0,1,.448.879h.035a9.7,9.7,0,0,1,.492-.914L18.346-12.6h1.7L16.079-6.354ZM31.358-4.447h-4.8V-5.581h4.8Zm8.881,8.684h-1.3v-18h1.3Zm11.445-10.3L44.125-2.25V-3.586L49.785-6.3v-.053l-5.66-3.138V-10.8l7.559,4.228ZM52.035,0H43.773V-1.169h8.262ZM63,0H60.975L57-4.324h-.035V0H55.526V-13.324h1.441v8.446H57L60.782-9h1.89L58.5-4.658ZM73.159-7.84h-2.25A5.623,5.623,0,0,1,72.157-4.3a4.738,4.738,0,0,1-1.107,3.252A3.761,3.761,0,0,1,68.079.211,3.935,3.935,0,0,1,65.011-1.05a4.816,4.816,0,0,1-1.143-3.362Q63.869-9,68.448-9h4.711Zm-3.551,0H68.571q-3.217,0-3.217,3.489A3.712,3.712,0,0,0,66.1-1.929a2.428,2.428,0,0,0,1.982.91,2.263,2.263,0,0,0,1.9-.918,3.957,3.957,0,0,0,.7-2.457A5.808,5.808,0,0,0,69.608-7.84ZM74.857,2.865H73.574a11.638,11.638,0,0,0,2.742-7.69,11.845,11.845,0,0,0-2.76-7.778h1.3a11.611,11.611,0,0,1,2.742,7.8A11.188,11.188,0,0,1,74.857,2.865Zm18.821-5.1L86.119-6.047v-.51l7.559-4.228v1.318L88.035-6.354v.035l5.643,2.751ZM94.029,0H85.768V-1.169h8.262Z" transform="translate(499 3602.996)" fill="#212429"/>
    <path id="Trazado_1031072" data-name="Trazado 1031072" d="M6.363,0H4.922V-10.89a3.336,3.336,0,0,1-.488.382,7.951,7.951,0,0,1-.721.426q-.4.211-.844.4A6.132,6.132,0,0,1,2-9.4v-1.459A8.379,8.379,0,0,0,3.01-11.21q.532-.224,1.046-.5t.971-.58a7.71,7.71,0,0,0,.791-.593h.545Z" transform="translate(606 3590.996)" fill="#212429"/>
    <path id="Trazado_1031073" data-name="Trazado 1031073" d="M4.377-4.843,7.559,0H5.889L2.936-4.755H2.9L1.89,0H.431L3.278-13.324H4.72L2.988-5.186h.035L7.506-9H9.378ZM12.784.576a1.52,1.52,0,0,0-.105-.59,1.168,1.168,0,0,0-.287-.418,1.176,1.176,0,0,0-.428-.249,1.676,1.676,0,0,0-.533-.082,1.764,1.764,0,0,0-.482.067,2.343,2.343,0,0,0-.459.185,2.823,2.823,0,0,0-.431.282,3.111,3.111,0,0,0-.387.364v-.9a2.514,2.514,0,0,1,.792-.525,2.789,2.789,0,0,1,1.069-.182,2.58,2.58,0,0,1,.836.131,1.916,1.916,0,0,1,.666.382,1.766,1.766,0,0,1,.443.62A2.092,2.092,0,0,1,13.64.5a2.9,2.9,0,0,1-.1.79,2.442,2.442,0,0,1-.3.666,3.216,3.216,0,0,1-.51.6A7.225,7.225,0,0,1,12,3.144q-.518.369-.854.631a3.773,3.773,0,0,0-.533.49,1.421,1.421,0,0,0-.277.456,1.6,1.6,0,0,0-.079.525h3.66V6H9.385V5.636a3.033,3.033,0,0,1,.1-.831,2.157,2.157,0,0,1,.338-.682,3.784,3.784,0,0,1,.618-.646q.382-.323.936-.728a5.915,5.915,0,0,0,.669-.549,2.852,2.852,0,0,0,.433-.523,1.878,1.878,0,0,0,.233-.531A2.288,2.288,0,0,0,12.784.576Z" transform="translate(606 3615.996)" fill="#212429"/>
    <path id="Trazado_1030190" data-name="Trazado 1030190" d="M128.441,28.01h26.422" transform="translate(472 3569.986)" fill="#212429" stroke="#212429" stroke-width="1"/>
  </g>
</svg>
