<svg xmlns="http://www.w3.org/2000/svg" width="131.413" height="44.832" viewBox="0 0 131.413 44.832">
  <g id="Grupo_1173928" data-name="Grupo 1173928" transform="translate(-469.204 -4720.229)">
    <path id="Trazado_1031133" data-name="Trazado 1031133" d="M11.646-10.512q-.255-.167-.584-.343a5.345,5.345,0,0,0-.725-.316A5.725,5.725,0,0,0,9.47-11.4a5.476,5.476,0,0,0-1.006-.088,5.845,5.845,0,0,0-2.377.466,5.219,5.219,0,0,0-1.8,1.283,5.758,5.758,0,0,0-1.138,1.92,6.95,6.95,0,0,0-.4,2.386,5.439,5.439,0,0,0,.29,1.85,3.707,3.707,0,0,0,.826,1.354A3.482,3.482,0,0,0,5.15-1.4,4.657,4.657,0,0,0,6.8-1.116a7.707,7.707,0,0,0,1.055-.066,6.107,6.107,0,0,0,.879-.185,5.671,5.671,0,0,0,.76-.281q.356-.163.69-.347L9.844-.448a7.264,7.264,0,0,1-1.525.5A8.872,8.872,0,0,1,6.5.22a5.763,5.763,0,0,1-2.175-.4A4.7,4.7,0,0,1,2.65-1.3,5.033,5.033,0,0,1,1.582-3.041,6.483,6.483,0,0,1,1.2-5.309a8.492,8.492,0,0,1,.523-3.032,6.854,6.854,0,0,1,1.485-2.373,6.737,6.737,0,0,1,2.312-1.547,7.812,7.812,0,0,1,2.993-.554,7.425,7.425,0,0,1,1.991.242,7.813,7.813,0,0,1,1.463.549ZM16.745,0H15.268l-1.89-12.6h1.529L16.3-2.733a4.7,4.7,0,0,1,.062.558,3.213,3.213,0,0,1-.009.541h.035q.044-.114.1-.255t.132-.286l.149-.29q.075-.145.136-.268l5.634-9.87h1.7Z" transform="translate(468 4749.044)" fill="#212429"/>
    <path id="Trazado_1031134" data-name="Trazado 1031134" d="M10.3-6.539H2.039V-7.7H10.3Zm0,3.744H2.039v-1.16H10.3Z" transform="translate(498 4749.044)" fill="#212429"/>
    <path id="Trazado_1031135" data-name="Trazado 1031135" d="M6.855-9.7l-2.408.492,1.67,2.136-.967.668L3.779-8.736,2.391-6.407l-.967-.668,1.67-2.136L.668-9.7l.4-1.1,2.3.87-.2-2.672H4.377l-.2,2.672,2.312-.87ZM18.8,0H17.362V-10.89a3.336,3.336,0,0,1-.488.382,7.952,7.952,0,0,1-.721.426q-.4.211-.844.4a6.132,6.132,0,0,1-.866.29v-1.459a8.379,8.379,0,0,0,1.006-.356q.532-.224,1.046-.5t.971-.58a7.711,7.711,0,0,0,.791-.593H18.8ZM31.11-6.354a12.381,12.381,0,0,1-.286,2.8A6.533,6.533,0,0,1,30-1.49,3.718,3.718,0,0,1,28.671-.215,3.633,3.633,0,0,1,26.882.22,3.393,3.393,0,0,1,25.19-.2a3.546,3.546,0,0,1-1.252-1.217,6.17,6.17,0,0,1-.773-1.964A12.146,12.146,0,0,1,22.9-6.047a13.749,13.749,0,0,1,.277-2.918,6.674,6.674,0,0,1,.813-2.123,3.619,3.619,0,0,1,1.332-1.292,3.739,3.739,0,0,1,1.824-.435Q31.11-12.814,31.11-6.354Zm-1.477.141q0-5.379-2.558-5.379-2.7,0-2.7,5.476,0,5.106,2.646,5.106Q29.633-1.011,29.633-6.214Zm11.181-.141a12.381,12.381,0,0,1-.286,2.8A6.533,6.533,0,0,1,39.7-1.49,3.718,3.718,0,0,1,38.376-.215,3.633,3.633,0,0,1,36.587.22,3.393,3.393,0,0,1,34.9-.2a3.546,3.546,0,0,1-1.252-1.217,6.17,6.17,0,0,1-.773-1.964,12.146,12.146,0,0,1-.264-2.667,13.749,13.749,0,0,1,.277-2.918,6.674,6.674,0,0,1,.813-2.123,3.619,3.619,0,0,1,1.332-1.292,3.739,3.739,0,0,1,1.824-.435Q40.815-12.814,40.815-6.354Zm-1.477.141q0-5.379-2.558-5.379-2.7,0-2.7,5.476,0,5.106,2.646,5.106Q39.338-1.011,39.338-6.214Zm5.767-.07a2.656,2.656,0,0,1-2.074-.857,3.288,3.288,0,0,1-.773-2.29,3.532,3.532,0,0,1,.817-2.465,2.831,2.831,0,0,1,2.206-.9,2.648,2.648,0,0,1,2.087.835,3.412,3.412,0,0,1,.743,2.347,3.452,3.452,0,0,1-.831,2.421A2.807,2.807,0,0,1,45.106-6.284Zm.123-5.546a1.582,1.582,0,0,0-1.318.62,2.7,2.7,0,0,0-.483,1.7A2.588,2.588,0,0,0,43.9-7.853a1.566,1.566,0,0,0,1.292.593,1.529,1.529,0,0,0,1.292-.615,2.768,2.768,0,0,0,.466-1.705,2.64,2.64,0,0,0-.461-1.657A1.511,1.511,0,0,0,45.229-11.83Zm8.314-.773L45.457.088H44.2L52.278-12.6ZM52.612.193a2.65,2.65,0,0,1-2.074-.861,3.291,3.291,0,0,1-.773-2.285,3.541,3.541,0,0,1,.826-2.474,2.824,2.824,0,0,1,2.2-.91,2.637,2.637,0,0,1,2.083.844,3.447,3.447,0,0,1,.747,2.364,3.439,3.439,0,0,1-.831,2.413A2.807,2.807,0,0,1,52.612.193Zm.123-5.537a1.583,1.583,0,0,0-1.323.615,2.713,2.713,0,0,0-.479,1.705,2.557,2.557,0,0,0,.475,1.639A1.566,1.566,0,0,0,52.7-.791a1.526,1.526,0,0,0,1.292-.62,2.772,2.772,0,0,0,.466-1.7A2.6,2.6,0,0,0,54-4.764,1.524,1.524,0,0,0,52.735-5.344Z" transform="translate(545 4749.044)" fill="#212429"/>
    <path id="Trazado_1031136" data-name="Trazado 1031136" d="M1.063-.51V-2.25a3.38,3.38,0,0,0,.716.475,5.8,5.8,0,0,0,.879.356,7,7,0,0,0,.927.224,5.17,5.17,0,0,0,.861.079,3.374,3.374,0,0,0,2.035-.505,1.709,1.709,0,0,0,.672-1.455,1.708,1.708,0,0,0-.224-.888,2.525,2.525,0,0,0-.62-.69,6.148,6.148,0,0,0-.936-.6q-.541-.286-1.165-.6-.659-.334-1.23-.677a5.332,5.332,0,0,1-.993-.756,3.153,3.153,0,0,1-.664-.936,2.9,2.9,0,0,1-.242-1.226,2.883,2.883,0,0,1,.378-1.5A3.242,3.242,0,0,1,2.452-12a4.5,4.5,0,0,1,1.4-.615,6.419,6.419,0,0,1,1.6-.2,6.147,6.147,0,0,1,2.716.448v1.661a4.923,4.923,0,0,0-2.865-.773,4.712,4.712,0,0,0-.967.1,2.731,2.731,0,0,0-.861.33,1.908,1.908,0,0,0-.615.589,1.563,1.563,0,0,0-.237.879,1.809,1.809,0,0,0,.18.835A2.046,2.046,0,0,0,3.34-8.1a5.3,5.3,0,0,0,.857.563q.505.272,1.165.6.677.334,1.283.7a5.865,5.865,0,0,1,1.063.817,3.632,3.632,0,0,1,.725.993A2.792,2.792,0,0,1,8.7-3.182,3.165,3.165,0,0,1,8.336-1.6a2.993,2.993,0,0,1-.984,1.05A4.3,4.3,0,0,1,5.924.031a7.822,7.822,0,0,1-1.705.18A6.948,6.948,0,0,1,3.48.163q-.439-.048-.9-.141a7.315,7.315,0,0,1-.866-.229A2.694,2.694,0,0,1,1.063-.51Z" transform="translate(523 4733.044)" fill="#212429"/>
    <path id="Trazado_1031137" data-name="Trazado 1031137" d="M4.913-4.395,6.987,0,5.4.018,4.263-2.8q-.053-.141-.145-.378l-.171-.439H3.9q-.062.088-.145.2l-.163.215q-.079.105-.154.2t-.127.163L.958,0H-.756L3.3-4.482,1.274-9H2.865L3.946-6.135q.079.211.158.457t.123.387h.035q.053-.062.123-.154l.149-.2q.079-.105.163-.211t.163-.193L7.3-9H8.947Zm.995-6.319.141-.949h4.465l-.141.949Z" transform="translate(522 4765.044)" fill="#212429"/>
    <path id="Trazado_1029840" data-name="Trazado 1029840" d="M6785,2972.5h25.979" transform="translate(-6269.5 1771.92)" fill="none" stroke="#212429" stroke-width="1"/>
  </g>
</svg>
