<svg xmlns="http://www.w3.org/2000/svg" width="168.973" height="96.034" viewBox="0 0 168.973 96.034">
  <g id="Grupo_1173923" data-name="Grupo 1173923" transform="translate(-111.204 -93.182)">
    <path id="Trazado_1031074" data-name="Trazado 1031074" d="M11.646-10.512q-.255-.167-.584-.343a5.345,5.345,0,0,0-.725-.316A5.725,5.725,0,0,0,9.47-11.4a5.476,5.476,0,0,0-1.006-.088,5.845,5.845,0,0,0-2.377.466,5.219,5.219,0,0,0-1.8,1.283,5.758,5.758,0,0,0-1.138,1.92,6.95,6.95,0,0,0-.4,2.386,5.439,5.439,0,0,0,.29,1.85,3.707,3.707,0,0,0,.826,1.354A3.482,3.482,0,0,0,5.15-1.4,4.657,4.657,0,0,0,6.8-1.116a7.707,7.707,0,0,0,1.055-.066,6.107,6.107,0,0,0,.879-.185,5.671,5.671,0,0,0,.76-.281q.356-.163.69-.347L9.844-.448a7.264,7.264,0,0,1-1.525.5A8.872,8.872,0,0,1,6.5.22a5.763,5.763,0,0,1-2.175-.4A4.7,4.7,0,0,1,2.65-1.3,5.033,5.033,0,0,1,1.582-3.041,6.483,6.483,0,0,1,1.2-5.309a8.492,8.492,0,0,1,.523-3.032,6.854,6.854,0,0,1,1.485-2.373,6.737,6.737,0,0,1,2.312-1.547,7.812,7.812,0,0,1,2.993-.554,7.425,7.425,0,0,1,1.991.242,7.813,7.813,0,0,1,1.463.549ZM16.745,0H15.268l-1.89-12.6h1.529L16.3-2.733a4.7,4.7,0,0,1,.062.558,3.213,3.213,0,0,1-.009.541h.035q.044-.114.1-.255t.132-.286l.149-.29q.075-.145.136-.268l5.634-9.87h1.7Z" transform="translate(127 116.996)" fill="#212429"/>
    <path id="Trazado_1031075" data-name="Trazado 1031075" d="M11.646-10.512q-.255-.167-.584-.343a5.345,5.345,0,0,0-.725-.316A5.725,5.725,0,0,0,9.47-11.4a5.476,5.476,0,0,0-1.006-.088,5.845,5.845,0,0,0-2.377.466,5.219,5.219,0,0,0-1.8,1.283,5.758,5.758,0,0,0-1.138,1.92,6.95,6.95,0,0,0-.4,2.386,5.439,5.439,0,0,0,.29,1.85,3.707,3.707,0,0,0,.826,1.354A3.482,3.482,0,0,0,5.15-1.4,4.657,4.657,0,0,0,6.8-1.116a7.707,7.707,0,0,0,1.055-.066,6.107,6.107,0,0,0,.879-.185,5.671,5.671,0,0,0,.76-.281q.356-.163.69-.347L9.844-.448a7.264,7.264,0,0,1-1.525.5A8.872,8.872,0,0,1,6.5.22a5.763,5.763,0,0,1-2.175-.4A4.7,4.7,0,0,1,2.65-1.3,5.033,5.033,0,0,1,1.582-3.041,6.483,6.483,0,0,1,1.2-5.309a8.492,8.492,0,0,1,.523-3.032,6.854,6.854,0,0,1,1.485-2.373,6.737,6.737,0,0,1,2.312-1.547,7.812,7.812,0,0,1,2.993-.554,7.425,7.425,0,0,1,1.991.242,7.813,7.813,0,0,1,1.463.549ZM16.745,0H15.268l-1.89-12.6h1.529L16.3-2.733a4.7,4.7,0,0,1,.062.558,3.213,3.213,0,0,1-.009.541h.035q.044-.114.1-.255t.132-.286l.149-.29q.075-.145.136-.268l5.634-9.87h1.7ZM30.011-6.53V-7.708h8.262V-6.53Zm0,3.744V-3.964h8.262v1.178ZM51.829-9.3a2.606,2.606,0,0,0-.18-1.011,2,2,0,0,0-.492-.716,2.017,2.017,0,0,0-.734-.426,2.874,2.874,0,0,0-.914-.141,3.023,3.023,0,0,0-.826.114,4.016,4.016,0,0,0-.787.316,4.839,4.839,0,0,0-.738.483,5.333,5.333,0,0,0-.664.624V-11.6a4.309,4.309,0,0,1,1.358-.9,4.781,4.781,0,0,1,1.833-.312,4.424,4.424,0,0,1,1.433.224,3.285,3.285,0,0,1,1.143.655,3.027,3.027,0,0,1,.76,1.063,3.587,3.587,0,0,1,.277,1.45,4.973,4.973,0,0,1-.171,1.354,4.186,4.186,0,0,1-.519,1.143A5.513,5.513,0,0,1,51.733-5.9a12.387,12.387,0,0,1-1.239,1q-.888.633-1.463,1.081a6.469,6.469,0,0,0-.914.839,2.436,2.436,0,0,0-.475.782,2.734,2.734,0,0,0-.136.9H53.78V0H46V-.624a5.2,5.2,0,0,1,.176-1.424,3.7,3.7,0,0,1,.58-1.169,6.487,6.487,0,0,1,1.059-1.107q.655-.554,1.6-1.248a10.141,10.141,0,0,0,1.147-.94,4.889,4.889,0,0,0,.743-.9,3.22,3.22,0,0,0,.4-.91A3.922,3.922,0,0,0,51.829-9.3ZM63.714-6.354a12.381,12.381,0,0,1-.286,2.8A6.533,6.533,0,0,1,62.6-1.49,3.718,3.718,0,0,1,61.275-.215,3.633,3.633,0,0,1,59.486.22,3.393,3.393,0,0,1,57.794-.2a3.546,3.546,0,0,1-1.252-1.217,6.17,6.17,0,0,1-.773-1.964A12.146,12.146,0,0,1,55.5-6.047a13.749,13.749,0,0,1,.277-2.918,6.674,6.674,0,0,1,.813-2.123,3.619,3.619,0,0,1,1.332-1.292,3.739,3.739,0,0,1,1.824-.435Q63.714-12.814,63.714-6.354Zm-1.477.141q0-5.379-2.558-5.379-2.7,0-2.7,5.476,0,5.106,2.646,5.106Q62.237-1.011,62.237-6.214ZM68-6.284a2.656,2.656,0,0,1-2.074-.857,3.288,3.288,0,0,1-.773-2.29,3.532,3.532,0,0,1,.817-2.465,2.831,2.831,0,0,1,2.206-.9,2.648,2.648,0,0,1,2.087.835,3.412,3.412,0,0,1,.743,2.347,3.452,3.452,0,0,1-.831,2.421A2.807,2.807,0,0,1,68-6.284Zm.123-5.546a1.582,1.582,0,0,0-1.318.62,2.7,2.7,0,0,0-.483,1.7A2.588,2.588,0,0,0,66.8-7.853a1.566,1.566,0,0,0,1.292.593,1.529,1.529,0,0,0,1.292-.615A2.768,2.768,0,0,0,69.85-9.58a2.64,2.64,0,0,0-.461-1.657A1.511,1.511,0,0,0,68.128-11.83Zm8.314-.773L68.356.088H67.1L75.177-12.6ZM75.511.193a2.65,2.65,0,0,1-2.074-.861,3.291,3.291,0,0,1-.773-2.285,3.541,3.541,0,0,1,.826-2.474,2.824,2.824,0,0,1,2.2-.91,2.637,2.637,0,0,1,2.083.844,3.447,3.447,0,0,1,.747,2.364,3.439,3.439,0,0,1-.831,2.413A2.807,2.807,0,0,1,75.511.193Zm.123-5.537a1.583,1.583,0,0,0-1.323.615,2.713,2.713,0,0,0-.479,1.705,2.557,2.557,0,0,0,.475,1.639A1.566,1.566,0,0,0,75.6-.791a1.526,1.526,0,0,0,1.292-.62,2.772,2.772,0,0,0,.466-1.7,2.6,2.6,0,0,0-.461-1.652A1.524,1.524,0,0,0,75.634-5.344Z" transform="translate(147.319 188.996)" fill="#212429"/>
    <path id="Trazado_1031076" data-name="Trazado 1031076" d="M11.646-10.512q-.255-.167-.584-.343a5.345,5.345,0,0,0-.725-.316A5.725,5.725,0,0,0,9.47-11.4a5.476,5.476,0,0,0-1.006-.088,5.845,5.845,0,0,0-2.377.466,5.219,5.219,0,0,0-1.8,1.283,5.758,5.758,0,0,0-1.138,1.92,6.95,6.95,0,0,0-.4,2.386,5.439,5.439,0,0,0,.29,1.85,3.707,3.707,0,0,0,.826,1.354A3.482,3.482,0,0,0,5.15-1.4,4.657,4.657,0,0,0,6.8-1.116a7.707,7.707,0,0,0,1.055-.066,6.107,6.107,0,0,0,.879-.185,5.671,5.671,0,0,0,.76-.281q.356-.163.69-.347L9.844-.448a7.264,7.264,0,0,1-1.525.5A8.872,8.872,0,0,1,6.5.22a5.763,5.763,0,0,1-2.175-.4A4.7,4.7,0,0,1,2.65-1.3,5.033,5.033,0,0,1,1.582-3.041,6.483,6.483,0,0,1,1.2-5.309a8.492,8.492,0,0,1,.523-3.032,6.854,6.854,0,0,1,1.485-2.373,6.737,6.737,0,0,1,2.312-1.547,7.812,7.812,0,0,1,2.993-.554,7.425,7.425,0,0,1,1.991.242,7.813,7.813,0,0,1,1.463.549ZM16.745,0H15.268l-1.89-12.6h1.529L16.3-2.733a4.7,4.7,0,0,1,.062.558,3.213,3.213,0,0,1-.009.541h.035q.044-.114.1-.255t.132-.286l.149-.29q.075-.145.136-.268l5.634-9.87h1.7Z" transform="translate(110 156.996)" fill="#212429"/>
    <path id="Trazado_1031077" data-name="Trazado 1031077" d="M10.3-6.539H2.039V-7.7H10.3Zm0,3.744H2.039v-1.16H10.3Z" transform="translate(161 116.996)" fill="#212429"/>
    <path id="Trazado_1031078" data-name="Trazado 1031078" d="M10.3-6.539H2.039V-7.7H10.3Zm0,3.744H2.039v-1.16H10.3Z" transform="translate(144 156.996)" fill="#212429"/>
    <path id="Trazado_1031079" data-name="Trazado 1031079" d="M6.855-9.7l-2.408.492,1.67,2.136-.967.668L3.779-8.736,2.391-6.407l-.967-.668,1.67-2.136L.668-9.7l.4-1.1,2.3.87-.2-2.672H4.377l-.2,2.672,2.312-.87Z" transform="translate(203 116.996)" fill="#212429"/>
    <path id="Trazado_1031080" data-name="Trazado 1031080" d="M6.855-9.7l-2.408.492,1.67,2.136-.967.668L3.779-8.736,2.391-6.407l-.967-.668,1.67-2.136L.668-9.7l.4-1.1,2.3.87-.2-2.672H4.377l-.2,2.672,2.312-.87Z" transform="translate(221 156.996)" fill="#212429"/>
    <path id="Trazado_1031081" data-name="Trazado 1031081" d="M6.363,0H4.922V-10.89a3.336,3.336,0,0,1-.488.382,7.951,7.951,0,0,1-.721.426q-.4.211-.844.4A6.132,6.132,0,0,1,2-9.4v-1.459A8.379,8.379,0,0,0,3.01-11.21q.532-.224,1.046-.5t.971-.58a7.71,7.71,0,0,0,.791-.593h.545ZM18.67-6.354a12.381,12.381,0,0,1-.286,2.8,6.533,6.533,0,0,1-.826,2.061A3.718,3.718,0,0,1,16.231-.215,3.633,3.633,0,0,1,14.442.22,3.393,3.393,0,0,1,12.75-.2,3.546,3.546,0,0,1,11.5-1.415a6.17,6.17,0,0,1-.773-1.964,12.146,12.146,0,0,1-.264-2.667,13.749,13.749,0,0,1,.277-2.918,6.674,6.674,0,0,1,.813-2.123,3.619,3.619,0,0,1,1.332-1.292,3.739,3.739,0,0,1,1.824-.435Q18.67-12.814,18.67-6.354Zm-1.477.141q0-5.379-2.558-5.379-2.7,0-2.7,5.476,0,5.106,2.646,5.106Q17.193-1.011,17.193-6.214Zm11.181-.141a12.381,12.381,0,0,1-.286,2.8,6.533,6.533,0,0,1-.826,2.061A3.718,3.718,0,0,1,25.936-.215,3.633,3.633,0,0,1,24.147.22,3.393,3.393,0,0,1,22.455-.2,3.546,3.546,0,0,1,21.2-1.415a6.17,6.17,0,0,1-.773-1.964,12.146,12.146,0,0,1-.264-2.667,13.749,13.749,0,0,1,.277-2.918,6.674,6.674,0,0,1,.813-2.123,3.619,3.619,0,0,1,1.332-1.292,3.739,3.739,0,0,1,1.824-.435Q28.375-12.814,28.375-6.354ZM26.9-6.214q0-5.379-2.558-5.379-2.7,0-2.7,5.476,0,5.106,2.646,5.106Q26.9-1.011,26.9-6.214Zm5.767-.07a2.656,2.656,0,0,1-2.074-.857,3.288,3.288,0,0,1-.773-2.29,3.532,3.532,0,0,1,.817-2.465,2.831,2.831,0,0,1,2.206-.9,2.648,2.648,0,0,1,2.087.835,3.412,3.412,0,0,1,.743,2.347,3.452,3.452,0,0,1-.831,2.421A2.807,2.807,0,0,1,32.666-6.284Zm.123-5.546a1.582,1.582,0,0,0-1.318.62,2.7,2.7,0,0,0-.483,1.7,2.588,2.588,0,0,0,.475,1.657,1.566,1.566,0,0,0,1.292.593,1.529,1.529,0,0,0,1.292-.615,2.768,2.768,0,0,0,.466-1.705,2.64,2.64,0,0,0-.461-1.657A1.511,1.511,0,0,0,32.789-11.83ZM41.1-12.6,33.017.088H31.76L39.837-12.6ZM40.171.193A2.65,2.65,0,0,1,38.1-.668a3.291,3.291,0,0,1-.773-2.285,3.541,3.541,0,0,1,.826-2.474,2.824,2.824,0,0,1,2.2-.91,2.637,2.637,0,0,1,2.083.844,3.447,3.447,0,0,1,.747,2.364,3.439,3.439,0,0,1-.831,2.413A2.807,2.807,0,0,1,40.171.193Zm.123-5.537a1.583,1.583,0,0,0-1.323.615,2.713,2.713,0,0,0-.479,1.705,2.557,2.557,0,0,0,.475,1.639,1.566,1.566,0,0,0,1.292.593,1.526,1.526,0,0,0,1.292-.62,2.772,2.772,0,0,0,.466-1.7,2.6,2.6,0,0,0-.461-1.652A1.524,1.524,0,0,0,40.294-5.344Z" transform="translate(219 116.996)" fill="#212429"/>
    <path id="Trazado_1031082" data-name="Trazado 1031082" d="M6.363,0H4.922V-10.89a3.336,3.336,0,0,1-.488.382,7.951,7.951,0,0,1-.721.426q-.4.211-.844.4A6.132,6.132,0,0,1,2-9.4v-1.459A8.379,8.379,0,0,0,3.01-11.21q.532-.224,1.046-.5t.971-.58a7.71,7.71,0,0,0,.791-.593h.545ZM18.67-6.354a12.381,12.381,0,0,1-.286,2.8,6.533,6.533,0,0,1-.826,2.061A3.718,3.718,0,0,1,16.231-.215,3.633,3.633,0,0,1,14.442.22,3.393,3.393,0,0,1,12.75-.2,3.546,3.546,0,0,1,11.5-1.415a6.17,6.17,0,0,1-.773-1.964,12.146,12.146,0,0,1-.264-2.667,13.749,13.749,0,0,1,.277-2.918,6.674,6.674,0,0,1,.813-2.123,3.619,3.619,0,0,1,1.332-1.292,3.739,3.739,0,0,1,1.824-.435Q18.67-12.814,18.67-6.354Zm-1.477.141q0-5.379-2.558-5.379-2.7,0-2.7,5.476,0,5.106,2.646,5.106Q17.193-1.011,17.193-6.214Zm11.181-.141a12.381,12.381,0,0,1-.286,2.8,6.533,6.533,0,0,1-.826,2.061A3.718,3.718,0,0,1,25.936-.215,3.633,3.633,0,0,1,24.147.22,3.393,3.393,0,0,1,22.455-.2,3.546,3.546,0,0,1,21.2-1.415a6.17,6.17,0,0,1-.773-1.964,12.146,12.146,0,0,1-.264-2.667,13.749,13.749,0,0,1,.277-2.918,6.674,6.674,0,0,1,.813-2.123,3.619,3.619,0,0,1,1.332-1.292,3.739,3.739,0,0,1,1.824-.435Q28.375-12.814,28.375-6.354ZM26.9-6.214q0-5.379-2.558-5.379-2.7,0-2.7,5.476,0,5.106,2.646,5.106Q26.9-1.011,26.9-6.214Zm5.767-.07a2.656,2.656,0,0,1-2.074-.857,3.288,3.288,0,0,1-.773-2.29,3.532,3.532,0,0,1,.817-2.465,2.831,2.831,0,0,1,2.206-.9,2.648,2.648,0,0,1,2.087.835,3.412,3.412,0,0,1,.743,2.347,3.452,3.452,0,0,1-.831,2.421A2.807,2.807,0,0,1,32.666-6.284Zm.123-5.546a1.582,1.582,0,0,0-1.318.62,2.7,2.7,0,0,0-.483,1.7,2.588,2.588,0,0,0,.475,1.657,1.566,1.566,0,0,0,1.292.593,1.529,1.529,0,0,0,1.292-.615,2.768,2.768,0,0,0,.466-1.705,2.64,2.64,0,0,0-.461-1.657A1.511,1.511,0,0,0,32.789-11.83ZM41.1-12.6,33.017.088H31.76L39.837-12.6ZM40.171.193A2.65,2.65,0,0,1,38.1-.668a3.291,3.291,0,0,1-.773-2.285,3.541,3.541,0,0,1,.826-2.474,2.824,2.824,0,0,1,2.2-.91,2.637,2.637,0,0,1,2.083.844,3.447,3.447,0,0,1,.747,2.364,3.439,3.439,0,0,1-.831,2.413A2.807,2.807,0,0,1,40.171.193Zm.123-5.537a1.583,1.583,0,0,0-1.323.615,2.713,2.713,0,0,0-.479,1.705,2.557,2.557,0,0,0,.475,1.639,1.566,1.566,0,0,0,1.292.593,1.526,1.526,0,0,0,1.292-.62,2.772,2.772,0,0,0,.466-1.7,2.6,2.6,0,0,0-.461-1.652A1.524,1.524,0,0,0,40.294-5.344Z" transform="translate(237 156.996)" fill="#212429"/>
    <path id="Trazado_1031083" data-name="Trazado 1031083" d="M6.785-9.3A2.606,2.606,0,0,0,6.6-10.31a2,2,0,0,0-.492-.716,2.017,2.017,0,0,0-.734-.426,2.874,2.874,0,0,0-.914-.141,3.023,3.023,0,0,0-.826.114,4.016,4.016,0,0,0-.787.316,4.839,4.839,0,0,0-.738.483,5.333,5.333,0,0,0-.664.624V-11.6a4.309,4.309,0,0,1,1.358-.9,4.781,4.781,0,0,1,1.833-.312,4.424,4.424,0,0,1,1.433.224,3.285,3.285,0,0,1,1.143.655,3.027,3.027,0,0,1,.76,1.063,3.587,3.587,0,0,1,.277,1.45,4.973,4.973,0,0,1-.171,1.354,4.186,4.186,0,0,1-.519,1.143A5.513,5.513,0,0,1,6.688-5.9a12.387,12.387,0,0,1-1.239,1q-.888.633-1.463,1.081a6.469,6.469,0,0,0-.914.839,2.436,2.436,0,0,0-.475.782,2.734,2.734,0,0,0-.136.9H8.736V0H.958V-.624a5.2,5.2,0,0,1,.176-1.424,3.7,3.7,0,0,1,.58-1.169A6.487,6.487,0,0,1,2.773-4.324q.655-.554,1.6-1.248a10.141,10.141,0,0,0,1.147-.94,4.889,4.889,0,0,0,.743-.9,3.22,3.22,0,0,0,.4-.91A3.922,3.922,0,0,0,6.785-9.3ZM18.67-6.354a12.381,12.381,0,0,1-.286,2.8,6.533,6.533,0,0,1-.826,2.061A3.718,3.718,0,0,1,16.231-.215,3.633,3.633,0,0,1,14.442.22,3.393,3.393,0,0,1,12.75-.2,3.546,3.546,0,0,1,11.5-1.415a6.17,6.17,0,0,1-.773-1.964,12.146,12.146,0,0,1-.264-2.667,13.749,13.749,0,0,1,.277-2.918,6.674,6.674,0,0,1,.813-2.123,3.619,3.619,0,0,1,1.332-1.292,3.739,3.739,0,0,1,1.824-.435Q18.67-12.814,18.67-6.354Zm-1.477.141q0-5.379-2.558-5.379-2.7,0-2.7,5.476,0,5.106,2.646,5.106Q17.193-1.011,17.193-6.214ZM21.37.193a.933.933,0,0,1-.69-.29.955.955,0,0,1-.286-.694.969.969,0,0,1,.286-.7.926.926,0,0,1,.69-.294.95.95,0,0,1,.7.294.962.962,0,0,1,.29.7.947.947,0,0,1-.29.694A.958.958,0,0,1,21.37.193ZM32.279-6.354a12.381,12.381,0,0,1-.286,2.8,6.533,6.533,0,0,1-.826,2.061A3.718,3.718,0,0,1,29.84-.215,3.633,3.633,0,0,1,28.051.22,3.393,3.393,0,0,1,26.359-.2a3.546,3.546,0,0,1-1.252-1.217,6.17,6.17,0,0,1-.773-1.964,12.146,12.146,0,0,1-.264-2.667,13.749,13.749,0,0,1,.277-2.918,6.674,6.674,0,0,1,.813-2.123,3.619,3.619,0,0,1,1.332-1.292,3.739,3.739,0,0,1,1.824-.435Q32.279-12.814,32.279-6.354ZM30.8-6.214q0-5.379-2.558-5.379-2.7,0-2.7,5.476,0,5.106,2.646,5.106Q30.8-1.011,30.8-6.214Zm11.181-.141a12.381,12.381,0,0,1-.286,2.8,6.533,6.533,0,0,1-.826,2.061A3.718,3.718,0,0,1,39.545-.215,3.633,3.633,0,0,1,37.756.22,3.393,3.393,0,0,1,36.064-.2a3.546,3.546,0,0,1-1.252-1.217,6.17,6.17,0,0,1-.773-1.964,12.146,12.146,0,0,1-.264-2.667,13.749,13.749,0,0,1,.277-2.918,6.674,6.674,0,0,1,.813-2.123A3.619,3.619,0,0,1,36.2-12.379a3.739,3.739,0,0,1,1.824-.435Q41.984-12.814,41.984-6.354Zm-1.477.141q0-5.379-2.558-5.379-2.7,0-2.7,5.476,0,5.106,2.646,5.106Q40.507-1.011,40.507-6.214Zm11.181-.141a12.381,12.381,0,0,1-.286,2.8,6.533,6.533,0,0,1-.826,2.061A3.718,3.718,0,0,1,49.25-.215,3.633,3.633,0,0,1,47.461.22,3.393,3.393,0,0,1,45.769-.2a3.546,3.546,0,0,1-1.252-1.217,6.17,6.17,0,0,1-.773-1.964,12.146,12.146,0,0,1-.264-2.667,13.749,13.749,0,0,1,.277-2.918,6.674,6.674,0,0,1,.813-2.123A3.619,3.619,0,0,1,45.9-12.379a3.739,3.739,0,0,1,1.824-.435Q51.689-12.814,51.689-6.354Zm-1.477.141q0-5.379-2.558-5.379-2.7,0-2.7,5.476,0,5.106,2.646,5.106Q50.212-1.011,50.212-6.214Z" transform="translate(160.319 143.996)" fill="#212429"/>
    <path id="Trazado_1031084" data-name="Trazado 1031084" d="M6.363,0H4.922V-10.89a3.336,3.336,0,0,1-.488.382,7.951,7.951,0,0,1-.721.426q-.4.211-.844.4A6.132,6.132,0,0,1,2-9.4v-1.459A8.379,8.379,0,0,0,3.01-11.21q.532-.224,1.046-.5t.971-.58a7.71,7.71,0,0,0,.791-.593h.545ZM18.67-6.354a12.381,12.381,0,0,1-.286,2.8,6.533,6.533,0,0,1-.826,2.061A3.718,3.718,0,0,1,16.231-.215,3.633,3.633,0,0,1,14.442.22,3.393,3.393,0,0,1,12.75-.2,3.546,3.546,0,0,1,11.5-1.415a6.17,6.17,0,0,1-.773-1.964,12.146,12.146,0,0,1-.264-2.667,13.749,13.749,0,0,1,.277-2.918,6.674,6.674,0,0,1,.813-2.123,3.619,3.619,0,0,1,1.332-1.292,3.739,3.739,0,0,1,1.824-.435Q18.67-12.814,18.67-6.354Zm-1.477.141q0-5.379-2.558-5.379-2.7,0-2.7,5.476,0,5.106,2.646,5.106Q17.193-1.011,17.193-6.214Zm11.181-.141a12.381,12.381,0,0,1-.286,2.8,6.533,6.533,0,0,1-.826,2.061A3.718,3.718,0,0,1,25.936-.215,3.633,3.633,0,0,1,24.147.22,3.393,3.393,0,0,1,22.455-.2,3.546,3.546,0,0,1,21.2-1.415a6.17,6.17,0,0,1-.773-1.964,12.146,12.146,0,0,1-.264-2.667,13.749,13.749,0,0,1,.277-2.918,6.674,6.674,0,0,1,.813-2.123,3.619,3.619,0,0,1,1.332-1.292,3.739,3.739,0,0,1,1.824-.435Q28.375-12.814,28.375-6.354ZM26.9-6.214q0-5.379-2.558-5.379-2.7,0-2.7,5.476,0,5.106,2.646,5.106Q26.9-1.011,26.9-6.214ZM31.075.193a.933.933,0,0,1-.69-.29A.955.955,0,0,1,30.1-.791a.969.969,0,0,1,.286-.7.926.926,0,0,1,.69-.294.95.95,0,0,1,.7.294.962.962,0,0,1,.29.7.947.947,0,0,1-.29.694A.958.958,0,0,1,31.075.193ZM41.984-6.354a12.381,12.381,0,0,1-.286,2.8,6.533,6.533,0,0,1-.826,2.061A3.718,3.718,0,0,1,39.545-.215,3.633,3.633,0,0,1,37.756.22,3.393,3.393,0,0,1,36.064-.2a3.546,3.546,0,0,1-1.252-1.217,6.17,6.17,0,0,1-.773-1.964,12.146,12.146,0,0,1-.264-2.667,13.749,13.749,0,0,1,.277-2.918,6.674,6.674,0,0,1,.813-2.123A3.619,3.619,0,0,1,36.2-12.379a3.739,3.739,0,0,1,1.824-.435Q41.984-12.814,41.984-6.354Zm-1.477.141q0-5.379-2.558-5.379-2.7,0-2.7,5.476,0,5.106,2.646,5.106Q40.507-1.011,40.507-6.214Zm11.181-.141a12.381,12.381,0,0,1-.286,2.8,6.533,6.533,0,0,1-.826,2.061A3.718,3.718,0,0,1,49.25-.215,3.633,3.633,0,0,1,47.461.22,3.393,3.393,0,0,1,45.769-.2a3.546,3.546,0,0,1-1.252-1.217,6.17,6.17,0,0,1-.773-1.964,12.146,12.146,0,0,1-.264-2.667,13.749,13.749,0,0,1,.277-2.918,6.674,6.674,0,0,1,.813-2.123A3.619,3.619,0,0,1,45.9-12.379a3.739,3.739,0,0,1,1.824-.435Q51.689-12.814,51.689-6.354Zm-1.477.141q0-5.379-2.558-5.379-2.7,0-2.7,5.476,0,5.106,2.646,5.106Q50.212-1.011,50.212-6.214Zm11.181-.141a12.381,12.381,0,0,1-.286,2.8,6.533,6.533,0,0,1-.826,2.061A3.718,3.718,0,0,1,58.955-.215,3.633,3.633,0,0,1,57.166.22,3.393,3.393,0,0,1,55.474-.2a3.546,3.546,0,0,1-1.252-1.217,6.17,6.17,0,0,1-.773-1.964,12.146,12.146,0,0,1-.264-2.667,13.749,13.749,0,0,1,.277-2.918,6.674,6.674,0,0,1,.813-2.123,3.619,3.619,0,0,1,1.332-1.292,3.739,3.739,0,0,1,1.824-.435Q61.394-12.814,61.394-6.354Zm-1.477.141q0-5.379-2.558-5.379-2.7,0-2.7,5.476,0,5.106,2.646,5.106Q59.917-1.011,59.917-6.214Z" transform="translate(155 167.996)" fill="#212429"/>
    <path id="Trazado_1031085" data-name="Trazado 1031085" d="M8.71-10.714a3.2,3.2,0,0,0-.523-.3,5,5,0,0,0-.65-.246,5.572,5.572,0,0,0-.725-.167,4.644,4.644,0,0,0-.747-.062,3.106,3.106,0,0,0-1.182.2,2.217,2.217,0,0,0-.769.5,1.849,1.849,0,0,0-.417.664,2.035,2.035,0,0,0-.127.677,2.3,2.3,0,0,0,.114.747,2.35,2.35,0,0,0,.343.642,3.809,3.809,0,0,0,.589.615q.36.308.844.659A11.5,11.5,0,0,1,6.429-6a5.323,5.323,0,0,1,.725.8,3.2,3.2,0,0,1,.453.861,3.027,3.027,0,0,1,.154.98,4.338,4.338,0,0,1-.066.716,3.4,3.4,0,0,1-.237.787,3.483,3.483,0,0,1-.47.773,2.973,2.973,0,0,1-.76.668A4.083,4.083,0,0,1,5.115.044,5.9,5.9,0,0,1,3.586.22a6.589,6.589,0,0,1-.967-.07,8.018,8.018,0,0,1-.9-.185A6.615,6.615,0,0,1,.936-.294,5.831,5.831,0,0,1,.325-.58L.58-2.109a4.7,4.7,0,0,0,.642.382,5.97,5.97,0,0,0,.765.316,6.013,6.013,0,0,0,.835.215,4.711,4.711,0,0,0,.853.079,3.676,3.676,0,0,0,1.147-.158,2.227,2.227,0,0,0,.791-.435,1.661,1.661,0,0,0,.457-.655,2.262,2.262,0,0,0,.145-.817,1.951,1.951,0,0,0-.123-.712,2.217,2.217,0,0,0-.378-.62,4.538,4.538,0,0,0-.646-.615q-.391-.312-.927-.69a8.939,8.939,0,0,1-.822-.664,4.643,4.643,0,0,1-.686-.778,3.712,3.712,0,0,1-.466-.918A3.279,3.279,0,0,1,2-9.255a3.53,3.53,0,0,1,.268-1.367,3.2,3.2,0,0,1,.8-1.134,3.848,3.848,0,0,1,1.305-.773,5.228,5.228,0,0,1,1.806-.286,6.407,6.407,0,0,1,.787.048q.391.048.76.132t.7.185q.33.1.584.207ZM11.988,8.4q-.062.079-.308.369t-.606.721q-.36.431-.809.954l-.914,1.068-.918,1.077q-.453.532-.822.962t-.624.734q-.255.3-.325.4.026.088.149.387t.308.734q.185.435.409.967t.457,1.081l.457,1.077.409.962q.185.435.312.729T9.325,21H7.611L5.739,16.175q-.018-.044-.044-.127t-.053-.18q-.026-.1-.044-.189t-.035-.154H5.528q-.026.053-.07.136t-.1.185q-.057.1-.119.2a1.374,1.374,0,0,1-.123.167l-4,4.79H-.773l.316-.365q.255-.294.633-.725l.844-.962q.466-.532.949-1.09t.958-1.1q.475-.541.866-.993t.672-.773q.281-.321.378-.435-.044-.132-.18-.453t-.325-.756L3.924,12.4q-.224-.514-.457-1.042T3.015,10.33q-.22-.5-.4-.91t-.294-.681Q2.206,8.467,2.18,8.4H3.92L5.7,13.1q.026.062.057.145t.057.176q.026.092.053.18a1.055,1.055,0,0,1,.035.149h.035q.026-.053.07-.136t.1-.176l.119-.189a1.374,1.374,0,0,1,.123-.167L10.222,8.4Z" transform="translate(182 105.996)" fill="#212429"/>
    <path id="Trazado_1030494" data-name="Trazado 1030494" d="M26.633,26.262H48" transform="translate(150 84.986)" fill="none" stroke="#212429" stroke-width="1"/>
    <path id="Trazado_1030495" data-name="Trazado 1030495" d="M26.633,26.262H87.314" transform="translate(133.686 124.234)" fill="none" stroke="#212429" stroke-width="1"/>
  </g>
</svg>
