<svg xmlns="http://www.w3.org/2000/svg" xmlns:xlink="http://www.w3.org/1999/xlink" width="108" height="108" viewBox="0 0 108 108">
  <defs>
    <filter id="Trazado_904820" x="0" y="0" width="108" height="108" filterUnits="userSpaceOnUse">
      <feOffset dy="3" input="SourceAlpha"/>
      <feGaussianBlur stdDeviation="3" result="blur"/>
      <feFlood flood-opacity="0.161"/>
      <feComposite operator="in" in2="blur"/>
      <feComposite in="SourceGraphic"/>
    </filter>
  </defs>
  <g id="Grupo_1173919" data-name="Grupo 1173919" transform="translate(-620 -6823.798)">
    <g id="Grupo_1173760" data-name="Grupo 1173760" transform="translate(629 6829.798)">
      <g id="Grupo_1173428" data-name="Grupo 1173428" transform="translate(0 0)">
        <g id="Grupo_1171958" data-name="Grupo 1171958" transform="translate(0)">
          <g id="Grupo_1167341" data-name="Grupo 1167341">
            <g id="Grupo_1166792" data-name="Grupo 1166792">
              <g transform="matrix(1, 0, 0, 1, -9, -6)" filter="url(#Trazado_904820)">
                <g id="Trazado_904820-2" data-name="Trazado 904820" transform="translate(9 6)" fill="#e9f9fd">
                  <path d="M 44.99999618530273 88.49999237060547 C 39.12687301635742 88.49999237060547 33.43022155761719 87.35006713867188 28.06829643249512 85.08216857910156 C 22.88852119445801 82.89130401611328 18.23629570007324 79.75457763671875 14.24084663391113 75.75914001464844 C 10.24540901184082 71.76369476318359 7.108683586120605 67.11146545410156 4.917821407318115 61.93169403076172 C 2.649921178817749 56.56976699829102 1.499996185302734 50.87311553955078 1.499996185302734 44.99999237060547 C 1.499996185302734 39.12686920166016 2.649921178817749 33.43021774291992 4.917821407318115 28.06829261779785 C 7.108683586120605 22.88851737976074 10.24540901184082 18.23630523681641 14.24084663391113 14.24085521697998 C 18.23629570007324 10.24540519714355 22.88852119445801 7.108692169189453 28.06829643249512 4.917829990386963 C 33.43022155761719 2.649929761886597 39.12687301635742 1.500004887580872 44.99999618530273 1.500004887580872 C 50.87311935424805 1.500004887580872 56.56977081298828 2.649929761886597 61.93169784545898 4.917829990386963 C 67.11147308349609 7.108692169189453 71.76369476318359 10.24540519714355 75.75914764404297 14.24085521697998 C 79.75458526611328 18.23630523681641 82.89131164550781 22.88851737976074 85.08216857910156 28.06829261779785 C 87.35007476806641 33.43021774291992 88.5 39.12686920166016 88.5 44.99999237060547 C 88.5 50.87311553955078 87.35007476806641 56.56976699829102 85.08216857910156 61.93169403076172 C 82.89131164550781 67.11146545410156 79.75458526611328 71.76369476318359 75.75914764404297 75.75914001464844 C 71.76369476318359 79.75457763671875 67.11147308349609 82.89130401611328 61.93169784545898 85.08216857910156 C 56.56977081298828 87.35006713867188 50.87311935424805 88.49999237060547 44.99999618530273 88.49999237060547 Z" stroke="none"/>
                  <path d="M 44.99999618530273 2.999992370605469 C 39.32870864868164 2.999992370605469 33.82865142822266 4.11004638671875 28.65262603759766 6.299331665039062 C 23.65165710449219 8.414566040039062 19.15968322753906 11.44333648681641 15.301513671875 15.30150604248047 C 11.44333648681641 19.15967559814453 8.414566040039062 23.65164947509766 6.299339294433594 28.65262222290039 C 4.110054016113281 33.82864761352539 2.999992370605469 39.32870483398438 2.999992370605469 44.99999237060547 C 2.999992370605469 50.67127990722656 4.110054016113281 56.17132186889648 6.299339294433594 61.34736633300781 C 8.414566040039062 66.34833526611328 11.44333648681641 70.84029388427734 15.301513671875 74.69846343994141 C 19.15968322753906 78.55663299560547 23.65165710449219 81.58540344238281 28.65262603759766 83.70063781738281 C 33.82865142822266 85.88992309570312 39.32870864868164 86.99997711181641 44.99999618530273 86.99997711181641 C 50.67128372192383 86.99997711181641 56.17134094238281 85.88992309570312 61.34736633300781 83.70063781738281 C 66.34834289550781 81.58540344238281 70.84030914306641 78.55663299560547 74.69847869873047 74.69846343994141 C 78.55665588378906 70.84029388427734 81.58542633056641 66.34833526611328 83.70065307617188 61.34736633300781 C 85.88993835449219 56.17132186889648 87 50.67127990722656 87 44.99999237060547 C 87 39.32870483398438 85.88993835449219 33.82864761352539 83.70065307617188 28.65262222290039 C 81.58542633056641 23.65164947509766 78.55665588378906 19.15967559814453 74.69847869873047 15.30150604248047 C 70.84030914306641 11.44333648681641 66.34834289550781 8.414566040039062 61.34736633300781 6.299331665039062 C 56.17134094238281 4.11004638671875 50.67128372192383 2.999992370605469 44.99999618530273 2.999992370605469 M 44.99999618530273 -7.62939453125e-06 C 69.85281372070312 -7.62939453125e-06 90 20.14717864990234 90 44.99999237060547 C 90 69.85279083251953 69.85281372070312 89.99997711181641 44.99999618530273 89.99997711181641 C 20.14717864990234 89.99997711181641 -7.62939453125e-06 69.85279083251953 -7.62939453125e-06 44.99999237060547 C -7.62939453125e-06 20.14717864990234 20.14717864990234 -7.62939453125e-06 44.99999618530273 -7.62939453125e-06 Z" stroke="none" fill="#36ceef"/>
                </g>
              </g>
            </g>
          </g>
        </g>
      </g>
    </g>
    <g id="gear_7506065" transform="translate(643.997 6844.8)">
      <g id="Icons">
        <path id="Trazado_1031041" data-name="Trazado 1031041" d="M58.855,27.281a1.787,1.787,0,0,0-1.5-1.54L55.6,25.453A25.867,25.867,0,0,0,51.31,15.125l1.042-1.456a1.8,1.8,0,0,0-.018-2.157A23.808,23.808,0,0,0,50.5,9.5a26.953,26.953,0,0,0-2.012-1.83,1.8,1.8,0,0,0-2.157-.018L44.874,8.694A25.856,25.856,0,0,0,34.547,4.406l-.288-1.757a1.787,1.787,0,0,0-1.54-1.5,25.565,25.565,0,0,0-5.438,0,1.787,1.787,0,0,0-1.54,1.5l-.288,1.757A25.856,25.856,0,0,0,15.126,8.694L13.669,7.652a1.8,1.8,0,0,0-2.157.018A26.955,26.955,0,0,0,9.5,9.5a23.808,23.808,0,0,0-1.83,2.012,1.8,1.8,0,0,0-.018,2.157l1.042,1.456A25.867,25.867,0,0,0,4.406,25.453l-1.757.288a1.787,1.787,0,0,0-1.5,1.54,25.565,25.565,0,0,0,0,5.438,1.807,1.807,0,0,0,1.5,1.54l1.757.288A25.867,25.867,0,0,0,8.694,44.875L7.652,46.331a1.794,1.794,0,0,0,.018,2.156A26.767,26.767,0,0,0,9.5,50.5c.652.653,1.323,1.251,2.011,1.831a1.8,1.8,0,0,0,2.157.018l1.456-1.042a25.867,25.867,0,0,0,10.328,4.288l.288,1.757a1.787,1.787,0,0,0,1.54,1.5,25.565,25.565,0,0,0,5.438,0,1.787,1.787,0,0,0,1.54-1.5l.288-1.757a25.867,25.867,0,0,0,10.328-4.288l1.456,1.042a1.8,1.8,0,0,0,2.157-.018c.688-.58,1.359-1.178,2.011-1.831a26.77,26.77,0,0,0,1.831-2.012,1.794,1.794,0,0,0,.018-2.156l-1.042-1.456a25.867,25.867,0,0,0,4.288-10.328l1.757-.288a1.807,1.807,0,0,0,1.5-1.54,25.565,25.565,0,0,0,0-5.438Z" fill="#9e9e9e"/>
        <path id="Trazado_1031042" data-name="Trazado 1031042" d="M58.855,27.281a1.787,1.787,0,0,0-1.5-1.54L55.6,25.453A25.867,25.867,0,0,0,51.31,15.125l1.042-1.456a1.8,1.8,0,0,0-.018-2.157A23.808,23.808,0,0,0,50.5,9.5a26.953,26.953,0,0,0-2.012-1.83,1.8,1.8,0,0,0-2.157-.018l-.473.338c.558.476,1.107.977,1.641,1.511a23.807,23.807,0,0,1,1.831,2.011,1.8,1.8,0,0,1,.018,2.157l-1.042,1.456a25.867,25.867,0,0,1,4.288,10.328l1.757.288a1.787,1.787,0,0,1,1.5,1.54,25.565,25.565,0,0,1,0,5.438,1.807,1.807,0,0,1-1.5,1.54l-1.757.288a25.867,25.867,0,0,1-4.288,10.328l1.042,1.456a1.794,1.794,0,0,1-.018,2.156A26.769,26.769,0,0,1,47.5,50.5c-.534.535-1.084,1.028-1.643,1.51l.475.339a1.8,1.8,0,0,0,2.157-.018c.688-.58,1.359-1.178,2.011-1.831a26.77,26.77,0,0,0,1.831-2.012,1.794,1.794,0,0,0,.018-2.156l-1.042-1.456a25.867,25.867,0,0,0,4.288-10.328l1.757-.288a1.807,1.807,0,0,0,1.5-1.54,25.565,25.565,0,0,0,0-5.438Z" fill="#707070"/>
        <path id="Trazado_1031043" data-name="Trazado 1031043" d="M43.94,47a21.946,21.946,0,0,1-31.02-3.16A14.954,14.954,0,0,0,19,45c4.44,0,8.26-1.49,10-4.57V45a2.006,2.006,0,0,0,2,2Z" fill="#f5f5f5"/>
        <path id="Trazado_1031044" data-name="Trazado 1031044" d="M40.94,47a21.911,21.911,0,0,1-12.522,4.937c.523.037,1.049.063,1.582.063a21.912,21.912,0,0,0,13.94-5Z" fill="#cfd8dc"/>
        <path id="Trazado_1031045" data-name="Trazado 1031045" d="M29,31.59v8.84C27.26,43.51,23.44,45,19,45a14.954,14.954,0,0,1-6.08-1.16A21.91,21.91,0,0,1,8.33,33.76C9.24,29.85,11.94,25.35,15,24h8c2.51,1.11,4.77,4.32,6,7.59Z" fill="#ffdf00"/>
        <path id="Trazado_1031046" data-name="Trazado 1031046" d="M23,24H20c2.51,1.11,4.77,4.32,6,7.59v8.84c-1.539,2.725-4.709,4.2-8.494,4.505C18,44.974,18.492,45,19,45c4.44,0,8.26-1.49,10-4.57V31.59C27.77,28.32,25.51,25.11,23,24Z" fill="#fec108"/>
        <path id="Trazado_1031047" data-name="Trazado 1031047" d="M13.59,23.41A1.955,1.955,0,0,0,15,24c-3.06,1.35-5.76,5.85-6.67,9.76A21.2,21.2,0,0,1,8,30a21.836,21.836,0,0,1,5-13.94.57.57,0,0,0,.01.13C13.32,19.33,15,20,15,20a2.006,2.006,0,0,0-2,2,1.955,1.955,0,0,0,.59,1.41Z" fill="#f5f5f5"/>
        <path id="Trazado_1031048" data-name="Trazado 1031048" d="M24.99,16.19C24.68,19.33,23,20,23,20H15s-1.68-.67-1.99-3.81a.57.57,0,0,1-.01-.13,17.5,17.5,0,0,1,1.42-1.57A21.724,21.724,0,0,1,19,14a22.609,22.609,0,0,1,4.8.53,1.532,1.532,0,0,1,1.19,1.66Z" fill="#ffdf00"/>
        <path id="Trazado_1031049" data-name="Trazado 1031049" d="M23.8,14.53A22.609,22.609,0,0,0,19,14c-.519,0-1.012.022-1.487.055a22.9,22.9,0,0,1,3.287.475,1.532,1.532,0,0,1,1.19,1.66C21.68,19.33,20,20,20,20h3s1.68-.67,1.99-3.81a1.532,1.532,0,0,0-1.19-1.66Z" fill="#fec108"/>
        <path id="Trazado_1031050" data-name="Trazado 1031050" d="M47,43.94V23a2.006,2.006,0,0,0-2-2H31a2.006,2.006,0,0,0-2,2v8.59c-1.23-3.27-3.49-6.48-6-7.59a2,2,0,1,0,0-4s1.68-.67,1.99-3.81a1.532,1.532,0,0,0-1.19-1.66A22.609,22.609,0,0,0,19,14a21.724,21.724,0,0,0-4.58.49A21.983,21.983,0,0,1,47,43.94Z" fill="#f5f5f5"/>
        <path id="Trazado_1031051" data-name="Trazado 1031051" d="M30,8c-.5,0-1,.023-1.5.057A21.972,21.972,0,0,1,47,39.139v4.8A21.982,21.982,0,0,0,30,8Z" fill="#cfd8dc"/>
        <path id="Trazado_1031052" data-name="Trazado 1031052" d="M47,23V43.94A21.075,21.075,0,0,1,43.94,47H31a2.006,2.006,0,0,1-2-2V23a2.006,2.006,0,0,1,2-2H45a2.006,2.006,0,0,1,2,2Z" fill="#02a9f4"/>
        <path id="Trazado_1031053" data-name="Trazado 1031053" d="M45,21H42a2.006,2.006,0,0,1,2,2V43.94A21.075,21.075,0,0,1,40.94,47h3A21.075,21.075,0,0,0,47,43.94V23a2.006,2.006,0,0,0-2-2Z" fill="#0377bc"/>
        <rect id="Rectángulo_415128" data-name="Rectángulo 415128" width="10" height="6" rx="1" transform="translate(33 25)" fill="#a4c400"/>
        <path id="Trazado_1031054" data-name="Trazado 1031054" d="M25,22a2.006,2.006,0,0,1-2,2H15a2,2,0,1,1,0-4h8A2.015,2.015,0,0,1,25,22Z" fill="#ff9801"/>
        <path id="Trazado_1031055" data-name="Trazado 1031055" d="M24.41,20.59A1.955,1.955,0,0,0,23,20H20a2,2,0,1,1,0,4h3a2.006,2.006,0,0,0,2-2,1.955,1.955,0,0,0-.59-1.41Z" fill="#f57c00"/>
      </g>
      <g id="Icons_copy" data-name="Icons copy">
        <path id="Trazado_1031056" data-name="Trazado 1031056" d="M30,7A23,23,0,1,0,53,30,23,23,0,0,0,30,7ZM28,40.124C26.487,42.585,23.232,44,19,44a14.208,14.208,0,0,1-5.454-.992,20.9,20.9,0,0,1-4.188-9.232c.846-3.387,3.22-7.48,5.88-8.776h7.514c1.977.962,4.009,3.586,5.248,6.788ZM12.5,18.418a5.57,5.57,0,0,0,.652,1.237,2.975,2.975,0,0,0-.256,4.479,15.174,15.174,0,0,0-3.847,4.9A20.863,20.863,0,0,1,12.5,18.418ZM23,21a1,1,0,0,1,0,2H15a1,1,0,0,1,0-2Zm-.263-2H15.271a3.681,3.681,0,0,1-1.222-2.622q.426-.5.881-.969A20.373,20.373,0,0,1,19,15a21.637,21.637,0,0,1,4.584.507.533.533,0,0,1,.411.585C23.8,18.082,23.016,18.8,22.737,19ZM16.188,45.779A18.722,18.722,0,0,0,19,46a13.666,13.666,0,0,0,9-2.834V45a3,3,0,0,0,3,3h9.76a20.845,20.845,0,0,1-24.572-2.221ZM43.568,46H31a1,1,0,0,1-1-1V23a1,1,0,0,1,1-1H45a1,1,0,0,1,1,1V43.568A21,21,0,0,1,43.568,46ZM48,40.76V23a3,3,0,0,0-3-3H31a3,3,0,0,0-3,3v4.422a13.56,13.56,0,0,0-2.908-3.278,2.974,2.974,0,0,0-.243-4.489,6.824,6.824,0,0,0,1.136-3.361,2.534,2.534,0,0,0-1.97-2.74A23.708,23.708,0,0,0,19,13c-.465,0-.909.016-1.334.041A20.958,20.958,0,0,1,48,40.76Z"/>
        <path id="Trazado_1031057" data-name="Trazado 1031057" d="M42,24H34a2,2,0,0,0-2,2v4a2,2,0,0,0,2,2h8a2,2,0,0,0,2-2V26A2,2,0,0,0,42,24Zm-8,6V26h8v4Z"/>
        <circle id="Elipse_12270" data-name="Elipse 12270" cx="1" cy="1" r="1" transform="translate(33 34)"/>
        <circle id="Elipse_12271" data-name="Elipse 12271" cx="1" cy="1" r="1" transform="translate(37 34)"/>
        <circle id="Elipse_12272" data-name="Elipse 12272" cx="1" cy="1" r="1" transform="translate(41 34)"/>
        <circle id="Elipse_12273" data-name="Elipse 12273" cx="1" cy="1" r="1" transform="translate(33 38)"/>
        <circle id="Elipse_12274" data-name="Elipse 12274" cx="1" cy="1" r="1" transform="translate(37 38)"/>
        <circle id="Elipse_12275" data-name="Elipse 12275" cx="1" cy="1" r="1" transform="translate(33 42)"/>
        <circle id="Elipse_12276" data-name="Elipse 12276" cx="1" cy="1" r="1" transform="translate(37 42)"/>
        <path id="Trazado_1031058" data-name="Trazado 1031058" d="M42,38a1,1,0,0,0-1,1v4a1,1,0,0,0,2,0V39A1,1,0,0,0,42,38Z"/>
        <path id="Trazado_1031059" data-name="Trazado 1031059" d="M19,33a1,1,0,1,1,.867-1.5,1,1,0,0,0,1.731-1A2.993,2.993,0,0,0,20,29.2V29a1,1,0,0,0-2,0v.184A2.993,2.993,0,0,0,19,35a1,1,0,1,1-.867,1.5,1,1,0,0,0-1.731,1A2.993,2.993,0,0,0,18,38.8V39a1,1,0,0,0,2,0v-.184A2.993,2.993,0,0,0,19,33Z"/>
        <path id="Trazado_1031060" data-name="Trazado 1031060" d="M59.849,27.168a2.8,2.8,0,0,0-2.337-2.415l-1.067-.174a26.64,26.64,0,0,0-3.92-9.439l.633-.885A2.8,2.8,0,0,0,53.1,10.88a24.812,24.812,0,0,0-1.9-2.086,28.1,28.1,0,0,0-2.1-1.916,2.782,2.782,0,0,0-3.351-.039l-.888.636a26.632,26.632,0,0,0-9.439-3.92l-.174-1.067A2.8,2.8,0,0,0,32.819.149a26.3,26.3,0,0,0-5.651,0,2.8,2.8,0,0,0-2.415,2.337l-.174,1.067a26.632,26.632,0,0,0-9.439,3.92l-.885-.633a2.789,2.789,0,0,0-3.374.053,27.542,27.542,0,0,0-2.076,1.89,24.827,24.827,0,0,0-1.918,2.108,2.793,2.793,0,0,0-.048,3.36l.636.889a26.64,26.64,0,0,0-3.92,9.439l-1.067.174A2.8,2.8,0,0,0,.149,27.181a26.715,26.715,0,0,0,0,5.654,2.8,2.8,0,0,0,2.337,2.412l1.067.174a26.652,26.652,0,0,0,3.92,9.44l-.624.873A2.8,2.8,0,0,0,6.9,49.12a27.633,27.633,0,0,0,1.9,2.086c.605.606,1.265,1.206,2.108,1.916a2.787,2.787,0,0,0,3.351.039l.888-.636a26.64,26.64,0,0,0,9.439,3.92l.174,1.067a2.8,2.8,0,0,0,2.428,2.339,26.687,26.687,0,0,0,5.651,0,2.8,2.8,0,0,0,2.415-2.337l.174-1.067a26.64,26.64,0,0,0,9.439-3.92l.885.633a2.8,2.8,0,0,0,3.387-.063c.81-.683,1.47-1.283,2.074-1.888q1.047-1.047,1.916-2.108a2.789,2.789,0,0,0,.039-3.35l-.636-.889a26.64,26.64,0,0,0,3.92-9.439l1.067-.174a2.8,2.8,0,0,0,2.339-2.428,26.741,26.741,0,0,0,0-5.638ZM57.862,32.6a.81.81,0,0,1-.673.669l-1.756.288a1,1,0,0,0-.824.812,24.7,24.7,0,0,1-4.123,9.93,1,1,0,0,0,.006,1.155l1.054,1.471a.791.791,0,0,1,.01.926,25.932,25.932,0,0,1-1.765,1.938c-.562.564-1.182,1.128-1.915,1.746a.8.8,0,0,1-.964,0l-1.455-1.042a1,1,0,0,0-1.155-.006,24.7,24.7,0,0,1-9.93,4.123,1,1,0,0,0-.812.824l-.288,1.756a.782.782,0,0,1-.654.671,24.514,24.514,0,0,1-5.223,0,.786.786,0,0,1-.667-.673l-.288-1.756a1,1,0,0,0-.812-.824,24.7,24.7,0,0,1-9.93-4.123,1,1,0,0,0-1.155.006l-1.458,1.045a.79.79,0,0,1-.928.028c-.766-.645-1.386-1.209-1.949-1.774a25.813,25.813,0,0,1-1.746-1.915.8.8,0,0,1,0-.963L9.5,45.456a1,1,0,0,0,.01-1.156,24.7,24.7,0,0,1-4.123-9.93,1,1,0,0,0-.824-.812L2.811,33.27a.806.806,0,0,1-.671-.654,24.6,24.6,0,0,1,0-5.223.786.786,0,0,1,.673-.667l1.756-.288a1,1,0,0,0,.824-.812A24.7,24.7,0,0,1,9.514,15.7a1,1,0,0,0-.006-1.155l-1.045-1.46a.8.8,0,0,1-.019-.937,22.471,22.471,0,0,1,1.765-1.938,25.614,25.614,0,0,1,1.915-1.746.8.8,0,0,1,.964,0l1.456,1.042a1,1,0,0,0,1.155.006,24.687,24.687,0,0,1,9.929-4.123,1,1,0,0,0,.812-.824l.288-1.756a.782.782,0,0,1,.654-.671,24.514,24.514,0,0,1,5.223,0,.786.786,0,0,1,.667.673l.288,1.756a1,1,0,0,0,.812.824A24.687,24.687,0,0,1,44.3,9.514a1,1,0,0,0,1.155-.006l1.459-1.045a.794.794,0,0,1,.94-.018A25.975,25.975,0,0,1,49.8,10.219a22.447,22.447,0,0,1,1.744,1.916.8.8,0,0,1-.013.952l-1.042,1.456a1,1,0,0,0-.006,1.155,24.7,24.7,0,0,1,4.123,9.93,1,1,0,0,0,.824.812l1.756.288a.786.786,0,0,1,.672.661,24.6,24.6,0,0,1,0,5.214Z"/>
      </g>
    </g>
  </g>
</svg>
