<svg xmlns="http://www.w3.org/2000/svg" xmlns:xlink="http://www.w3.org/1999/xlink" width="108" height="108" viewBox="0 0 108 108">
  <defs>
    <filter id="Trazado_904820" x="0" y="0" width="108" height="108" filterUnits="userSpaceOnUse">
      <feOffset dy="3" input="SourceAlpha"/>
      <feGaussianBlur stdDeviation="3" result="blur"/>
      <feFlood flood-opacity="0.161"/>
      <feComposite operator="in" in2="blur"/>
      <feComposite in="SourceGraphic"/>
    </filter>
  </defs>
  <g id="Grupo_1173914" data-name="Grupo 1173914" transform="translate(-619.5 -2282)">
    <g id="Grupo_1173557" data-name="Grupo 1173557" transform="translate(628.5 2288)">
      <g id="Grupo_1171958" data-name="Grupo 1171958" transform="translate(0 0)">
        <g id="Grupo_1167341" data-name="Grupo 1167341">
          <g id="Grupo_1166792" data-name="Grupo 1166792">
            <g transform="matrix(1, 0, 0, 1, -9, -6)" filter="url(#Trazado_904820)">
              <g id="Trazado_904820-2" data-name="Trazado 904820" transform="translate(9 6)" fill="#f2f7e5">
                <path d="M 44.99999618530273 88.49999237060547 C 39.12687301635742 88.49999237060547 33.43022155761719 87.35006713867188 28.06829643249512 85.08216857910156 C 22.88852119445801 82.89130401611328 18.23629570007324 79.75457763671875 14.24084663391113 75.75914001464844 C 10.24540901184082 71.76369476318359 7.108683586120605 67.11146545410156 4.917821407318115 61.93169403076172 C 2.649921178817749 56.56976699829102 1.499996185302734 50.87311553955078 1.499996185302734 44.99999237060547 C 1.499996185302734 39.12686920166016 2.649921178817749 33.43021774291992 4.917821407318115 28.06829261779785 C 7.108683586120605 22.88851737976074 10.24540901184082 18.23630523681641 14.24084663391113 14.24085521697998 C 18.23629570007324 10.24540519714355 22.88852119445801 7.108692169189453 28.06829643249512 4.917829990386963 C 33.43022155761719 2.649929761886597 39.12687301635742 1.500004887580872 44.99999618530273 1.500004887580872 C 50.87311935424805 1.500004887580872 56.56977081298828 2.649929761886597 61.93169784545898 4.917829990386963 C 67.11147308349609 7.108692169189453 71.76369476318359 10.24540519714355 75.75914764404297 14.24085521697998 C 79.75458526611328 18.23630523681641 82.89131164550781 22.88851737976074 85.08216857910156 28.06829261779785 C 87.35007476806641 33.43021774291992 88.5 39.12686920166016 88.5 44.99999237060547 C 88.5 50.87311553955078 87.35007476806641 56.56976699829102 85.08216857910156 61.93169403076172 C 82.89131164550781 67.11146545410156 79.75458526611328 71.76369476318359 75.75914764404297 75.75914001464844 C 71.76369476318359 79.75457763671875 67.11147308349609 82.89130401611328 61.93169784545898 85.08216857910156 C 56.56977081298828 87.35006713867188 50.87311935424805 88.49999237060547 44.99999618530273 88.49999237060547 Z" stroke="none"/>
                <path d="M 44.99999618530273 2.999992370605469 C 39.32870864868164 2.999992370605469 33.82865142822266 4.11004638671875 28.65262603759766 6.299331665039062 C 23.65165710449219 8.414566040039062 19.15968322753906 11.44333648681641 15.301513671875 15.30150604248047 C 11.44333648681641 19.15967559814453 8.414566040039062 23.65164947509766 6.299339294433594 28.65262222290039 C 4.110054016113281 33.82864761352539 2.999992370605469 39.32870483398438 2.999992370605469 44.99999237060547 C 2.999992370605469 50.67127990722656 4.110054016113281 56.17132186889648 6.299339294433594 61.34736633300781 C 8.414566040039062 66.34833526611328 11.44333648681641 70.84029388427734 15.301513671875 74.69846343994141 C 19.15968322753906 78.55663299560547 23.65165710449219 81.58540344238281 28.65262603759766 83.70063781738281 C 33.82865142822266 85.88992309570312 39.32870864868164 86.99997711181641 44.99999618530273 86.99997711181641 C 50.67128372192383 86.99997711181641 56.17134094238281 85.88992309570312 61.34736633300781 83.70063781738281 C 66.34834289550781 81.58540344238281 70.84030914306641 78.55663299560547 74.69847869873047 74.69846343994141 C 78.55665588378906 70.84029388427734 81.58542633056641 66.34833526611328 83.70065307617188 61.34736633300781 C 85.88993835449219 56.17132186889648 87 50.67127990722656 87 44.99999237060547 C 87 39.32870483398438 85.88993835449219 33.82864761352539 83.70065307617188 28.65262222290039 C 81.58542633056641 23.65164947509766 78.55665588378906 19.15967559814453 74.69847869873047 15.30150604248047 C 70.84030914306641 11.44333648681641 66.34834289550781 8.414566040039062 61.34736633300781 6.299331665039062 C 56.17134094238281 4.11004638671875 50.67128372192383 2.999992370605469 44.99999618530273 2.999992370605469 M 44.99999618530273 -7.62939453125e-06 C 69.85281372070312 -7.62939453125e-06 90 20.14717864990234 90 44.99999237060547 C 90 69.85279083251953 69.85281372070312 89.99997711181641 44.99999618530273 89.99997711181641 C 20.14717864990234 89.99997711181641 -7.62939453125e-06 69.85279083251953 -7.62939453125e-06 44.99999237060547 C -7.62939453125e-06 20.14717864990234 20.14717864990234 -7.62939453125e-06 44.99999618530273 -7.62939453125e-06 Z" stroke="none" fill="#86b60c"/>
              </g>
            </g>
          </g>
        </g>
      </g>
    </g>
    <g id="inspire-idea_14781822" transform="translate(640.02 2298.987)">
      <g id="Grupo_1173645" data-name="Grupo 1173645" transform="translate(7.75 7.5)">
        <path id="Trazado_1029719" data-name="Trazado 1029719" d="M118.589,345.615v-3.769a2.292,2.292,0,0,0,1.863-2.251v-6.481h11.837v6.481a2.292,2.292,0,0,0,1.863,2.251l.322,3.246Z" transform="translate(-107.101 -299.365)" fill="#ca6e59"/>
        <path id="Trazado_1029720" data-name="Trazado 1029720" d="M60.631,17.7c0,7.458-4.013,16.316-14.23,13.386L37.876,27.21a3.366,3.366,0,0,1-.222-4.978l.86-.237.595-.592a3.557,3.557,0,0,1,.713-6.1.314.314,0,0,0,.184-.365,3.377,3.377,0,0,1-.094-.795,3.287,3.287,0,0,1,3.25-3.321,3.253,3.253,0,0,1,.632.063,1.543,1.543,0,0,1,.246-.249,1.313,1.313,0,0,0,.545-1.145,3.663,3.663,0,0,1,5.132-.362.309.309,0,0,0,.464-.074,3.216,3.216,0,0,1,5.5,0,.309.309,0,0,0,.465.074,3.651,3.651,0,0,1,.73-.485C60.631,9.779,60.631,15.01,60.631,17.7Z" transform="translate(-33.664 -7.5)" fill="#73788c"/>
        <path id="Trazado_1029721" data-name="Trazado 1029721" d="M153.446,31.074a3.341,3.341,0,0,1-1.216,2.589l-9.75,5.3h-8.716l-3.124-1.421a15.315,15.315,0,0,0,10.479-22.446,3.628,3.628,0,0,1,1.65-.395,3.678,3.678,0,0,1,2.752,1.243l.171.836.62.558a3.25,3.25,0,0,1,.631-.063,3.287,3.287,0,0,1,3.251,3.321,3.4,3.4,0,0,1-.171,1.062,3.553,3.553,0,0,1,.973,6.2A3.31,3.31,0,0,1,153.446,31.074Z" transform="translate(-117.903 -13.954)" fill="#5e6577"/>
        <path id="Trazado_1029722" data-name="Trazado 1029722" d="M68.429,200.317a5.675,5.675,0,0,0,4.323-5.511h0a2.256,2.256,0,0,0-2.256-2.257H68.429l-22.731,0H43.631a2.256,2.256,0,0,0-2.256,2.257h0A5.675,5.675,0,0,0,45.7,200.32Z" transform="translate(-37.89 -173.369)" fill="#ca6e59"/>
        <path id="Trazado_1029723" data-name="Trazado 1029723" d="M100.166,130.954a2.245,2.245,0,0,1,2.932.966,9.015,9.015,0,0,0,.752,1.142l.49.652c.207.605.669,3.432,1.31,3.432v8.609a7.182,7.182,0,0,1-2.453,5.406l-4.46,3.9a4.787,4.787,0,0,1-3.152,1.184H92.939a4.787,4.787,0,0,1-3.152-1.184l-4.46-3.9a7.181,7.181,0,0,1-2.453-5.406v-8.609a1.524,1.524,0,0,0,1.417-1.042l.982-3.832a2.245,2.245,0,0,1,3.092-1.3l.143.069,1.155.443a12.792,12.792,0,0,0,9.154,0l1.155-.443Z" transform="translate(-75.088 -117.966)" fill="#d78878"/>
        <path id="Trazado_1029724" data-name="Trazado 1029724" d="M170.7,300.147c-2.459,0-2.568-2.269-2.527-3.093a.31.31,0,0,1,.311-.294H172.9a.31.31,0,0,1,.311.3C173.236,297.891,173.073,300.147,170.7,300.147Z" transform="translate(-151.536 -266.779)" fill="#eaf6ff"/>
        <path id="Trazado_1029725" data-name="Trazado 1029725" d="M14.567,439.822l-6.506-.015a.311.311,0,0,1-.311-.311V433.72a.311.311,0,0,1,.167-.277,10.054,10.054,0,0,1,2.71-.933l.749-.15,6.611,2.452Z" transform="translate(-7.75 -388.324)" fill="#9be69d"/>
        <path id="Trazado_1029726" data-name="Trazado 1029726" d="M298.079,435.282l-2.51,4.1-8.663.006-3.135-5.489c.034-.035,6.337-2.014,6.337-2.014l.428.082a10.057,10.057,0,0,1,2.833,1Z" transform="translate(-255.163 -387.894)" fill="#9be69d"/>
        <path id="Trazado_1029727" data-name="Trazado 1029727" d="M122.414,418.39l.947,4.756-3.422,4.142-10.39.012-3.941-4.344,1.47-4.542A10.643,10.643,0,0,0,122.414,418.39Z" transform="translate(-95.464 -375.802)" fill="#eaf6ff"/>
        <path id="Trazado_1029728" data-name="Trazado 1029728" d="M49.357,409.134l-2.83-10.177a1.139,1.139,0,0,0-1.429-.784l-6.292,1.917a.493.493,0,0,0-.308.672l1.327,3.005a.311.311,0,0,0,.215.178l3.234.742a.311.311,0,0,1,.185.481L41.7,407.684a.311.311,0,0,0-.038.283l.423,1.168Z" transform="translate(-35.273 -357.636)" fill="#bbf49b"/>
        <path id="Trazado_1029729" data-name="Trazado 1029729" d="M243.879,408.917l2.834-10.189a1.139,1.139,0,0,1,1.429-.784l6.292,1.917a.494.494,0,0,1,.308.673l-1.327,3.005a.311.311,0,0,1-.215.178l-3.234.742a.311.311,0,0,0-.186.481l1.755,2.516a.311.311,0,0,1,.038.283l-.424,1.183Z" transform="translate(-219.405 -357.431)" fill="#bbf49b"/>
        <g id="Grupo_1173642" data-name="Grupo 1173642" transform="translate(38.369 28.117)">
          <path id="Trazado_1029730" data-name="Trazado 1029730" d="M390.249,387.922v3.986a12.142,12.142,0,0,1-.273,2.416,8.488,8.488,0,0,1-.982,1.766c-.628,1.057-.353,2.146-.349,3.375l-.8.509h-7.856v-1.706a4.287,4.287,0,0,0-1.128-2.9,3.548,3.548,0,0,1-.932-2.394V391.26a2.1,2.1,0,0,1,.9-1.723Z" transform="translate(-377.933 -376.609)" fill="#d78878"/>
          <g id="Grupo_1173641" data-name="Grupo 1173641" transform="translate(9.587 6.693)">
            <path id="Trazado_1029731" data-name="Trazado 1029731" d="M473.154,344.019v3.952a.829.829,0,0,1-.333.742c-.249.249-1.123-.132-1.5-.128l-.676-.722-.219-2.569.717-.554a1.39,1.39,0,0,1,1.354-1.388C472.952,343.52,473.154,343.754,473.154,344.019Z" transform="translate(-470.425 -343.35)" fill="#d78878"/>
            <path id="Trazado_1029732" data-name="Trazado 1029732" d="M481.659,344.729v3.123a1.391,1.391,0,0,1-2.516.817l-.089-.094a1.391,1.391,0,0,0,1.379-1.391v-3.12a1.382,1.382,0,0,0-.2-.722h.037A1.39,1.39,0,0,1,481.659,344.729Z" transform="translate(-478.16 -343.34)" fill="#ca6e59"/>
          </g>
          <path id="Trazado_1029733" data-name="Trazado 1029733" d="M476.728,386.87v4.157a6.78,6.78,0,0,1-.954,3.467,6.781,6.781,0,0,0-.953,3.493l0,.733a.311.311,0,0,1-.311.312h-.956l0-1.045a6.791,6.791,0,0,1,.954-3.493,6.779,6.779,0,0,0,.954-3.467v-3.978Z" transform="translate(-463.643 -375.666)" fill="#ca6e59"/>
          <path id="Trazado_1029734" data-name="Trazado 1029734" d="M391.44,281.365v11.227c0,.806-1.319,1.466-2.126,1.466l.685-1.831-.948-.9v-9.96a1.467,1.467,0,0,1,.864-1.335A1.356,1.356,0,0,1,391.44,281.365Z" transform="translate(-387.899 -279.899)" fill="#d78878"/>
          <path id="Trazado_1029735" data-name="Trazado 1029735" d="M417.711,332.186v3.684c0,.594-.964,1.108-1.474,1.337a1.469,1.469,0,0,1-.868-1.337l-.358-.079v-3.478l.358-.127a1.469,1.469,0,0,1,.868-1.336C417.466,331.007,417.711,331.593,417.711,332.186Z" transform="translate(-411.168 -325.452)" fill="#d78878"/>
          <path id="Trazado_1029736" data-name="Trazado 1029736" d="M447.313,332.186v3.906c0,.593-1.072,1.107-1.582,1.336a1.468,1.468,0,0,1-.867-1.336l-.349-.223v-3.525l.349-.158a1.469,1.469,0,0,1,.867-1.336C447.12,331.039,447.313,331.593,447.313,332.186Z" transform="translate(-437.613 -325.452)" fill="#d78878"/>
          <path id="Trazado_1029737" data-name="Trazado 1029737" d="M399.578,280.236v10.63a.663.663,0,0,1-1.32,0v-10.63a1.469,1.469,0,0,0-.863-1.335,1.444,1.444,0,0,1,.6-.131h.117A1.469,1.469,0,0,1,399.578,280.236Z" transform="translate(-395.377 -278.77)" fill="#ca6e59"/>
          <path id="Trazado_1029738" data-name="Trazado 1029738" d="M429.016,331.066v3.684a1.47,1.47,0,0,1-1.466,1.467h-.118a1.431,1.431,0,0,1-.6-.13,1.469,1.469,0,0,0,.868-1.337v-3.684a1.469,1.469,0,0,0-.868-1.336,1.431,1.431,0,0,1,.6-.13h.118A1.47,1.47,0,0,1,429.016,331.066Z" transform="translate(-421.765 -324.332)" fill="#ca6e59"/>
          <path id="Trazado_1029739" data-name="Trazado 1029739" d="M458.436,331.066v3.907a1.47,1.47,0,0,1-1.467,1.466h-.117a1.427,1.427,0,0,1-.6-.13,1.468,1.468,0,0,0,.867-1.336v-3.907a1.469,1.469,0,0,0-.867-1.336,1.428,1.428,0,0,1,.6-.13h.117A1.471,1.471,0,0,1,458.436,331.066Z" transform="translate(-448.136 -324.332)" fill="#ca6e59"/>
          <path id="Trazado_1029740" data-name="Trazado 1029740" d="M399.342,367.084a3.147,3.147,0,0,1-.067.645c-.272,1.3-2.212,1.465-3.586,1.608a4.385,4.385,0,0,0-2.6-.354c-.822.254-1.338,1.574-1.35,1.565l-2.691-1.408v-1.325l2.6-1.868a2.911,2.911,0,0,1,1.663-.541l4.313-.041A1.72,1.72,0,0,1,399.342,367.084Z" transform="translate(-387.898 -356.391)" fill="#ca6e59"/>
          <path id="Trazado_1029741" data-name="Trazado 1029741" d="M390.546,380.986l1.227-1.651a.311.311,0,0,1,.212-.123l2.652-.321a2.1,2.1,0,0,0,1.451-2.019.708.708,0,0,0-.713-.693h-3.9a2.633,2.633,0,0,0-1.511.476l-3.368,2.357Z" transform="translate(-385.697 -366.083)" fill="#d78878"/>
        </g>
        <g id="Grupo_1173644" data-name="Grupo 1173644" transform="translate(28.479 1.465)">
          <path id="Trazado_1029742" data-name="Trazado 1029742" d="M303.306,29.939A12.074,12.074,0,0,1,291.318,42.2c-2.187,0-6.989-1.6-7.613-3.348l.118-.477a.308.308,0,0,0-.027-.217,11.318,11.318,0,0,1,17.525-13.7A10.743,10.743,0,0,1,303.306,29.939Z" transform="translate(-282.517 -21.635)" fill="#eaf6ff"/>
          <path id="Trazado_1029743" data-name="Trazado 1029743" d="M306.121,59.751a11.335,11.335,0,0,1-16.988,7.238.309.309,0,0,0-.22-.04l-4.667.889a.311.311,0,0,1-.361-.38l1.038-4.2a12.205,12.205,0,0,0,17.616-14.395A11.29,11.29,0,0,1,306.121,59.751Z" transform="translate(-283.735 -46.043)" fill="#d8ecfe"/>
          <g id="Grupo_1173643" data-name="Grupo 1173643" transform="translate(5.477 2.819)">
            <path id="Trazado_1029744" data-name="Trazado 1029744" d="M345.7,55.336c0,3.032-3.185,5.966-6.28,5.966-.469,0-.977.319-1.8-.892a6.594,6.594,0,0,0-.811-1.426,5.618,5.618,0,0,1,3.17-9.3C344.239,49.682,345.7,52.638,345.7,55.336Z" transform="translate(-335.361 -49.594)" fill="#ffe177"/>
            <path id="Trazado_1029745" data-name="Trazado 1029745" d="M364.709,54.455a5.6,5.6,0,0,1-1.43,3.743,6.783,6.783,0,0,0-1.36,4.044v.351l-5.656.018V62.3a9.494,9.494,0,0,0-.7-3.09,5.688,5.688,0,0,0,1.361.164c3.095,0,5.776-2.015,5.776-5.048a5.523,5.523,0,0,0-4.606-5.4,5.622,5.622,0,0,1,6.61,5.53Z" transform="translate(-353.474 -48.837)" fill="#ffd15b"/>
            <path id="Trazado_1029746" data-name="Trazado 1029746" d="M366.764,179.51l.879,1.717c0,.932-.558,1.717-2.565,1.717h-.44a1.687,1.687,0,0,1-1.687-1.687V179.51h3.813Z" transform="translate(-360.091 -165.966)" fill="#5e6577"/>
            <path id="Trazado_1029747" data-name="Trazado 1029747" d="M386.862,179.511v1.747a1.687,1.687,0,0,1-1.687,1.687h-1.7a1.686,1.686,0,0,0,1.686-1.687v-1.747Z" transform="translate(-378.487 -165.967)" fill="#4d5263"/>
            <path id="Trazado_1029748" data-name="Trazado 1029748" d="M354.159,160.567c0,.373.226.8,0,1.042a6.792,6.792,0,0,1-2.254.535h-4.148a1.3,1.3,0,0,1-1.252-1.352,1.409,1.409,0,0,1,.366-.957,1.207,1.207,0,0,1,.886-.4H351.9C352.6,159.439,354.159,159.82,354.159,160.567Z" transform="translate(-345.349 -147.975)" fill="#73788c"/>
            <path id="Trazado_1029749" data-name="Trazado 1029749" d="M402.135,160.792a1.407,1.407,0,0,1-.366.956,1.207,1.207,0,0,1-.886.4h-2.272a1.205,1.205,0,0,0,.886-.4,1.407,1.407,0,0,0,.366-.956,1.305,1.305,0,0,0-1.252-1.353h2.272A1.305,1.305,0,0,1,402.135,160.792Z" transform="translate(-392.055 -147.975)" fill="#5e6577"/>
          </g>
        </g>
      </g>
      <g id="Grupo_1173654" data-name="Grupo 1173654" transform="translate(7.75 7.5)">
        <g id="Grupo_1173646" data-name="Grupo 1173646" transform="translate(3.485 19.183)">
          <path id="Trazado_1029750" data-name="Trazado 1029750" d="M45.647,200.332a5.675,5.675,0,0,1-4.271-5.5h0a2.256,2.256,0,0,1,2.256-2.257H45.7" transform="translate(-41.376 -192.577)" fill="none" stroke="#000" stroke-linecap="round" stroke-linejoin="round" stroke-miterlimit="10" stroke-width="1.3"/>
          <path id="Trazado_1029751" data-name="Trazado 1029751" d="M307.007,232.041a5.684,5.684,0,0,1-3.95,3.657" transform="translate(-275.934 -227.951)" fill="none" stroke="#000" stroke-linecap="round" stroke-linejoin="round" stroke-miterlimit="10" stroke-width="1.3"/>
        </g>
        <path id="Trazado_1029752" data-name="Trazado 1029752" d="M209.872,132.207a12.789,12.789,0,0,0,2.781-.72l1.155-.443.192-.09a2.245,2.245,0,0,1,3.079,1.3" transform="translate(-188.922 -117.966)" fill="none" stroke="#000" stroke-linecap="round" stroke-linejoin="round" stroke-miterlimit="10" stroke-width="1.3"/>
        <path id="Trazado_1029753" data-name="Trazado 1029753" d="M105.649,141.461v4.426a7.182,7.182,0,0,1-2.453,5.406l-4.46,3.9a4.787,4.787,0,0,1-3.152,1.184H92.939a4.787,4.787,0,0,1-3.152-1.184l-4.46-3.9a7.181,7.181,0,0,1-2.453-5.406v-8.609a1.524,1.524,0,0,0,1.417-1.042l.982-3.832a2.245,2.245,0,0,1,3.092-1.3l.143.069,1.155.443a12.786,12.786,0,0,0,2.763.718" transform="translate(-75.088 -118.098)" fill="none" stroke="#000" stroke-linecap="round" stroke-linejoin="round" stroke-miterlimit="10" stroke-width="1.3"/>
        <g id="Grupo_1173648" data-name="Grupo 1173648" transform="translate(12.595 18.198)">
          <g id="Grupo_1173647" data-name="Grupo 1173647">
            <path id="Trazado_1029754" data-name="Trazado 1029754" d="M184.268,262.089a2.4,2.4,0,0,1-2.179,0" transform="translate(-176.614 -253.899)" fill="none" stroke="#000" stroke-linecap="round" stroke-linejoin="round" stroke-miterlimit="10" stroke-width="1.3"/>
            <path id="Trazado_1029755" data-name="Trazado 1029755" d="M133.251,183.584a4.145,4.145,0,0,0-3.985,0" transform="translate(-129.266 -183.073)" fill="none" stroke="#000" stroke-linecap="round" stroke-linejoin="round" stroke-miterlimit="10" stroke-width="1.3"/>
            <path id="Trazado_1029756" data-name="Trazado 1029756" d="M221.471,183.584a4.145,4.145,0,0,0-3.985,0" transform="translate(-208.342 -183.073)" fill="none" stroke="#000" stroke-linecap="round" stroke-linejoin="round" stroke-miterlimit="10" stroke-width="1.3"/>
            <line id="Línea_797" data-name="Línea 797" y1="1.766" transform="translate(11.137 2.993)" fill="none" stroke="#000" stroke-linecap="round" stroke-linejoin="round" stroke-miterlimit="10" stroke-width="1.3"/>
            <line id="Línea_798" data-name="Línea 798" y1="1.766" transform="translate(1.993 2.993)" fill="none" stroke="#000" stroke-linecap="round" stroke-linejoin="round" stroke-miterlimit="10" stroke-width="1.3"/>
          </g>
          <path id="Trazado_1029757" data-name="Trazado 1029757" d="M170.7,300.147c-3,0-2.5-3.387-2.5-3.387h5S173.609,300.147,170.7,300.147Z" transform="translate(-164.131 -284.977)" fill="none" stroke="#000" stroke-linecap="round" stroke-linejoin="round" stroke-miterlimit="10" stroke-width="1.3"/>
        </g>
        <path id="Trazado_1029758" data-name="Trazado 1029758" d="M65.179,11.983a3.2,3.2,0,0,0-3.1-1.1,3.731,3.731,0,0,0-3.542-2.637,3.671,3.671,0,0,0-2.661,1.146,3.223,3.223,0,0,0-5.871,0A3.671,3.671,0,0,0,47.34,8.246,3.73,3.73,0,0,0,43.8,10.884a3.2,3.2,0,0,0-.632-.063,3.286,3.286,0,0,0-3.251,3.32,3.379,3.379,0,0,0,.171,1.062,3.554,3.554,0,0,0-.973,6.2,3.349,3.349,0,0,0-1.233,5.807" transform="translate(-33.667 -7.5)" fill="none" stroke="#000" stroke-linecap="round" stroke-linejoin="round" stroke-miterlimit="10" stroke-width="1.3"/>
        <path id="Trazado_1029759" data-name="Trazado 1029759" d="M61.794,142.236a3.254,3.254,0,0,1-1.467-.595" transform="translate(-54.877 -127.738)" fill="none" stroke="#000" stroke-linecap="round" stroke-linejoin="round" stroke-miterlimit="10" stroke-width="1.3"/>
        <path id="Trazado_1029760" data-name="Trazado 1029760" d="M105.6,40.2a3.085,3.085,0,0,1,1.955,1.3" transform="translate(-95.458 -36.81)" fill="none" stroke="#000" stroke-linecap="round" stroke-linejoin="round" stroke-miterlimit="10" stroke-width="1.3"/>
        <path id="Trazado_1029761" data-name="Trazado 1029761" d="M268.117,40.183a3.089,3.089,0,0,0-1.57,1.2" transform="translate(-239.722 -36.795)" fill="none" stroke="#000" stroke-linecap="round" stroke-linejoin="round" stroke-miterlimit="10" stroke-width="1.3"/>
        <path id="Trazado_1029762" data-name="Trazado 1029762" d="M302.464,33.293q-.052.328-.124.657a11.668,11.668,0,0,1-17.594,7.386l-5.417,1.032,1.337-5.414A11.638,11.638,0,0,1,288.995,20" transform="translate(-251.149 -18.706)" fill="none" stroke="#000" stroke-linecap="round" stroke-linejoin="round" stroke-miterlimit="10" stroke-width="1.3"/>
        <path id="Trazado_1029763" data-name="Trazado 1029763" d="M407.545,19.544q.418.06.838.15a11.652,11.652,0,0,1,9.042,9.561" transform="translate(-366.107 -18.296)" fill="none" stroke="#000" stroke-linecap="round" stroke-linejoin="round" stroke-miterlimit="10" stroke-width="1.3"/>
        <g id="Grupo_1173649" data-name="Grupo 1173649" transform="translate(33.956 4.287)">
          <path id="Trazado_1029764" data-name="Trazado 1029764" d="M337.8,60.133a6.625,6.625,0,0,0-.988-1.9,5.612,5.612,0,1,1,8.342-.028,6.922,6.922,0,0,0-1.005,1.908" transform="translate(-335.355 -48.863)" fill="none" stroke="#000" stroke-linecap="round" stroke-linejoin="round" stroke-miterlimit="10" stroke-width="1.3"/>
          <line id="Línea_799" data-name="Línea 799" y1="4.126" transform="translate(5.611 7.122)" fill="none" stroke="#000" stroke-linecap="round" stroke-linejoin="round" stroke-miterlimit="10" stroke-width="1.3"/>
          <path id="Trazado_1029765" data-name="Trazado 1029765" d="M368.427,186.134v.639a2.073,2.073,0,0,1-2.073,2.073h-1.363a2.073,2.073,0,0,1-2.073-2.073v-.639" transform="translate(-360.061 -171.906)" fill="none" stroke="#000" stroke-linecap="round" stroke-linejoin="round" stroke-miterlimit="10" stroke-width="1.3"/>
          <path id="Trazado_1029766" data-name="Trazado 1029766" d="M355.87,160.516h-5.585a1.419,1.419,0,0,1-1.419-1.419v-.084a1.419,1.419,0,0,1,1.419-1.419h5.585a1.419,1.419,0,0,1,1.419,1.419v.084A1.419,1.419,0,0,1,355.87,160.516Z" transform="translate(-347.467 -146.325)" fill="none" stroke="#000" stroke-linecap="round" stroke-linejoin="round" stroke-miterlimit="10" stroke-width="1.3"/>
          <line id="Línea_800" data-name="Línea 800" x2="3.592" transform="translate(3.89 7.113)" fill="none" stroke="#000" stroke-linecap="round" stroke-linejoin="round" stroke-miterlimit="10" stroke-width="1.3"/>
        </g>
        <path id="Trazado_1029767" data-name="Trazado 1029767" d="M346.53,432.2l.26.05a10.036,10.036,0,0,1,2.832,1" transform="translate(-311.416 -388.176)" fill="none" stroke="#000" stroke-linecap="round" stroke-linejoin="round" stroke-miterlimit="10" stroke-width="1.3"/>
        <path id="Trazado_1029768" data-name="Trazado 1029768" d="M250.768,358.351v3.865a2.292,2.292,0,0,0,1.863,2.251" transform="translate(-225.58 -321.986)" fill="none" stroke="#000" stroke-linecap="round" stroke-linejoin="round" stroke-miterlimit="10" stroke-width="1.3"/>
        <path id="Trazado_1029769" data-name="Trazado 1029769" d="M118.589,417.362h0a10.645,10.645,0,0,0,15.563,0h0" transform="translate(-107.101 -374.88)" fill="none" stroke="#000" stroke-linecap="round" stroke-linejoin="round" stroke-miterlimit="10" stroke-width="1.3"/>
        <path id="Trazado_1029770" data-name="Trazado 1029770" d="M11.035,366.09l-.408.082a10.038,10.038,0,0,0-2.878,1.021M21.1,358.351v3.865a2.292,2.292,0,0,1-1.863,2.251l-.119.023" transform="translate(-7.75 -321.986)" fill="none" stroke="#000" stroke-linecap="round" stroke-linejoin="round" stroke-miterlimit="10" stroke-width="1.3"/>
        <g id="Grupo_1173650" data-name="Grupo 1173650" transform="translate(2.897 40.488)">
          <path id="Trazado_1029771" data-name="Trazado 1029771" d="M45.4,404.806l-1.626-5.848a1.139,1.139,0,0,0-1.429-.784l-6.292,1.917a.493.493,0,0,0-.308.672l1.39,3.148,3.835.88-2.11,3.024.478,1.334" transform="translate(-35.703 -398.124)" fill="none" stroke="#000" stroke-linecap="round" stroke-linejoin="round" stroke-miterlimit="10" stroke-width="1.3"/>
          <line id="Línea_801" data-name="Línea 801" x1="0.236" y1="0.849" transform="translate(10.67 10.177)" fill="none" stroke="#000" stroke-linecap="round" stroke-linejoin="round" stroke-miterlimit="10" stroke-width="1.3"/>
          <path id="Trazado_1029772" data-name="Trazado 1029772" d="M244.868,409.15l2.835-10.192a1.139,1.139,0,0,1,1.429-.784l6.292,1.917a.494.494,0,0,1,.308.673l-1.39,3.148-3.835.879,2.111,3.025-.478,1.334" transform="translate(-223.188 -398.125)" fill="none" stroke="#000" stroke-linecap="round" stroke-linejoin="round" stroke-miterlimit="10" stroke-width="1.3"/>
        </g>
        <g id="Grupo_1173653" data-name="Grupo 1173653" transform="translate(38.376 28.146)">
          <g id="Grupo_1173651" data-name="Grupo 1173651" transform="translate(10.304 6.692)">
            <path id="Trazado_1029773" data-name="Trazado 1029773" d="M480.194,345.015a1.389,1.389,0,0,0-1.389-1.389h0a1.391,1.391,0,0,0-1.391,1.391v3.12a1.391,1.391,0,0,0,1.391,1.391h0a1.391,1.391,0,0,0,1.391-1.391Z" transform="translate(-477.412 -343.626)" fill="none" stroke="#000" stroke-linecap="round" stroke-linejoin="round" stroke-miterlimit="10" stroke-width="1.3"/>
            <path id="Trazado_1029774" data-name="Trazado 1029774" d="M490.831,400.563" transform="translate(-489.44 -394.662)" fill="none" stroke="#000" stroke-linecap="round" stroke-linejoin="round" stroke-miterlimit="10" stroke-width="1.3"/>
          </g>
          <g id="Grupo_1173652" data-name="Grupo 1173652" transform="translate(11.179 11.243)">
            <path id="Trazado_1029775" data-name="Trazado 1029775" d="M487.764,387.53v4.157a6.751,6.751,0,0,1-.953,3.429h0a6.785,6.785,0,0,0-.953,3.493l0,1.045" transform="translate(-485.857 -387.53)" fill="none" stroke="#000" stroke-linecap="round" stroke-linejoin="round" stroke-miterlimit="10" stroke-width="1.3"/>
          </g>
          <path id="Trazado_1029776" data-name="Trazado 1029776" d="M433.859,414.75a5.686,5.686,0,0,1,1.214,5.2l-.043.166" transform="translate(-428.069 -400.686)" fill="none" stroke="#000" stroke-linecap="round" stroke-linejoin="round" stroke-miterlimit="10" stroke-width="1.3"/>
          <path id="Trazado_1029777" data-name="Trazado 1029777" d="M389.115,291.742v-11.22a1.47,1.47,0,0,1,1.466-1.466h.118a1.47,1.47,0,0,1,1.466,1.466v9.116" transform="translate(-387.963 -279.057)" fill="none" stroke="#000" stroke-linecap="round" stroke-linejoin="round" stroke-miterlimit="10" stroke-width="1.3"/>
          <path id="Trazado_1029778" data-name="Trazado 1029778" d="M418.532,331.359A1.47,1.47,0,0,1,420,329.893h.118a1.47,1.47,0,0,1,1.466,1.466V334.7" transform="translate(-414.331 -324.624)" fill="none" stroke="#000" stroke-linecap="round" stroke-linejoin="round" stroke-miterlimit="10" stroke-width="1.3"/>
          <path id="Trazado_1029779" data-name="Trazado 1029779" d="M447.947,334.659v-3.3a1.47,1.47,0,0,1,1.466-1.466h.118A1.47,1.47,0,0,1,451,331.359v1.4" transform="translate(-440.697 -324.624)" fill="none" stroke="#000" stroke-linecap="round" stroke-linejoin="round" stroke-miterlimit="10" stroke-width="1.3"/>
          <path id="Trazado_1029780" data-name="Trazado 1029780" d="M382.848,381.275l1.307-1.758,2.619-.338a2.1,2.1,0,0,0,1.451-2,.712.712,0,0,0-.713-.712h-3.736a2.633,2.633,0,0,0-1.511.476L378.9,379.3a2.1,2.1,0,0,0-.9,1.723v1.717a3.544,3.544,0,0,0,.932,2.394,4.287,4.287,0,0,1,1.128,2.9v1.706" transform="translate(-377.999 -366.372)" fill="none" stroke="#000" stroke-linecap="round" stroke-linejoin="round" stroke-miterlimit="10" stroke-width="1.3"/>
        </g>
      </g>
    </g>
  </g>
</svg>
