<svg xmlns="http://www.w3.org/2000/svg" width="96.342" height="43.823" viewBox="0 0 96.342 43.823">
  <g id="Grupo_1173920" data-name="Grupo 1173920" transform="translate(-436.168 -846.418)">
    <path id="Trazado_1031061" data-name="Trazado 1031061" d="M8.78,0,8.209-3.524H2.865L.826,0H-.914L6.592-12.6H8.139L10.336,0ZM7.163-10.222q-.009-.088-.013-.2t0-.229q0-.123,0-.229t0-.193H7.11q-.026.079-.07.189t-.1.229q-.053.119-.11.233l-.1.2L3.621-4.86H7.972Zm9.5,12.807a3.987,3.987,0,0,1-.082.787,4.073,4.073,0,0,1-.251.8,3.951,3.951,0,0,1-.423.748,3.035,3.035,0,0,1-.6.623,2.769,2.769,0,0,1-.779.426,2.837,2.837,0,0,1-.964.156,3.171,3.171,0,0,1-.6-.056,3.671,3.671,0,0,1-.515-.133l-.523,2.5h-.851l1.282-6.07q.036-.164.067-.395t.054-.464q.023-.233.038-.438T12.539.75H13.4q0,.087-.013.236t-.033.31q-.021.161-.041.313t-.036.244H13.3a2.77,2.77,0,0,1,.82-.925,1.754,1.754,0,0,1,.995-.305,1.625,1.625,0,0,1,.646.123,1.279,1.279,0,0,1,.49.369,1.708,1.708,0,0,1,.31.615A3.068,3.068,0,0,1,16.666,2.586Zm-.861.036a2.536,2.536,0,0,0-.049-.513,1.137,1.137,0,0,0-.161-.405.817.817,0,0,0-.29-.267.887.887,0,0,0-.433-.1,1.155,1.155,0,0,0-.5.11,1.721,1.721,0,0,0-.433.295,2.416,2.416,0,0,0-.364.428,4.255,4.255,0,0,0-.292.5,4.437,4.437,0,0,0-.218.525,3.961,3.961,0,0,0-.136.495l-.323,1.523a1.439,1.439,0,0,0,.22.074q.128.033.267.059t.282.041a2.513,2.513,0,0,0,.267.015,1.771,1.771,0,0,0,.654-.118,1.9,1.9,0,0,0,.538-.32,2.261,2.261,0,0,0,.42-.477,3.164,3.164,0,0,0,.305-.584,3.44,3.44,0,0,0,.185-.641A3.541,3.541,0,0,0,15.8,2.622Z" transform="translate(437.083 870.022)" fill="#212429"/>
    <path id="Trazado_1031062" data-name="Trazado 1031062" d="M10.3-6.539H2.039V-7.7H10.3Zm0,3.744H2.039v-1.16H10.3Z" transform="translate(461.083 874.022)" fill="#212429"/>
    <path id="Trazado_1031063" data-name="Trazado 1031063" d="M4.913,14.605,6.987,19,5.4,19.018,4.263,16.2q-.053-.141-.145-.378l-.171-.439H3.9q-.062.088-.145.2l-.163.215q-.079.105-.154.2t-.127.163L.958,19H-.756L3.3,14.518,1.274,10H2.865l1.081,2.865q.079.211.158.457t.123.387h.035q.053-.062.123-.154l.149-.2q.079-.105.163-.211t.163-.193L7.3,10H8.947Zm.995-6.319.141-.949h4.465l-.141.949ZM19.1,14.553H14.295l.255-1.134h4.808ZM37.387,19H35.919l1.793-8.455q.105-.5.272-1.138t.387-1.367h-.035q-.105.211-.264.47t-.33.5q-.171.242-.312.435t-.2.29L32.72,15.713H32L30.031,9.754a2.182,2.182,0,0,0-.083-.3q-.066-.2-.127-.439t-.11-.5a2.557,2.557,0,0,1-.048-.475h-.035q-.053.378-.171,1.02t-.294,1.5L27.368,19H25.944L28.616,6.4h1.758l2,5.994a7.193,7.193,0,0,1,.207.738,4.228,4.228,0,0,1,.092.6h.053q.141-.264.343-.615a6.51,6.51,0,0,1,.519-.756L38.108,6.4h1.951Zm7.849,2.693a4.37,4.37,0,0,1-.2,1.323,3.382,3.382,0,0,1-.569,1.095,2.749,2.749,0,0,1-.9.743,2.568,2.568,0,0,1-1.2.274,2.185,2.185,0,0,1-.813-.144,1.69,1.69,0,0,1-.615-.413,1.828,1.828,0,0,1-.39-.651,2.567,2.567,0,0,1-.136-.864,4.278,4.278,0,0,1,.208-1.351,3.411,3.411,0,0,1,.584-1.092,2.73,2.73,0,0,1,.9-.728,2.55,2.55,0,0,1,1.161-.264,2.171,2.171,0,0,1,.807.144,1.715,1.715,0,0,1,.618.413,1.869,1.869,0,0,1,.4.651A2.482,2.482,0,0,1,45.236,21.693Zm-.861.041a1.96,1.96,0,0,0-.082-.592,1.26,1.26,0,0,0-.231-.436,1,1,0,0,0-.359-.272,1.134,1.134,0,0,0-.472-.095,1.491,1.491,0,0,0-.815.231,2.063,2.063,0,0,0-.615.608,3.012,3.012,0,0,0-.387.856,3.583,3.583,0,0,0-.136.982,1.961,1.961,0,0,0,.079.577,1.31,1.31,0,0,0,.226.441.974.974,0,0,0,.359.279,1.139,1.139,0,0,0,.479.1,1.512,1.512,0,0,0,.82-.228,2.034,2.034,0,0,0,.615-.6,2.957,2.957,0,0,0,.384-.859A3.675,3.675,0,0,0,44.374,21.734Z" transform="translate(482.906 840.022)" fill="#212429"/>
    <path id="Trazado_1031064" data-name="Trazado 1031064" d="M6.372-7.418a3.746,3.746,0,0,0-.888-.413A3.2,3.2,0,0,0,4.5-7.989a1.941,1.941,0,0,0-1.279.378,1.24,1.24,0,0,0-.453,1,1.255,1.255,0,0,0,.083.466,1.407,1.407,0,0,0,.246.4,2.234,2.234,0,0,0,.413.365q.25.176.576.378A4.531,4.531,0,0,1,5.506-3.828,2.262,2.262,0,0,1,5.941-2.47a2.74,2.74,0,0,1-.189,1,2.247,2.247,0,0,1-.6.861,3.088,3.088,0,0,1-1.068.6,4.873,4.873,0,0,1-1.6.229,5.285,5.285,0,0,1-.58-.035A6.145,6.145,0,0,1,1.27.079,5.559,5.559,0,0,1,.655-.092,2.708,2.708,0,0,1,.141-.325L.431-1.7a3.028,3.028,0,0,0,.435.246,4.5,4.5,0,0,0,.563.22,5.257,5.257,0,0,0,.633.158,3.562,3.562,0,0,0,.655.062A2.063,2.063,0,0,0,4.03-1.362a1.185,1.185,0,0,0,.435-.976A1.3,1.3,0,0,0,4.4-2.76a1.184,1.184,0,0,0-.233-.387,2.585,2.585,0,0,0-.439-.391q-.272-.2-.686-.444A4.44,4.44,0,0,1,1.718-5.12a2.241,2.241,0,0,1-.426-1.34,2.736,2.736,0,0,1,.2-1.042,2.52,2.52,0,0,1,.6-.879A2.929,2.929,0,0,1,3.1-8.991,4,4,0,0,1,4.518-9.22a5.645,5.645,0,0,1,1.2.123,4.26,4.26,0,0,1,.962.316Z" transform="translate(502.906 890.022)" fill="#212429"/>
    <path id="Trazado_1029840" data-name="Trazado 1029840" d="M6785,2972.5h54.412" transform="translate(-6306.901 -2103.102)" fill="none" stroke="#212429" stroke-width="1"/>
  </g>
</svg>
