<svg xmlns="http://www.w3.org/2000/svg" xmlns:xlink="http://www.w3.org/1999/xlink" width="108" height="108" viewBox="0 0 108 108">
  <defs>
    <filter id="Trazado_982547" x="0" y="0" width="108" height="108" filterUnits="userSpaceOnUse">
      <feOffset dy="3" input="SourceAlpha"/>
      <feGaussianBlur stdDeviation="3" result="blur"/>
      <feFlood flood-opacity="0.161"/>
      <feComposite operator="in" in2="blur"/>
      <feComposite in="SourceGraphic"/>
    </filter>
  </defs>
  <g id="Grupo_1173894" data-name="Grupo 1173894" transform="translate(-274 -501.113)">
    <g id="Grupo_1173714" data-name="Grupo 1173714" transform="translate(0 -5667.053)">
      <g id="Grupo_1173454" data-name="Grupo 1173454" transform="translate(283 6174.167)">
        <g id="Grupo_1172017" data-name="Grupo 1172017" transform="translate(0 0)">
          <g id="Grupo_1167337" data-name="Grupo 1167337" transform="translate(0)">
            <g id="Grupo_1166720" data-name="Grupo 1166720">
              <g id="Grupo_1164305" data-name="Grupo 1164305">
                <g id="Grupo_1163948" data-name="Grupo 1163948">
                  <g id="Grupo_1158168" data-name="Grupo 1158168">
                    <g id="Grupo_1152576" data-name="Grupo 1152576">
                      <g id="Grupo_1148633" data-name="Grupo 1148633">
                        <g id="Grupo_1148525" data-name="Grupo 1148525">
                          <g transform="matrix(1, 0, 0, 1, -9, -6)" filter="url(#Trazado_982547)">
                            <g id="Trazado_982547-2" data-name="Trazado 982547" transform="translate(9 6)" fill="#e9f9fd">
                              <path d="M 45 88.5 C 39.12687683105469 88.5 33.43022537231445 87.35007476806641 28.06830024719238 85.08217620849609 C 22.88852500915527 82.89131164550781 18.23629951477051 79.75458526611328 14.2408504486084 75.75914764404297 C 10.24541282653809 71.76370239257812 7.108687400817871 67.11147308349609 4.917825222015381 61.93170166015625 C 2.649924993515015 56.56977462768555 1.5 50.87312316894531 1.5 45 C 1.5 39.12687683105469 2.649924993515015 33.43022537231445 4.917825222015381 28.06830024719238 C 7.108687400817871 22.88852500915527 10.24541282653809 18.23629951477051 14.2408504486084 14.2408504486084 C 18.23629951477051 10.24541282653809 22.88852500915527 7.108687400817871 28.06830024719238 4.917825222015381 C 33.43022537231445 2.649924993515015 39.12687683105469 1.5 45 1.5 C 50.87312316894531 1.5 56.56977462768555 2.649924993515015 61.93170166015625 4.917825222015381 C 67.11147308349609 7.108687400817871 71.76370239257812 10.24541282653809 75.75914764404297 14.2408504486084 C 79.75458526611328 18.23629951477051 82.89131164550781 22.88852500915527 85.08217620849609 28.06830024719238 C 87.35007476806641 33.43022537231445 88.5 39.12687683105469 88.5 45 C 88.5 50.87312316894531 87.35007476806641 56.56977462768555 85.08217620849609 61.93170166015625 C 82.89131164550781 67.11147308349609 79.75458526611328 71.76370239257812 75.75914764404297 75.75914764404297 C 71.76370239257812 79.75458526611328 67.11147308349609 82.89131164550781 61.93170166015625 85.08217620849609 C 56.56977462768555 87.35007476806641 50.87312316894531 88.5 45 88.5 Z" stroke="none"/>
                              <path d="M 45 3 C 39.32871246337891 3 33.82865524291992 4.110054016113281 28.65262985229492 6.299339294433594 C 23.65165710449219 8.414573669433594 19.15968322753906 11.44334411621094 15.301513671875 15.301513671875 C 11.44334411621094 19.15968322753906 8.414573669433594 23.65165710449219 6.299339294433594 28.65262985229492 C 4.110054016113281 33.82865524291992 3 39.32871246337891 3 45 C 3 50.67128753662109 4.110054016113281 56.17134475708008 6.299339294433594 61.34737396240234 C 8.414573669433594 66.34834289550781 11.44334411621094 70.84031677246094 15.301513671875 74.698486328125 C 19.15968322753906 78.55665588378906 23.65165710449219 81.58542633056641 28.65262985229492 83.70066070556641 C 33.82865524291992 85.88994598388672 39.32871246337891 87 45 87 C 50.67128753662109 87 56.17134475708008 85.88994598388672 61.34737396240234 83.70066070556641 C 66.34834289550781 81.58542633056641 70.84031677246094 78.55665588378906 74.698486328125 74.698486328125 C 78.55665588378906 70.84031677246094 81.58542633056641 66.34834289550781 83.70066070556641 61.34737396240234 C 85.88994598388672 56.17134475708008 87 50.67128753662109 87 45 C 87 39.32871246337891 85.88994598388672 33.82865524291992 83.70066070556641 28.65262985229492 C 81.58542633056641 23.65165710449219 78.55665588378906 19.15968322753906 74.698486328125 15.301513671875 C 70.84031677246094 11.44334411621094 66.34834289550781 8.414573669433594 61.34737396240234 6.299339294433594 C 56.17134475708008 4.110054016113281 50.67128753662109 3 45 3 M 45 0 C 69.85281372070312 0 90 20.14718627929688 90 45 C 90 69.85281372070312 69.85281372070312 90 45 90 C 20.14718627929688 90 0 69.85281372070312 0 45 C 0 20.14718627929688 20.14718627929688 0 45 0 Z" stroke="none" fill="#1d7083"/>
                            </g>
                          </g>
                        </g>
                      </g>
                    </g>
                  </g>
                </g>
              </g>
            </g>
          </g>
        </g>
      </g>
    </g>
    <g id="line-graph_386990" transform="translate(286.984 522.847)">
      <path id="Trazado_1030957" data-name="Trazado 1030957" d="M372.123,130.714h13.45V82.654l-13.45,15.153Z" transform="translate(-317.831 -73.205)" fill="#3fc8f2"/>
      <path id="Trazado_1030958" data-name="Trazado 1030958" d="M453.947,87.268v43.445h4.1V82.654Z" transform="translate(-390.301 -73.205)" fill="#0daace"/>
      <path id="Trazado_1030959" data-name="Trazado 1030959" d="M255.491,230.218V248.1h13.334V215.2Z" transform="translate(-214.533 -190.595)" fill="#894ba2"/>
      <path id="Trazado_1030960" data-name="Trazado 1030960" d="M336.3,219.812V248.1h4.1V215.2Z" transform="translate(-286.099 -190.595)" fill="#763794"/>
      <path id="Trazado_1030961" data-name="Trazado 1030961" d="M138.861,239.822v30.092h13.333V252.028Z" transform="translate(-111.236 -212.405)" fill="#f77935"/>
      <path id="Trazado_1030962" data-name="Trazado 1030962" d="M219.662,313.792v21.636h4.1V317.542Z" transform="translate(-182.8 -277.919)" fill="#d9510d"/>
      <path id="Trazado_1030963" data-name="Trazado 1030963" d="M22.134,253.262v16.652H35.468V239.822Z" transform="translate(-7.854 -212.405)" fill="#ffdb56"/>
      <path id="Trazado_1030964" data-name="Trazado 1030964" d="M101.838,244.088v25.826h4.233V239.822Z" transform="translate(-78.446 -212.405)" fill="#fba806"/>
      <path id="Trazado_1030965" data-name="Trazado 1030965" d="M68.107,73.763a1.024,1.024,0,0,0-1.13.278L53.527,89.193,40.884,103.437l-12.566-11.5-.021-.017c-.019-.016-.039-.031-.058-.046s-.041-.031-.063-.044-.04-.024-.06-.035-.048-.026-.074-.037l-.025-.013c-.012-.005-.025-.008-.038-.012s-.052-.018-.078-.025l-.068-.016q-.038-.008-.077-.013l-.071-.007h-.076l-.072,0c-.025,0-.05.005-.075.01l-.072.014-.071.02c-.024.008-.048.016-.072.026l-.033.012c-.012.005-.022.012-.034.018s-.045.023-.067.036-.043.026-.064.041-.039.028-.058.043-.041.035-.061.053-.02.016-.03.026L13.565,105.406a1.024,1.024,0,0,0-.3.721V122.78a1.024,1.024,0,0,0,1.024,1.024H67.743a1.024,1.024,0,0,0,1.024-1.024V74.72A1.024,1.024,0,0,0,68.107,73.763ZM39.935,121.756H28.65V109.782a1.024,1.024,0,0,0-2.048,0v11.974H15.316V106.549L26.6,95.174v10.512h0a1.024,1.024,0,1,0,2.048,0h0V95.014l11.285,10.331v16.411Zm26.784,0h-11.4v-6.485h0a1.024,1.024,0,1,0-2.048,0h0v6.485H41.983V105.283L53.269,92.569v18.606h0a1.024,1.024,0,1,0,2.048,0h0V90.262l11.4-12.845Z" transform="translate(-0.001 -65.271)"/>
      <path id="Trazado_1030966" data-name="Trazado 1030966" d="M14.291,25.97a1.02,1.02,0,0,0,.727-.3L27.659,12.926,40.267,24.468a1.024,1.024,0,0,0,1.457-.075L60.1,3.722l.007,1.17A1.024,1.024,0,0,0,61.13,5.91h.007a1.024,1.024,0,0,0,1.017-1.03L62.13,1.042c0-.008,0-.017,0-.025s0-.036,0-.054,0-.032-.005-.048,0-.033-.008-.049S62.107.831,62.1.815,62.095.784,62.09.769s-.01-.033-.015-.049L62.058.674c-.006-.015-.012-.03-.019-.045S62.025.6,62.017.581L62,.542c-.009-.016-.019-.031-.029-.047L61.942.458,61.909.414l-.03-.036L61.845.34,61.807.3,61.786.283,61.772.271,61.73.238,61.691.209,61.649.182,61.606.155,61.565.134,61.516.11,61.475.094,61.423.075,61.381.063,61.327.049,61.285.041,61.228.032l-.041,0-.06,0h-.014L57.275,0h-.007a1.024,1.024,0,0,0-.006,2.048l1.576.01-17.955,20.2-12.567-11.5a1.024,1.024,0,0,0-1.418.034L13.564,24.225a1.024,1.024,0,0,0,.727,1.745Z"/>
    </g>
  </g>
</svg>
