<svg xmlns="http://www.w3.org/2000/svg" xmlns:xlink="http://www.w3.org/1999/xlink" width="108" height="108" viewBox="0 0 108 108">
  <defs>
    <filter id="Trazado_982547" x="0" y="0" width="108" height="108" filterUnits="userSpaceOnUse">
      <feOffset dy="3" input="SourceAlpha"/>
      <feGaussianBlur stdDeviation="3" result="blur"/>
      <feFlood flood-opacity="0.161"/>
      <feComposite operator="in" in2="blur"/>
      <feComposite in="SourceGraphic"/>
    </filter>
  </defs>
  <g id="Grupo_1173911" data-name="Grupo 1173911" transform="translate(-589 -501.113)">
    <g id="Grupo_1173713" data-name="Grupo 1173713" transform="translate(0 -5667.053)">
      <g id="Grupo_1173455" data-name="Grupo 1173455" transform="translate(598 6174.167)">
        <g id="Grupo_1172017" data-name="Grupo 1172017" transform="translate(0 0)">
          <g id="Grupo_1167337" data-name="Grupo 1167337" transform="translate(0)">
            <g id="Grupo_1166720" data-name="Grupo 1166720">
              <g id="Grupo_1164305" data-name="Grupo 1164305">
                <g id="Grupo_1163948" data-name="Grupo 1163948">
                  <g id="Grupo_1158168" data-name="Grupo 1158168">
                    <g id="Grupo_1152576" data-name="Grupo 1152576">
                      <g id="Grupo_1148633" data-name="Grupo 1148633">
                        <g id="Grupo_1148525" data-name="Grupo 1148525">
                          <g transform="matrix(1, 0, 0, 1, -9, -6)" filter="url(#Trazado_982547)">
                            <g id="Trazado_982547-2" data-name="Trazado 982547" transform="translate(9 6)" fill="#e9f9fd">
                              <path d="M 45 88.5 C 39.12687683105469 88.5 33.43022537231445 87.35007476806641 28.06830024719238 85.08217620849609 C 22.88852500915527 82.89131164550781 18.23629951477051 79.75458526611328 14.2408504486084 75.75914764404297 C 10.24541282653809 71.76370239257812 7.108687400817871 67.11147308349609 4.917825222015381 61.93170166015625 C 2.649924993515015 56.56977462768555 1.5 50.87312316894531 1.5 45 C 1.5 39.12687683105469 2.649924993515015 33.43022537231445 4.917825222015381 28.06830024719238 C 7.108687400817871 22.88852500915527 10.24541282653809 18.23629951477051 14.2408504486084 14.2408504486084 C 18.23629951477051 10.24541282653809 22.88852500915527 7.108687400817871 28.06830024719238 4.917825222015381 C 33.43022537231445 2.649924993515015 39.12687683105469 1.5 45 1.5 C 50.87312316894531 1.5 56.56977462768555 2.649924993515015 61.93170166015625 4.917825222015381 C 67.11147308349609 7.108687400817871 71.76370239257812 10.24541282653809 75.75914764404297 14.2408504486084 C 79.75458526611328 18.23629951477051 82.89131164550781 22.88852500915527 85.08217620849609 28.06830024719238 C 87.35007476806641 33.43022537231445 88.5 39.12687683105469 88.5 45 C 88.5 50.87312316894531 87.35007476806641 56.56977462768555 85.08217620849609 61.93170166015625 C 82.89131164550781 67.11147308349609 79.75458526611328 71.76370239257812 75.75914764404297 75.75914764404297 C 71.76370239257812 79.75458526611328 67.11147308349609 82.89131164550781 61.93170166015625 85.08217620849609 C 56.56977462768555 87.35007476806641 50.87312316894531 88.5 45 88.5 Z" stroke="none"/>
                              <path d="M 45 3 C 39.32871246337891 3 33.82865524291992 4.110054016113281 28.65262985229492 6.299339294433594 C 23.65165710449219 8.414573669433594 19.15968322753906 11.44334411621094 15.301513671875 15.301513671875 C 11.44334411621094 19.15968322753906 8.414573669433594 23.65165710449219 6.299339294433594 28.65262985229492 C 4.110054016113281 33.82865524291992 3 39.32871246337891 3 45 C 3 50.67128753662109 4.110054016113281 56.17134475708008 6.299339294433594 61.34737396240234 C 8.414573669433594 66.34834289550781 11.44334411621094 70.84031677246094 15.301513671875 74.698486328125 C 19.15968322753906 78.55665588378906 23.65165710449219 81.58542633056641 28.65262985229492 83.70066070556641 C 33.82865524291992 85.88994598388672 39.32871246337891 87 45 87 C 50.67128753662109 87 56.17134475708008 85.88994598388672 61.34737396240234 83.70066070556641 C 66.34834289550781 81.58542633056641 70.84031677246094 78.55665588378906 74.698486328125 74.698486328125 C 78.55665588378906 70.84031677246094 81.58542633056641 66.34834289550781 83.70066070556641 61.34737396240234 C 85.88994598388672 56.17134475708008 87 50.67128753662109 87 45 C 87 39.32871246337891 85.88994598388672 33.82865524291992 83.70066070556641 28.65262985229492 C 81.58542633056641 23.65165710449219 78.55665588378906 19.15968322753906 74.698486328125 15.301513671875 C 70.84031677246094 11.44334411621094 66.34834289550781 8.414573669433594 61.34737396240234 6.299339294433594 C 56.17134475708008 4.110054016113281 50.67128753662109 3 45 3 M 45 0 C 69.85281372070312 0 90 20.14718627929688 90 45 C 90 69.85281372070312 69.85281372070312 90 45 90 C 20.14718627929688 90 0 69.85281372070312 0 45 C 0 20.14718627929688 20.14718627929688 0 45 0 Z" stroke="none" fill="#1d7083"/>
                            </g>
                          </g>
                        </g>
                      </g>
                    </g>
                  </g>
                </g>
              </g>
            </g>
          </g>
        </g>
      </g>
    </g>
    <g id="growth-arrow_12397193" transform="translate(610.007 520.533)">
      <g id="Grupo_1173895" data-name="Grupo 1173895" transform="translate(18.892 10.906)">
        <path id="Trazado_1030967" data-name="Trazado 1030967" d="M22.345,44.278V20.635H18.22l8.562-9.905,8.562,9.905H31.219V44.278Z" transform="translate(-18.22 -10.73)" fill="#ff9d1c"/>
      </g>
      <g id="Grupo_1173896" data-name="Grupo 1173896" transform="translate(34.755 20.905)">
        <path id="Trazado_1030968" data-name="Trazado 1030968" d="M37.575,48.889V30.235H33.45l8.562-9.905,8.562,9.905H46.449V48.889Z" transform="translate(-33.45 -20.33)" fill="#86b60c"/>
      </g>
      <g id="Grupo_1173897" data-name="Grupo 1173897" transform="translate(46.285 7.521)">
        <path id="Trazado_1030969" data-name="Trazado 1030969" d="M48.634,45.851V17.385H44.52L53.071,7.48l8.562,9.905H57.508V45.851Z" transform="translate(-44.52 -7.48)" fill="#ff9d1c"/>
      </g>
      <g id="Grupo_1173898" data-name="Grupo 1173898" transform="translate(3.092 20.801)">
        <path id="Trazado_1030970" data-name="Trazado 1030970" d="M7.175,45.936v-15.8H3.05l8.562-9.905,8.551,9.905H16.049v15.8Z" transform="translate(-3.05 -20.23)" fill="#86b60c"/>
      </g>
      <g id="Grupo_1173899" data-name="Grupo 1173899" transform="translate(27.62 48.787)">
        <path id="Trazado_1030971" data-name="Trazado 1030971" d="M26.6,47.1a37.016,37.016,0,0,1,7.114,1.927c4.114,1.552,8.364,3.947,12.967,4.749Z" transform="translate(-26.6 -47.1)" fill="#8fc3ac"/>
      </g>
      <g id="Grupo_1173900" data-name="Grupo 1173900" transform="translate(47.701 52.859)">
        <path id="Trazado_1030972" data-name="Trazado 1030972" d="M51.609,53.874a2.864,2.864,0,1,0-2.864,2.864A2.863,2.863,0,0,0,51.609,53.874Z" transform="translate(-45.88 -51.01)" fill="#fd3d6c"/>
      </g>
      <g id="Grupo_1173901" data-name="Grupo 1173901" transform="translate(21.892 45.777)">
        <path id="Trazado_1030973" data-name="Trazado 1030973" d="M26.829,47.074a2.864,2.864,0,1,0-2.864,2.864A2.863,2.863,0,0,0,26.829,47.074Z" transform="translate(-21.1 -44.21)" fill="#fd3d6c"/>
      </g>
      <g id="Grupo_1173902" data-name="Grupo 1173902" transform="translate(17.852 9.885)">
        <path id="Trazado_1030974" data-name="Trazado 1030974" d="M31.26,45.361a1.045,1.045,0,0,1-1.042-1.042V20.676a1.045,1.045,0,0,1,1.042-1.042H33.1l-6.281-7.27-6.281,7.27h1.844a1.045,1.045,0,0,1,1.042,1.042V40.715a1.042,1.042,0,1,1-2.083,0v-19H18.262a1.047,1.047,0,0,1-.948-.6A1.059,1.059,0,0,1,17.47,20l8.562-9.905a1.071,1.071,0,0,1,1.573,0L36.166,20a1.018,1.018,0,0,1,.156,1.114,1.03,1.03,0,0,1-.948.6H32.3v22.6a1.045,1.045,0,0,1-1.042,1.042Z" transform="translate(-17.221 -9.75)"/>
      </g>
      <g id="Grupo_1173903" data-name="Grupo 1173903" transform="translate(33.714 19.884)">
        <path id="Trazado_1030975" data-name="Trazado 1030975" d="M46.49,49.972a1.045,1.045,0,0,1-1.042-1.042V30.276a1.045,1.045,0,0,1,1.042-1.042h1.844l-6.281-7.27-6.281,7.27h1.844a1.045,1.045,0,0,1,1.042,1.042v14.3a1.042,1.042,0,1,1-2.083,0V31.317H33.492a1.047,1.047,0,0,1-.948-.6A1.059,1.059,0,0,1,32.7,29.6l8.562-9.905a1.071,1.071,0,0,1,1.573,0L51.4,29.6a1.018,1.018,0,0,1,.156,1.114,1.03,1.03,0,0,1-.948.6H47.521V48.93a1.029,1.029,0,0,1-1.031,1.042Z" transform="translate(-32.451 -19.35)"/>
      </g>
      <g id="Grupo_1173904" data-name="Grupo 1173904" transform="translate(45.234 6.5)">
        <path id="Trazado_1030976" data-name="Trazado 1030976" d="M57.55,46.933a1.045,1.045,0,0,1-1.042-1.042V17.426a1.045,1.045,0,0,1,1.042-1.042h1.844l-6.281-7.27-6.281,7.27h1.844a1.045,1.045,0,0,1,1.042,1.042v6.458a1.042,1.042,0,1,1-2.083,0V18.467H44.552a1.047,1.047,0,0,1-.948-.6,1.059,1.059,0,0,1,.156-1.114l8.562-9.905a1.071,1.071,0,0,1,1.573,0l8.562,9.905a1.018,1.018,0,0,1,.156,1.114,1.03,1.03,0,0,1-.948.6H58.581V45.891a1.023,1.023,0,0,1-1.031,1.042Z" transform="translate(-43.511 -6.5)"/>
      </g>
      <g id="Grupo_1173905" data-name="Grupo 1173905" transform="translate(2.051 19.78)">
        <path id="Trazado_1030977" data-name="Trazado 1030977" d="M7.216,47.018a1.045,1.045,0,0,1-1.042-1.042V31.217H3.092a1.047,1.047,0,0,1-.948-.6A1.059,1.059,0,0,1,2.3,29.5l8.562-9.905a1.071,1.071,0,0,1,1.573,0L21,29.5a1.018,1.018,0,0,1,.156,1.114,1.03,1.03,0,0,1-.948.6H17.121V42.175a1.042,1.042,0,1,1-2.083,0v-12a1.045,1.045,0,0,1,1.042-1.042h1.844l-6.281-7.27-6.281,7.27H7.206a1.045,1.045,0,0,1,1.042,1.042v15.8a1.029,1.029,0,0,1-1.031,1.042Z" transform="translate(-2.051 -19.25)"/>
      </g>
      <g id="Grupo_1173906" data-name="Grupo 1173906" transform="translate(3.5 47.338)">
        <path id="Trazado_1030978" data-name="Trazado 1030978" d="M4.481,54.678a1.042,1.042,0,0,1-.76-1.75c.26-.281,6.593-6.937,18.092-7.218a1.042,1.042,0,1,1,.042,2.083A24.8,24.8,0,0,0,5.242,54.345a1.026,1.026,0,0,1-.76.333Z" transform="translate(-3.442 -45.709)"/>
      </g>
      <g id="Grupo_1173907" data-name="Grupo 1173907" transform="translate(52.384 49.87)">
        <path id="Trazado_1030979" data-name="Trazado 1030979" d="M51.411,54.806a1.029,1.029,0,0,1-1.021-.864,1.054,1.054,0,0,1,.844-1.208,17.821,17.821,0,0,0,8.52-4.343,1.042,1.042,0,1,1,1.354,1.583,19.843,19.843,0,0,1-9.52,4.8.529.529,0,0,1-.177.031Z" transform="translate(-50.376 -48.139)"/>
      </g>
      <g id="Grupo_1173908" data-name="Grupo 1173908" transform="translate(26.578 47.742)">
        <path id="Trazado_1030980" data-name="Trazado 1030980" d="M46.723,54.86a1.011,1.011,0,0,1-.177-.01,41.341,41.341,0,0,1-9.332-3.208c-1.323-.573-2.573-1.125-3.822-1.594a36.514,36.514,0,0,0-6.916-1.875,1.045,1.045,0,0,1,.333-2.062,38.134,38.134,0,0,1,7.312,1.979c1.3.49,2.635,1.073,3.916,1.635A39.365,39.365,0,0,0,46.9,52.787,1.041,1.041,0,0,1,47.743,54a1.029,1.029,0,0,1-1.021.864Z" transform="translate(-25.599 -46.097)"/>
      </g>
      <g id="Grupo_1173909" data-name="Grupo 1173909" transform="translate(46.66 51.828)">
        <path id="Trazado_1030981" data-name="Trazado 1030981" d="M48.786,57.832a3.906,3.906,0,1,1,3.906-3.906A3.907,3.907,0,0,1,48.786,57.832Zm0-5.739a1.823,1.823,0,1,0,1.823,1.823A1.825,1.825,0,0,0,48.786,52.093Z" transform="translate(-44.88 -50.02)"/>
      </g>
      <g id="Grupo_1173910" data-name="Grupo 1173910" transform="translate(20.84 44.735)">
        <path id="Trazado_1030982" data-name="Trazado 1030982" d="M24,51.022A3.906,3.906,0,1,1,27.9,47.116,3.907,3.907,0,0,1,24,51.022Zm0-5.739a1.823,1.823,0,1,0,1.823,1.823A1.825,1.825,0,0,0,24,45.283Z" transform="translate(-20.09 -43.21)"/>
      </g>
    </g>
  </g>
</svg>
