<svg xmlns="http://www.w3.org/2000/svg" xmlns:xlink="http://www.w3.org/1999/xlink" width="108" height="108" viewBox="0 0 108 108">
  <defs>
    <filter id="Trazado_982547" x="0" y="0" width="108" height="108" filterUnits="userSpaceOnUse">
      <feOffset dy="3" input="SourceAlpha"/>
      <feGaussianBlur stdDeviation="3" result="blur"/>
      <feFlood flood-opacity="0.161"/>
      <feComposite operator="in" in2="blur"/>
      <feComposite in="SourceGraphic"/>
    </filter>
  </defs>
  <g id="Grupo_1173912" data-name="Grupo 1173912" transform="translate(-904 -501)">
    <g id="Grupo_1173711" data-name="Grupo 1173711" transform="translate(0 -5667.167)">
      <g id="Grupo_1173456" data-name="Grupo 1173456" transform="translate(913 6174.167)">
        <g id="Grupo_1172017" data-name="Grupo 1172017" transform="translate(0 0)">
          <g id="Grupo_1167337" data-name="Grupo 1167337" transform="translate(0)">
            <g id="Grupo_1166720" data-name="Grupo 1166720">
              <g id="Grupo_1164305" data-name="Grupo 1164305">
                <g id="Grupo_1163948" data-name="Grupo 1163948">
                  <g id="Grupo_1158168" data-name="Grupo 1158168">
                    <g id="Grupo_1152576" data-name="Grupo 1152576">
                      <g id="Grupo_1148633" data-name="Grupo 1148633">
                        <g id="Grupo_1148525" data-name="Grupo 1148525">
                          <g transform="matrix(1, 0, 0, 1, -9, -6)" filter="url(#Trazado_982547)">
                            <g id="Trazado_982547-2" data-name="Trazado 982547" transform="translate(9 6)" fill="#e9f9fd">
                              <path d="M 45 88.5 C 39.12687683105469 88.5 33.43022537231445 87.35007476806641 28.06830024719238 85.08217620849609 C 22.88852500915527 82.89131164550781 18.23629951477051 79.75458526611328 14.2408504486084 75.75914764404297 C 10.24541282653809 71.76370239257812 7.108687400817871 67.11147308349609 4.917825222015381 61.93170166015625 C 2.649924993515015 56.56977462768555 1.5 50.87312316894531 1.5 45 C 1.5 39.12687683105469 2.649924993515015 33.43022537231445 4.917825222015381 28.06830024719238 C 7.108687400817871 22.88852500915527 10.24541282653809 18.23629951477051 14.2408504486084 14.2408504486084 C 18.23629951477051 10.24541282653809 22.88852500915527 7.108687400817871 28.06830024719238 4.917825222015381 C 33.43022537231445 2.649924993515015 39.12687683105469 1.5 45 1.5 C 50.87312316894531 1.5 56.56977462768555 2.649924993515015 61.93170166015625 4.917825222015381 C 67.11147308349609 7.108687400817871 71.76370239257812 10.24541282653809 75.75914764404297 14.2408504486084 C 79.75458526611328 18.23629951477051 82.89131164550781 22.88852500915527 85.08217620849609 28.06830024719238 C 87.35007476806641 33.43022537231445 88.5 39.12687683105469 88.5 45 C 88.5 50.87312316894531 87.35007476806641 56.56977462768555 85.08217620849609 61.93170166015625 C 82.89131164550781 67.11147308349609 79.75458526611328 71.76370239257812 75.75914764404297 75.75914764404297 C 71.76370239257812 79.75458526611328 67.11147308349609 82.89131164550781 61.93170166015625 85.08217620849609 C 56.56977462768555 87.35007476806641 50.87312316894531 88.5 45 88.5 Z" stroke="none"/>
                              <path d="M 45 3 C 39.32871246337891 3 33.82865524291992 4.110054016113281 28.65262985229492 6.299339294433594 C 23.65165710449219 8.414573669433594 19.15968322753906 11.44334411621094 15.301513671875 15.301513671875 C 11.44334411621094 19.15968322753906 8.414573669433594 23.65165710449219 6.299339294433594 28.65262985229492 C 4.110054016113281 33.82865524291992 3 39.32871246337891 3 45 C 3 50.67128753662109 4.110054016113281 56.17134475708008 6.299339294433594 61.34737396240234 C 8.414573669433594 66.34834289550781 11.44334411621094 70.84031677246094 15.301513671875 74.698486328125 C 19.15968322753906 78.55665588378906 23.65165710449219 81.58542633056641 28.65262985229492 83.70066070556641 C 33.82865524291992 85.88994598388672 39.32871246337891 87 45 87 C 50.67128753662109 87 56.17134475708008 85.88994598388672 61.34737396240234 83.70066070556641 C 66.34834289550781 81.58542633056641 70.84031677246094 78.55665588378906 74.698486328125 74.698486328125 C 78.55665588378906 70.84031677246094 81.58542633056641 66.34834289550781 83.70066070556641 61.34737396240234 C 85.88994598388672 56.17134475708008 87 50.67128753662109 87 45 C 87 39.32871246337891 85.88994598388672 33.82865524291992 83.70066070556641 28.65262985229492 C 81.58542633056641 23.65165710449219 78.55665588378906 19.15968322753906 74.698486328125 15.301513671875 C 70.84031677246094 11.44334411621094 66.34834289550781 8.414573669433594 61.34737396240234 6.299339294433594 C 56.17134475708008 4.110054016113281 50.67128753662109 3 45 3 M 45 0 C 69.85281372070312 0 90 20.14718627929688 90 45 C 90 69.85281372070312 69.85281372070312 90 45 90 C 20.14718627929688 90 0 69.85281372070312 0 45 C 0 20.14718627929688 20.14718627929688 0 45 0 Z" stroke="none" fill="#1d7083"/>
                            </g>
                          </g>
                        </g>
                      </g>
                    </g>
                  </g>
                </g>
              </g>
            </g>
          </g>
        </g>
      </g>
    </g>
    <g id="raiz-cuadrada" transform="translate(928 468.35)">
      <path id="Trazado_1030983" data-name="Trazado 1030983" d="M22.84,115.773a2.876,2.876,0,0,1-2.7-1.891L11.959,91.445H7.5V85.693h6.471a2.876,2.876,0,0,1,2.7,1.891l6.1,16.743L33.306,74.082a2.876,2.876,0,0,1,2.716-1.931h30.44V77.9h-28.4l-12.51,35.939a2.876,2.876,0,0,1-2.7,1.931H22.84Z" transform="translate(-6.61 -6.611)" fill="#8f818f"/>
      <path id="Trazado_1030984" data-name="Trazado 1030984" d="M168.551,72.15v2.157a1.2,1.2,0,0,1-1.2,1.2H142.921a2.4,2.4,0,0,0-2.259,1.6l-13.016,36.74a2.874,2.874,0,0,1-1.459,1.64,2.868,2.868,0,0,0,1.259.291h.021a2.876,2.876,0,0,0,2.7-1.931L142.672,77.9h28.4V72.15Z" transform="translate(-111.216 -6.61)" fill="#786e79"/>
      <path id="Trazado_1030985" data-name="Trazado 1030985" d="M294.32,208.366l4.979-9.146,4.979,9.146h7L302.8,192.786l8.482-15.579h-7l-4.979,9.146-4.979-9.146h-7l8.482,15.579-8.482,15.579Z" transform="translate(-253.229 -99.204)" fill="#fcdd2e"/>
      <path id="Trazado_1030986" data-name="Trazado 1030986" d="M405.654,177.207h-3.116L394.68,191.64a2.4,2.4,0,0,0,0,2.292l7.858,14.433h3.116l-8.482-15.579Z" transform="translate(-347.6 -99.204)" fill="#f9c301"/>
      <path id="Trazado_1030987" data-name="Trazado 1030987" d="M8.9,91.984,6.184,84.53a.89.89,0,0,0-.836-.585H1.78V79.973H7.361a1.993,1.993,0,0,1,1.866,1.306l6.1,16.743a.89.89,0,0,0,.836.585h.007a.89.89,0,0,0,.834-.6L27.536,67.764a1.988,1.988,0,0,1,1.876-1.333H37.9a.89.89,0,1,0,0-1.78H29.412a3.769,3.769,0,0,0-3.557,2.528L16.148,95.066,10.9,80.669a3.778,3.778,0,0,0-3.538-2.476H.89a.89.89,0,0,0-.89.89v5.752a.89.89,0,0,0,.89.89H4.726l2.5,6.868a.89.89,0,1,0,1.672-.61Z" transform="translate(0 -0.001)"/>
      <path id="Trazado_1030988" data-name="Trazado 1030988" d="M123.75,64.65H105.96a.89.89,0,0,0,0,1.78h16.9V70.4H95.355a.89.89,0,0,0-.84.6L82,106.939a1.991,1.991,0,0,1-1.862,1.333h-.014a1.993,1.993,0,0,1-1.866-1.306L74.226,95.894a.89.89,0,1,0-1.672.609l4.036,11.072a3.778,3.778,0,0,0,3.538,2.476h.028a3.774,3.774,0,0,0,3.529-2.528l12.3-35.342H123.75a.89.89,0,0,0,.89-.89V65.54A.89.89,0,0,0,123.75,64.65Z" transform="translate(-63.899)"/>
      <path id="Trazado_1030989" data-name="Trazado 1030989" d="M305.438,170.142a.89.89,0,0,0-.765-.435h-7a.89.89,0,0,0-.781.464l-4.2,7.711-4.2-7.711a.889.889,0,0,0-.781-.464h-7a.89.89,0,0,0-.781,1.315l3.289,6.041a.89.89,0,0,0,1.563-.851l-2.573-4.726h4.978l4.727,8.682a.89.89,0,0,0,1.563,0l4.727-8.682h4.979l-7.766,14.264a.889.889,0,0,0,0,.851l7.766,14.264H298.2l-4.727-8.682a.89.89,0,0,0-1.563,0l-4.727,8.682H282.2l7.766-14.264a.889.889,0,0,0,0-.851l-3.2-5.884a.89.89,0,0,0-1.563.851l2.972,5.459-8.25,15.154a.89.89,0,0,0,.781,1.315h7a.89.89,0,0,0,.781-.464l4.2-7.711,4.2,7.711a.89.89,0,0,0,.781.464h7a.89.89,0,0,0,.781-1.315l-8.25-15.154,8.25-15.154A.89.89,0,0,0,305.438,170.142Z" transform="translate(-246.619 -92.594)"/>
      <path id="Trazado_1030990" data-name="Trazado 1030990" d="M89.785,90.742a.89.89,0,0,0,.89-.89V85.777a1.986,1.986,0,1,1,3.973,0v4.075a.89.89,0,1,0,1.78,0V85.777a3.763,3.763,0,0,0-5.752-3.2V81.7a.89.89,0,0,0-1.78,0v8.149A.89.89,0,0,0,89.785,90.742Z" transform="translate(-78.349 -14.245)"/>
    </g>
  </g>
</svg>
