<svg xmlns="http://www.w3.org/2000/svg" xmlns:xlink="http://www.w3.org/1999/xlink" width="106" height="106" viewBox="0 0 106 106">
  <defs>
    <filter id="Trazado_982547" x="0" y="0" width="106" height="106" filterUnits="userSpaceOnUse">
      <feOffset dy="3" input="SourceAlpha"/>
      <feGaussianBlur stdDeviation="3" result="blur"/>
      <feFlood flood-opacity="0.161"/>
      <feComposite operator="in" in2="blur"/>
      <feComposite in="SourceGraphic"/>
    </filter>
  </defs>
  <g id="Grupo_1173686" data-name="Grupo 1173686" transform="translate(-171 -1382)">
    <g id="Grupo_1173169" data-name="Grupo 1173169" transform="translate(0 -2329)">
      <g id="Grupo_1172017" data-name="Grupo 1172017" transform="translate(0 2654)">
        <g id="Grupo_1167337" data-name="Grupo 1167337" transform="translate(180 1063)">
          <g id="Grupo_1166720" data-name="Grupo 1166720" transform="translate(0)">
            <g id="Grupo_1164305" data-name="Grupo 1164305">
              <g id="Grupo_1163948" data-name="Grupo 1163948">
                <g id="Grupo_1158168" data-name="Grupo 1158168">
                  <g id="Grupo_1152576" data-name="Grupo 1152576">
                    <g id="Grupo_1148633" data-name="Grupo 1148633">
                      <g id="Grupo_1148525" data-name="Grupo 1148525">
                        <g transform="matrix(1, 0, 0, 1, -9, -6)" filter="url(#Trazado_982547)">
                          <g id="Trazado_982547-2" data-name="Trazado 982547" transform="translate(9 6)" fill="#fff4e6">
                            <path d="M 44 86.5 C 38.26187515258789 86.5 32.69618606567383 85.37651062011719 27.45755004882812 83.16075897216797 C 22.3968505859375 81.020263671875 17.85157585144043 77.95565032958984 13.94796276092529 74.05204010009766 C 10.04434967041016 70.1484375 6.979737281799316 65.6031494140625 4.839250087738037 60.54246139526367 C 2.62348747253418 55.30381393432617 1.5 49.73812484741211 1.5 44 C 1.5 38.26187515258789 2.62348747253418 32.69618606567383 4.839250087738037 27.45755004882812 C 6.979737281799316 22.3968505859375 10.04434967041016 17.85157585144043 13.94796276092529 13.94796276092529 C 17.85157585144043 10.04434967041016 22.3968505859375 6.979737281799316 27.45755004882812 4.839250087738037 C 32.69618606567383 2.62348747253418 38.26187515258789 1.5 44 1.5 C 49.73812484741211 1.5 55.30381393432617 2.62348747253418 60.54246139526367 4.839250087738037 C 65.6031494140625 6.979737281799316 70.1484375 10.04434967041016 74.05204010009766 13.94796276092529 C 77.95565032958984 17.85157585144043 81.020263671875 22.3968505859375 83.16075897216797 27.45755004882812 C 85.37651062011719 32.69618606567383 86.5 38.26187515258789 86.5 44 C 86.5 49.73812484741211 85.37651062011719 55.30381393432617 83.16075897216797 60.54246139526367 C 81.020263671875 65.6031494140625 77.95565032958984 70.1484375 74.05204010009766 74.05204010009766 C 70.1484375 77.95565032958984 65.6031494140625 81.020263671875 60.54246139526367 83.16075897216797 C 55.30381393432617 85.37651062011719 49.73812484741211 86.5 44 86.5 Z" stroke="none"/>
                            <path d="M 44 3 C 38.46371459960938 3 33.09462738037109 4.083610534667969 28.0418701171875 6.220756530761719 C 23.15997314453125 8.285614013671875 18.77495574951172 11.24228668212891 15.00862884521484 15.00862884521484 C 11.24228668212891 18.77495574951172 8.285614013671875 23.15997314453125 6.220756530761719 28.0418701171875 C 4.083610534667969 33.09462738037109 3 38.46371459960938 3 44 C 3 49.53628540039062 4.083610534667969 54.9053840637207 6.220756530761719 59.9581298828125 C 8.285614013671875 64.84002685546875 11.24228668212891 69.22504425048828 15.00862884521484 72.99138641357422 C 18.77495574951172 76.75771331787109 23.15997314453125 79.71438598632812 28.0418701171875 81.77925872802734 C 33.09462738037109 83.9163818359375 38.46371459960938 85 44 85 C 49.53628540039062 85 54.9053840637207 83.9163818359375 59.95814514160156 81.77925872802734 C 64.84002685546875 79.71438598632812 69.22504425048828 76.75771331787109 72.99138641357422 72.99138641357422 C 76.75771331787109 69.22504425048828 79.71438598632812 64.84002685546875 81.77925872802734 59.95814514160156 C 83.9163818359375 54.9053840637207 85 49.53628540039062 85 44 C 85 38.46371459960938 83.9163818359375 33.09462738037109 81.77925872802734 28.0418701171875 C 79.71438598632812 23.15997314453125 76.75771331787109 18.77495574951172 72.99138641357422 15.00862884521484 C 69.22504425048828 11.24228668212891 64.84002685546875 8.285614013671875 59.9581298828125 6.220756530761719 C 54.9053840637207 4.083610534667969 49.53628540039062 3 44 3 M 44 0 C 68.30054473876953 0 88 19.69947052001953 88 44 C 88 68.30054473876953 68.30054473876953 88 44 88 C 19.69947052001953 88 0 68.30054473876953 0 44 C 0 19.69947052001953 19.69947052001953 0 44 0 Z" stroke="none" fill="#ff9d1c"/>
                          </g>
                        </g>
                      </g>
                    </g>
                  </g>
                </g>
              </g>
            </g>
          </g>
        </g>
      </g>
    </g>
    <g id="support_994285_2_" data-name="support_994285 (2)" transform="translate(200.089 1404.799)">
      <path id="Trazado_1029442" data-name="Trazado 1029442" d="M338.89,8.533H327.708a3.441,3.441,0,0,0-3.441,3.441v8.6a3.441,3.441,0,0,0,3.441,3.441h2.581v4.3l4.3-4.3h4.3a3.441,3.441,0,0,0,3.441-3.441v-8.6A3.441,3.441,0,0,0,338.89,8.533Z" transform="translate(-291.579 -7.673)" fill="#f0e4d6"/>
      <path id="Trazado_1029443" data-name="Trazado 1029443" d="M351.253,13.466A25.887,25.887,0,0,1,336.06,27.592a3.408,3.408,0,0,0,2.252.86h2.581v4.3l4.3-4.3h4.3a3.441,3.441,0,0,0,3.441-3.441v-8.6A3.428,3.428,0,0,0,351.253,13.466Z" transform="translate(-302.183 -12.109)" fill="#ebdcca"/>
      <path id="Trazado_1029444" data-name="Trazado 1029444" d="M43.8,274.133l8.6-16.344H45.521l-4.3,7.742V258.65a5.161,5.161,0,0,0-5.161-5.161H30.9a2.58,2.58,0,0,1-2.581-2.581v-3.441H21.435v3.441a2.58,2.58,0,0,1-2.581,2.581H13.693a5.161,5.161,0,0,0-5.161,5.161v15.484Z" transform="translate(-7.672 -222.521)" fill="#fec9a3"/>
      <g id="Grupo_1173581" data-name="Grupo 1173581" transform="translate(4.301 38.628)">
        <path id="Trazado_1029445" data-name="Trazado 1029445" d="M46.079,396.182h-1.72v-2.287A8.574,8.574,0,0,1,44,384.189l.629-.991,1.453.922-.629.99a6.853,6.853,0,0,0,.434,7.954.859.859,0,0,1,.188.538v2.581Z" transform="translate(-42.669 -383.198)" fill="#f5b789"/>
        <path id="Trazado_1029446" data-name="Trazado 1029446" d="M266.5,396.182h-1.72V393.6a.859.859,0,0,1,.188-.538,6.852,6.852,0,0,0,.434-7.953l-.629-.991,1.453-.922.629.991a8.574,8.574,0,0,1-.355,9.706Z" transform="translate(-242.383 -383.198)" fill="#f5b789"/>
      </g>
      <path id="Trazado_1029447" data-name="Trazado 1029447" d="M75.286,29.178v-8.6A12.043,12.043,0,0,0,63.243,8.533h0A12.043,12.043,0,0,0,51.2,20.576v8.6a5.161,5.161,0,0,0,5.161,5.161H70.125A5.161,5.161,0,0,0,75.286,29.178Z" transform="translate(-46.039 -7.673)" fill="#f9b44d"/>
      <path id="Trazado_1029448" data-name="Trazado 1029448" d="M139.975,8.533a12.045,12.045,0,0,0-3.441.5,12.044,12.044,0,0,1,8.6,11.538v8.6a5.161,5.161,0,0,1-5.161,5.161h6.882a5.161,5.161,0,0,0,5.161-5.161v-8.6A12.043,12.043,0,0,0,139.975,8.533Z" transform="translate(-122.771 -7.673)" fill="#f7aa36"/>
      <path id="Trazado_1029449" data-name="Trazado 1029449" d="M383.209,303.828h-7.742a5.161,5.161,0,0,1,5.161-5.161h7.742A5.161,5.161,0,0,1,383.209,303.828Z" transform="translate(-337.618 -268.56)" fill="#fec9a3"/>
      <g id="Grupo_1173582" data-name="Grupo 1173582" transform="translate(36.129 4.301)">
        <rect id="Rectángulo_414953" data-name="Rectángulo 414953" width="6.021" height="1.72" fill="#ccbfb0"/>
        <rect id="Rectángulo_414954" data-name="Rectángulo 414954" width="3.441" height="1.72" transform="translate(7.742)" fill="#ccbfb0"/>
        <rect id="Rectángulo_414955" data-name="Rectángulo 414955" width="11.183" height="1.72" transform="translate(0 3.441)" fill="#ccbfb0"/>
        <rect id="Rectángulo_414956" data-name="Rectángulo 414956" width="6.021" height="1.72" transform="translate(0 6.882)" fill="#ccbfb0"/>
      </g>
      <path id="Trazado_1029450" data-name="Trazado 1029450" d="M143.42,250.952v-3.485h-6.886v3.485a7.679,7.679,0,0,0,6.89,0Z" transform="translate(-122.771 -222.521)" fill="#f7c097"/>
      <path id="Trazado_1029451" data-name="Trazado 1029451" d="M93.867,89.881v3.7a7.742,7.742,0,1,0,15.484,0V86.7a7.7,7.7,0,0,0-.926-3.673Z" transform="translate(-84.405 -74.66)" fill="#fec9a3"/>
      <rect id="Rectángulo_414957" data-name="Rectángulo 414957" width="12.043" height="9.462" transform="translate(11.183 36.129)" fill="#e8594a"/>
      <path id="Trazado_1029452" data-name="Trazado 1029452" d="M45.522,311.5l-4.3,7.742v-6.882A5.161,5.161,0,0,0,36.06,307.2H33.307l-8.43,11.183-8-11.183H13.694a5.161,5.161,0,0,0-5.161,5.161v15.484H43.8L52.4,311.5Z" transform="translate(-7.673 -276.233)" fill="#4398d1"/>
      <path id="Trazado_1029453" data-name="Trazado 1029453" d="M167.954,311.792h-6.882l-4.3,7.742v-6.882a5.161,5.161,0,0,0-4.594-5.129c-1.548,12.016-8.766,17.823-15.139,20.612h22.315Z" transform="translate(-123.223 -276.524)" fill="#3f8fc4"/>
      <g id="Grupo_1173583" data-name="Grupo 1173583" transform="translate(4.301 38.628)">
        <path id="Trazado_1029454" data-name="Trazado 1029454" d="M46.079,396.182h-1.72v-2.287A8.574,8.574,0,0,1,44,384.189l.629-.991,1.453.922-.629.99a6.853,6.853,0,0,0,.434,7.954.859.859,0,0,1,.188.538v2.581Z" transform="translate(-42.669 -383.198)" fill="#3685ba"/>
        <path id="Trazado_1029455" data-name="Trazado 1029455" d="M266.5,396.182h-1.72V393.6a.859.859,0,0,1,.188-.538,6.852,6.852,0,0,0,.434-7.953l-.629-.991,1.453-.922.629.991a8.574,8.574,0,0,1-.355,9.706Z" transform="translate(-242.383 -383.198)" fill="#3685ba"/>
      </g>
      <path id="Trazado_1029456" data-name="Trazado 1029456" d="M178.409,93.584V86.7a7.7,7.7,0,0,0-.926-3.673L175.3,84.056a11.989,11.989,0,0,1,.529,3.506v8.6a5.161,5.161,0,0,1-5.161,5.161,7.741,7.741,0,0,0,7.742-7.742Z" transform="translate(-153.463 -74.659)" fill="#f7c097"/>
      <path id="Trazado_1029457" data-name="Trazado 1029457" d="M62.451,26.666h-.86v1.72h.86a6.028,6.028,0,0,0,6.021-6.021V12.9a12.9,12.9,0,0,0-25.806,0v9.462a6.028,6.028,0,0,0,6.021,6.021h.86v-1.72h-.86a4.306,4.306,0,0,1-4.3-4.3V12.9a11.183,11.183,0,0,1,22.365,0v9.462A4.306,4.306,0,0,1,62.451,26.666Z" transform="translate(-38.365 0)"/>
      <path id="Trazado_1029458" data-name="Trazado 1029458" d="M46.084,384.12l-1.453-.922-.629.991a8.574,8.574,0,0,0,.355,9.706v2.287h1.72V393.6a.859.859,0,0,0-.188-.538,6.853,6.853,0,0,1-.434-7.953Z" transform="translate(-38.367 -344.57)"/>
      <path id="Trazado_1029459" data-name="Trazado 1029459" d="M331.217,0H320.034a4.306,4.306,0,0,0-4.3,4.3v8.6a4.306,4.306,0,0,0,4.3,4.3h1.72v3.441a.86.86,0,0,0,.531.795.861.861,0,0,0,.938-.187l4.049-4.049h3.945a4.306,4.306,0,0,0,4.3-4.3V4.3A4.306,4.306,0,0,0,331.217,0ZM333.8,12.9a2.58,2.58,0,0,1-2.581,2.581h-4.3a.858.858,0,0,0-.608.252l-2.833,2.833V16.344a.861.861,0,0,0-.86-.86h-2.581a2.58,2.58,0,0,1-2.581-2.581V4.3a2.58,2.58,0,0,1,2.581-2.581h11.183A2.58,2.58,0,0,1,333.8,4.3Z" transform="translate(-283.905)"/>
      <rect id="Rectángulo_414958" data-name="Rectángulo 414958" width="6.021" height="1.72" transform="translate(36.129 4.301)"/>
      <rect id="Rectángulo_414959" data-name="Rectángulo 414959" width="3.441" height="1.72" transform="translate(43.871 4.301)"/>
      <rect id="Rectángulo_414960" data-name="Rectángulo 414960" width="11.183" height="1.72" transform="translate(36.129 7.742)"/>
      <rect id="Rectángulo_414961" data-name="Rectángulo 414961" width="6.021" height="1.72" transform="translate(36.129 11.183)"/>
      <path id="Trazado_1029460" data-name="Trazado 1029460" d="M264.778,393.6v2.581h1.72v-2.287a8.574,8.574,0,0,0,.355-9.706l-.629-.991-1.453.922.629.991a6.852,6.852,0,0,1-.434,7.953A.859.859,0,0,0,264.778,393.6Z" transform="translate(-238.082 -344.57)"/>
      <path id="Trazado_1029461" data-name="Trazado 1029461" d="M1.72,103.122a4.306,4.306,0,0,1,4.3-4.3H8.759L16.5,109.644a.859.859,0,0,0,.688.36H17.2a.86.86,0,0,0,.688-.344l8.172-10.839h2.323a4.306,4.306,0,0,1,4.3,4.3V110a.86.86,0,0,0,1.612.417l4.055-7.3h4.932L34.9,118.606h1.957l8.39-15.484h.344A6.028,6.028,0,0,0,51.612,97.1a.861.861,0,0,0-.86-.86H43.01A6.021,6.021,0,0,0,37,102.017l-2.593,4.668v-3.562A6.028,6.028,0,0,0,28.387,97.1H25.243l-.023-.018L25.2,97.1H23.226a1.72,1.72,0,0,1-1.72-1.72V93.356a8.6,8.6,0,0,0,4.3-7.438V79.036a8.616,8.616,0,0,0-1.032-4.083.86.86,0,0,0-1.118-.37L9.1,81.435a.861.861,0,0,0-.494.779v3.7a8.6,8.6,0,0,0,4.3,7.438V95.38a1.72,1.72,0,0,1-1.72,1.72H6.021A6.028,6.028,0,0,0,0,103.122v15.484H1.72Zm41.29-5.161h6.8a4.308,4.308,0,0,1-4.215,3.441H38.8A4.308,4.308,0,0,1,43.01,97.961Zm-25.788,9.731-2.655-3.709h5.45Zm-6.9-21.774V82.76L23.6,76.509a6.885,6.885,0,0,1,.481,2.527v6.882a6.882,6.882,0,1,1-13.763,0Zm.86,12.9a3.441,3.441,0,0,0,3.441-3.441V94.124a8.591,8.591,0,0,0,5.161,0V95.38a3.441,3.441,0,0,0,3.441,3.441h.688l-2.594,3.441H13.333L10.87,98.821Z" transform="translate(0 -66.994)"/>
    </g>
  </g>
</svg>
