<svg xmlns="http://www.w3.org/2000/svg" xmlns:xlink="http://www.w3.org/1999/xlink" width="108" height="108" viewBox="0 0 108 108">
  <defs>
    <filter id="Trazado_982547" x="0" y="0" width="108" height="108" filterUnits="userSpaceOnUse">
      <feOffset dy="3" input="SourceAlpha"/>
      <feGaussianBlur stdDeviation="3" result="blur"/>
      <feFlood flood-opacity="0.161"/>
      <feComposite operator="in" in2="blur"/>
      <feComposite in="SourceGraphic"/>
    </filter>
  </defs>
  <g id="Grupo_1173913" data-name="Grupo 1173913" transform="translate(-1219 -501.113)">
    <g id="Grupo_1173712" data-name="Grupo 1173712" transform="translate(0 -5667.053)">
      <g id="Grupo_1173457" data-name="Grupo 1173457" transform="translate(1228 6174.167)">
        <g id="Grupo_1172017" data-name="Grupo 1172017" transform="translate(0 0)">
          <g id="Grupo_1167337" data-name="Grupo 1167337" transform="translate(0)">
            <g id="Grupo_1166720" data-name="Grupo 1166720">
              <g id="Grupo_1164305" data-name="Grupo 1164305">
                <g id="Grupo_1163948" data-name="Grupo 1163948">
                  <g id="Grupo_1158168" data-name="Grupo 1158168">
                    <g id="Grupo_1152576" data-name="Grupo 1152576">
                      <g id="Grupo_1148633" data-name="Grupo 1148633">
                        <g id="Grupo_1148525" data-name="Grupo 1148525">
                          <g transform="matrix(1, 0, 0, 1, -9, -6)" filter="url(#Trazado_982547)">
                            <g id="Trazado_982547-2" data-name="Trazado 982547" transform="translate(9 6)" fill="#e9f9fd">
                              <path d="M 45 88.5 C 39.12687683105469 88.5 33.43022537231445 87.35007476806641 28.06830024719238 85.08217620849609 C 22.88852500915527 82.89131164550781 18.23629951477051 79.75458526611328 14.2408504486084 75.75914764404297 C 10.24541282653809 71.76370239257812 7.108687400817871 67.11147308349609 4.917825222015381 61.93170166015625 C 2.649924993515015 56.56977462768555 1.5 50.87312316894531 1.5 45 C 1.5 39.12687683105469 2.649924993515015 33.43022537231445 4.917825222015381 28.06830024719238 C 7.108687400817871 22.88852500915527 10.24541282653809 18.23629951477051 14.2408504486084 14.2408504486084 C 18.23629951477051 10.24541282653809 22.88852500915527 7.108687400817871 28.06830024719238 4.917825222015381 C 33.43022537231445 2.649924993515015 39.12687683105469 1.5 45 1.5 C 50.87312316894531 1.5 56.56977462768555 2.649924993515015 61.93170166015625 4.917825222015381 C 67.11147308349609 7.108687400817871 71.76370239257812 10.24541282653809 75.75914764404297 14.2408504486084 C 79.75458526611328 18.23629951477051 82.89131164550781 22.88852500915527 85.08217620849609 28.06830024719238 C 87.35007476806641 33.43022537231445 88.5 39.12687683105469 88.5 45 C 88.5 50.87312316894531 87.35007476806641 56.56977462768555 85.08217620849609 61.93170166015625 C 82.89131164550781 67.11147308349609 79.75458526611328 71.76370239257812 75.75914764404297 75.75914764404297 C 71.76370239257812 79.75458526611328 67.11147308349609 82.89131164550781 61.93170166015625 85.08217620849609 C 56.56977462768555 87.35007476806641 50.87312316894531 88.5 45 88.5 Z" stroke="none"/>
                              <path d="M 45 3 C 39.32871246337891 3 33.82865524291992 4.110054016113281 28.65262985229492 6.299339294433594 C 23.65165710449219 8.414573669433594 19.15968322753906 11.44334411621094 15.301513671875 15.301513671875 C 11.44334411621094 19.15968322753906 8.414573669433594 23.65165710449219 6.299339294433594 28.65262985229492 C 4.110054016113281 33.82865524291992 3 39.32871246337891 3 45 C 3 50.67128753662109 4.110054016113281 56.17134475708008 6.299339294433594 61.34737396240234 C 8.414573669433594 66.34834289550781 11.44334411621094 70.84031677246094 15.301513671875 74.698486328125 C 19.15968322753906 78.55665588378906 23.65165710449219 81.58542633056641 28.65262985229492 83.70066070556641 C 33.82865524291992 85.88994598388672 39.32871246337891 87 45 87 C 50.67128753662109 87 56.17134475708008 85.88994598388672 61.34737396240234 83.70066070556641 C 66.34834289550781 81.58542633056641 70.84031677246094 78.55665588378906 74.698486328125 74.698486328125 C 78.55665588378906 70.84031677246094 81.58542633056641 66.34834289550781 83.70066070556641 61.34737396240234 C 85.88994598388672 56.17134475708008 87 50.67128753662109 87 45 C 87 39.32871246337891 85.88994598388672 33.82865524291992 83.70066070556641 28.65262985229492 C 81.58542633056641 23.65165710449219 78.55665588378906 19.15968322753906 74.698486328125 15.301513671875 C 70.84031677246094 11.44334411621094 66.34834289550781 8.414573669433594 61.34737396240234 6.299339294433594 C 56.17134475708008 4.110054016113281 50.67128753662109 3 45 3 M 45 0 C 69.85281372070312 0 90 20.14718627929688 90 45 C 90 69.85281372070312 69.85281372070312 90 45 90 C 20.14718627929688 90 0 69.85281372070312 0 45 C 0 20.14718627929688 20.14718627929688 0 45 0 Z" stroke="none" fill="#1d7083"/>
                            </g>
                          </g>
                        </g>
                      </g>
                    </g>
                  </g>
                </g>
              </g>
            </g>
          </g>
        </g>
      </g>
    </g>
    <g id="negocios-y-finanzas" transform="translate(1242.58 522.956)">
      <path id="Trazado_1030991" data-name="Trazado 1030991" d="M85.695,275.9h12.6l12.215,5.056a4.164,4.164,0,0,1,2.242,5.47l-.042.1a4.284,4.284,0,0,1-5.489,2.345c-3.466-1.337-8.013-3.085-8.013-3.085l11.705,4.5a13.3,13.3,0,0,0,7.743.55l11.992-2.746a4.024,4.024,0,0,1,1.889,7.824l-14.309,3.637a13.3,13.3,0,0,1-8.135-.509L91.626,291.8H85.695Zm0,0" transform="translate(-75.428 -242.843)" fill="#ffd4be"/>
      <path id="Trazado_1030992" data-name="Trazado 1030992" d="M85.695,275.9h12.6l12.215,5.056a4.164,4.164,0,0,1,2.242,5.47l-.042.1a4.284,4.284,0,0,1-5.489,2.345c-3.466-1.337-8.013-3.085-8.013-3.085l11.705,4.5a13.3,13.3,0,0,0,7.743.55l11.992-2.746a4.024,4.024,0,0,1,1.889,7.824l-14.309,3.637a13.3,13.3,0,0,1-8.135-.509L91.626,291.8H85.695Zm0,0" transform="translate(-75.428 -242.843)" fill="#ffd4be"/>
      <path id="Trazado_1030993" data-name="Trazado 1030993" d="M10,252.316h9.069v21.059H10Zm0,0" transform="translate(-8.802 -222.087)" fill="#98a1b3"/>
      <path id="Trazado_1030994" data-name="Trazado 1030994" d="M138.652,166.871v14.362l-3.142-1.3h-7.533V166.871Zm0,0" transform="translate(-112.644 -146.878)" fill="#60a4ff"/>
      <path id="Trazado_1030995" data-name="Trazado 1030995" d="M227.769,101.356v27.114a4.156,4.156,0,0,0-1.6-1.178l-9.071-3.755V101.32Zm0,0" transform="translate(-191.084 -89.181)" fill="#f6838d"/>
      <path id="Trazado_1030996" data-name="Trazado 1030996" d="M316.872,218.41v20.876l-4.133.946a13.3,13.3,0,0,1-6.543-.153v-3.151a4.32,4.32,0,0,0,.6-1.006l.041-.1a4.161,4.161,0,0,0-.637-4.292V218.41Zm0,0" transform="translate(-269.511 -192.243)" fill="#ffc15a"/>
      <path id="Trazado_1030997" data-name="Trazado 1030997" d="M417.131,111.548a1.81,1.81,0,1,1-1.81-1.81A1.81,1.81,0,0,1,417.131,111.548Zm0,0" transform="translate(-363.97 -96.591)" fill="#98a1b3"/>
      <path id="Trazado_1030998" data-name="Trazado 1030998" d="M361.6,39.075a1.81,1.81,0,1,1-1.81-1.81A1.81,1.81,0,0,1,361.6,39.075Zm0,0" transform="translate(-315.091 -32.801)" fill="#98a1b3"/>
      <path id="Trazado_1030999" data-name="Trazado 1030999" d="M61.23,128.483a5.222,5.222,0,0,0-6.279-4.028l-6.394,1.464v-2.614a25.255,25.255,0,0,0,3.567-4.226,24.778,24.778,0,0,0,3.5-8.248,25.274,25.274,0,0,0,.048-10.728,1.2,1.2,0,0,0-2.343.5,22.849,22.849,0,0,1-.044,9.7,22.391,22.391,0,0,1-3.165,7.453,21.328,21.328,0,0,1-1.566,2.066v-13.28a1.2,1.2,0,0,0-1.2-1.2H37.882V92.554a1.2,1.2,0,0,0-1.194-1.2L26.013,91.32h0a1.2,1.2,0,0,0-1.2,1.2v6.655H15.332a1.2,1.2,0,0,0-1.2,1.2v11.864H11.465v-1.627a1.2,1.2,0,0,0-1.2-1.2H9.038a22.675,22.675,0,0,1,.979-11.751c.223-.616.477-1.23.753-1.824A1.2,1.2,0,1,0,8.6,94.825c-.307.658-.587,1.338-.834,2.019a25.036,25.036,0,0,0-1.157,12.567H1.2a1.2,1.2,0,0,0-1.2,1.2v21.059a1.2,1.2,0,0,0,1.2,1.2h9.069a1.2,1.2,0,0,0,1.2-1.2v-1.139h4.507l18.256,7.16a14.42,14.42,0,0,0,8.867.555L57.4,134.607a5.212,5.212,0,0,0,3.827-6.124ZM46.162,107.745v18.723l-3.2.733c-.344.079-.693.141-1.043.19a12.162,12.162,0,0,1-4.017-.117l-.017,0v-1.817a5.549,5.549,0,0,0,.738-4.668,5.38,5.38,0,0,0-.564-1.256q-.082-.133-.171-.261l0,0v-11.52h8.28ZM27.207,93.721l8.279.028v23.613l-4.627-1.915-3.652-1.512ZM16.53,101.57H24.81v11.372l-1.486-.615a1.2,1.2,0,0,0-.458-.091H16.53Zm-7.462,28.9H2.4V111.807H9.069Zm47.745,1.815L42.5,135.922a12.041,12.041,0,0,1-7.4-.463l-18.467-7.243a1.2,1.2,0,0,0-.438-.082H11.465v-13.5H22.627l7.752,3.209,4.242,1.756a3,3,0,0,1,1.6,3.882,3.426,3.426,0,0,1-.48.842A3.088,3.088,0,0,1,32.6,125.4l-.028-.007c-.069-.017-.138-.037-.206-.06l-8.061-3.1-.1-.038a1.2,1.2,0,0,0-.86,2.237s4.545,1.748,8.011,3.084c.07.027.139.052.209.076l2.662,1.024a22,22,0,0,0,2.442.831,14.536,14.536,0,0,0,6.822.086l4.133-.946.013,0,7.846-1.8a2.826,2.826,0,0,1,1.327,5.494Zm0,0" transform="translate(0 -80.379)"/>
      <path id="Trazado_1031000" data-name="Trazado 1031000" d="M119.075,8.521a1.193,1.193,0,0,0,.8-.309,22.514,22.514,0,0,1,16.635-5.768,22.471,22.471,0,0,1,6.532,1.423,1.2,1.2,0,1,0,.853-2.239A24.861,24.861,0,0,0,136.67.053a24.911,24.911,0,0,0-18.4,6.381,1.2,1.2,0,0,0,.8,2.087Zm0,0" transform="translate(-103.754 0)"/>
      <path id="Trazado_1031001" data-name="Trazado 1031001" d="M351.858,43.689a1.2,1.2,0,0,0,1.69-.118l9.857-11.347a1.2,1.2,0,0,0-1.808-1.572L351.74,42A1.2,1.2,0,0,0,351.858,43.689Zm0,0" transform="translate(-309.34 -26.617)"/>
      <path id="Trazado_1031002" data-name="Trazado 1031002" d="M406.519,99.738a3.008,3.008,0,1,0,3.008,3.008A3.011,3.011,0,0,0,406.519,99.738Zm0,3.619a.612.612,0,1,1,.612-.612A.612.612,0,0,1,406.519,103.358Zm0,0" transform="translate(-355.168 -87.789)"/>
      <path id="Trazado_1031003" data-name="Trazado 1031003" d="M350.988,33.281a3.008,3.008,0,1,0-3.008-3.008A3.011,3.011,0,0,0,350.988,33.281Zm0-3.62a.612.612,0,1,1-.612.612A.613.613,0,0,1,350.988,29.661Zm0,0" transform="translate(-306.29 -23.999)"/>
      <path id="Trazado_1031004" data-name="Trazado 1031004" d="M91.67,82.479a1.2,1.2,0,1,0,.441-1.455,1.208,1.208,0,0,0-.441,1.455Zm0,0" transform="translate(-80.609 -71.142)"/>
    </g>
  </g>
</svg>
