<svg xmlns="http://www.w3.org/2000/svg" width="132.397" height="44.475" viewBox="0 0 132.397 44.475">
  <g id="Grupo_1173927" data-name="Grupo 1173927" transform="translate(-469.325 -2282.525)">
    <path id="Trazado_1031129" data-name="Trazado 1031129" d="M8.71-10.714a3.2,3.2,0,0,0-.523-.3,5,5,0,0,0-.65-.246,5.572,5.572,0,0,0-.725-.167,4.644,4.644,0,0,0-.747-.062,3.106,3.106,0,0,0-1.182.2,2.217,2.217,0,0,0-.769.5,1.849,1.849,0,0,0-.417.664,2.035,2.035,0,0,0-.127.677,2.3,2.3,0,0,0,.114.747,2.35,2.35,0,0,0,.343.642,3.809,3.809,0,0,0,.589.615q.36.308.844.659A11.5,11.5,0,0,1,6.429-6a5.323,5.323,0,0,1,.725.8,3.2,3.2,0,0,1,.453.861,3.027,3.027,0,0,1,.154.98,4.338,4.338,0,0,1-.066.716,3.4,3.4,0,0,1-.237.787,3.483,3.483,0,0,1-.47.773,2.973,2.973,0,0,1-.76.668A4.083,4.083,0,0,1,5.115.044,5.9,5.9,0,0,1,3.586.22a6.589,6.589,0,0,1-.967-.07,8.018,8.018,0,0,1-.9-.185A6.615,6.615,0,0,1,.936-.294,5.831,5.831,0,0,1,.325-.58L.58-2.109a4.7,4.7,0,0,0,.642.382,5.97,5.97,0,0,0,.765.316,6.013,6.013,0,0,0,.835.215,4.711,4.711,0,0,0,.853.079,3.676,3.676,0,0,0,1.147-.158,2.227,2.227,0,0,0,.791-.435,1.661,1.661,0,0,0,.457-.655,2.262,2.262,0,0,0,.145-.817,1.951,1.951,0,0,0-.123-.712,2.217,2.217,0,0,0-.378-.62,4.538,4.538,0,0,0-.646-.615q-.391-.312-.927-.69a8.939,8.939,0,0,1-.822-.664,4.643,4.643,0,0,1-.686-.778,3.712,3.712,0,0,1-.466-.918A3.279,3.279,0,0,1,2-9.255a3.53,3.53,0,0,1,.268-1.367,3.2,3.2,0,0,1,.8-1.134,3.848,3.848,0,0,1,1.305-.773,5.228,5.228,0,0,1,1.806-.286,6.407,6.407,0,0,1,.787.048q.391.048.76.132t.7.185q.33.1.584.207Zm4.879-1.007a1,1,0,0,0-.295-.766,1.154,1.154,0,0,0-.818-.274,2.574,2.574,0,0,0-1,.21,3.228,3.228,0,0,0-.938.61l.21-.943a2.723,2.723,0,0,1,.889-.461,3.813,3.813,0,0,1,1.043-.128,1.9,1.9,0,0,1,1.307.433,1.483,1.483,0,0,1,.487,1.166,2.664,2.664,0,0,1-.213,1.1,2.923,2.923,0,0,1-.679.915,9.052,9.052,0,0,1-1.364,1q-.815.508-1.238.836a3.3,3.3,0,0,0-.628.6,1.744,1.744,0,0,0-.292.661h3.63L13.532-6H9l.077-.364a3.545,3.545,0,0,1,.4-1.066A3.655,3.655,0,0,1,10.21-8.3a12.637,12.637,0,0,1,1.471-1.056,8.734,8.734,0,0,0,1.13-.82,2.657,2.657,0,0,0,.592-.713A1.764,1.764,0,0,0,13.589-11.721Z" transform="translate(469 2307)" fill="#212429"/>
    <path id="Trazado_1031130" data-name="Trazado 1031130" d="M10.3-6.539H2.039V-7.7H10.3Zm0,3.744H2.039v-1.16H10.3Z" transform="translate(492 2311)" fill="#212429"/>
    <path id="Trazado_1031131" data-name="Trazado 1031131" d="M10.635,23.122H.448v-.686L6.39,14.676.773,7.188V6.4h9.51V7.75H2.936l5.221,6.891L2.663,21.777h7.972ZM16.311,13H15.47V10.006q0-1.671-1.22-1.671a1.323,1.323,0,0,0-1.043.474,1.758,1.758,0,0,0-.413,1.2V13h-.841V7.75h.841v.872h.021a1.9,1.9,0,0,1,1.723-.995,1.606,1.606,0,0,1,1.318.556,2.478,2.478,0,0,1,.456,1.607Zm2.016,5.417a.533.533,0,0,1-.385-.154.519.519,0,0,1-.159-.39.538.538,0,0,1,.543-.549.543.543,0,0,1,.392.156.548.548,0,0,1,0,.777A.538.538,0,0,1,18.327,18.417ZM18.737,25H17.9V19.75h.841ZM29.89,12.461H21.628V11.3H29.89Zm0,3.744H21.628v-1.16H29.89ZM35.616,25h-.841V18.648a1.946,1.946,0,0,1-.285.223,4.638,4.638,0,0,1-.42.249q-.233.123-.492.231a3.577,3.577,0,0,1-.5.169v-.851a4.888,4.888,0,0,0,.587-.208q.31-.131.61-.292t.566-.338a4.5,4.5,0,0,0,.461-.346h.318ZM42.8,21.865H41.52A11.232,11.232,0,0,1,38.8,14.192,11.658,11.658,0,0,1,41.52,6.4h1.3a11.845,11.845,0,0,0-2.76,7.778A11.638,11.638,0,0,0,42.8,21.865Zm5.108-7.26L49.986,19l-1.591.018L47.261,16.2q-.053-.141-.145-.378l-.171-.439H46.9q-.062.088-.145.2l-.163.215q-.079.105-.154.2t-.127.163L43.957,19H42.243l4.052-4.482L44.273,10h1.591l1.081,2.865q.079.211.158.457t.123.387h.035q.053-.062.123-.154l.149-.2q.079-.105.163-.211t.163-.193L50.3,10h1.644Zm5.413,10.374a1.965,1.965,0,0,1-.29.067,2.041,2.041,0,0,1-.32.026,1.046,1.046,0,0,1-.774-.259.944.944,0,0,1-.256-.695,2.118,2.118,0,0,1,.026-.3q.026-.174.082-.431l.764-3.635h.851l-.769,3.655q-.046.215-.064.333a1.364,1.364,0,0,0-.018.2.423.423,0,0,0,.115.32.517.517,0,0,0,.367.11,1.553,1.553,0,0,0,.233-.015,1.033,1.033,0,0,0,.187-.046Zm.6-7.1a.552.552,0,0,1-.156.395.513.513,0,0,1-.387.164.545.545,0,0,1-.392-.161.532.532,0,0,1-.167-.4.492.492,0,0,1,.167-.384.57.57,0,0,1,.392-.149.537.537,0,0,1,.384.151A.5.5,0,0,1,53.924,17.879Zm5.945-3.326H55.061l.255-1.134h4.808Zm6.154.053L68.1,19l-1.591.018L65.373,16.2q-.053-.141-.145-.378l-.171-.439h-.044q-.062.088-.145.2l-.163.215q-.079.105-.154.2t-.127.163L62.068,19H60.354l4.052-4.482L62.385,10h1.591l1.081,2.865q.079.211.158.457t.123.387h.035q.053-.062.123-.154l.149-.2q.079-.105.163-.211t.163-.193L68.414,10h1.644Zm.995-6.319.141-.949h4.465l-.141.949Zm8.729,13.579H74.464a11.638,11.638,0,0,0,2.742-7.69A11.845,11.845,0,0,0,74.447,6.4h1.3a11.611,11.611,0,0,1,2.742,7.8A11.188,11.188,0,0,1,75.748,21.865ZM84.326,7.279a1,1,0,0,0-.295-.766,1.154,1.154,0,0,0-.818-.274,2.574,2.574,0,0,0-1,.21,3.228,3.228,0,0,0-.938.61l.21-.943a2.723,2.723,0,0,1,.889-.461,3.813,3.813,0,0,1,1.043-.128,1.9,1.9,0,0,1,1.307.433,1.483,1.483,0,0,1,.487,1.166A2.664,2.664,0,0,1,85,8.225a2.923,2.923,0,0,1-.679.915,9.052,9.052,0,0,1-1.364,1q-.815.508-1.238.836a3.3,3.3,0,0,0-.628.6,1.744,1.744,0,0,0-.292.661h3.63L84.27,13H79.733l.077-.364a3.545,3.545,0,0,1,.4-1.066,3.655,3.655,0,0,1,.741-.866,12.636,12.636,0,0,1,1.471-1.056,8.734,8.734,0,0,0,1.13-.82,2.657,2.657,0,0,0,.592-.713A1.764,1.764,0,0,0,84.326,7.279Z" transform="translate(514 2277)" fill="#212429"/>
    <path id="Trazado_1031132" data-name="Trazado 1031132" d="M9.193-6.75a2.864,2.864,0,0,1-.031.36q-.031.229-.079.492t-.1.523q-.048.259-.092.444L7.849,0H6.39l1.1-5.273q.035-.141.07-.325t.062-.369q.026-.185.044-.338a2.261,2.261,0,0,0,.018-.242A1.6,1.6,0,0,0,7.361-7.6a1.168,1.168,0,0,0-.954-.387,2.218,2.218,0,0,0-1.151.343,4.737,4.737,0,0,0-1.055.87,5.934,5.934,0,0,0-.831,1.16A4.445,4.445,0,0,0,2.9-4.395L1.96,0H.5L1.89-6.425q.07-.343.141-.716t.132-.721q.062-.347.105-.646T2.338-9H3.744q-.044.343-.105.716t-.105.69q-.053.369-.114.721h.035a7.432,7.432,0,0,1,.681-.91,5.1,5.1,0,0,1,.809-.747,3.84,3.84,0,0,1,.923-.505A2.869,2.869,0,0,1,6.891-9.22a2.657,2.657,0,0,1,1.028.18,1.926,1.926,0,0,1,.716.505,2.058,2.058,0,0,1,.422.782A3.5,3.5,0,0,1,9.193-6.75Z" transform="translate(548 2327)" fill="#212429"/>
    <path id="Trazado_1029840" data-name="Trazado 1029840" d="M6785,2972.5h92.983" transform="translate(-6276.261 -666.124)" fill="none" stroke="#212429" stroke-width="1"/>
  </g>
</svg>
