<svg xmlns="http://www.w3.org/2000/svg" xmlns:xlink="http://www.w3.org/1999/xlink" width="106" height="106" viewBox="0 0 106 106">
  <defs>
    <filter id="Trazado_982547" x="0" y="0" width="106" height="106" filterUnits="userSpaceOnUse">
      <feOffset dy="3" input="SourceAlpha"/>
      <feGaussianBlur stdDeviation="3" result="blur"/>
      <feFlood flood-opacity="0.161"/>
      <feComposite operator="in" in2="blur"/>
      <feComposite in="SourceGraphic"/>
    </filter>
  </defs>
  <g id="Grupo_1173815" data-name="Grupo 1173815" transform="translate(-171 -2738)">
    <g id="Grupo_1173709" data-name="Grupo 1173709" transform="translate(0 1356)">
      <g id="Grupo_1173169" data-name="Grupo 1173169" transform="translate(0 -2329)">
        <g id="Grupo_1172017" data-name="Grupo 1172017" transform="translate(0 2654)">
          <g id="Grupo_1167337" data-name="Grupo 1167337" transform="translate(180 1063)">
            <g id="Grupo_1166720" data-name="Grupo 1166720" transform="translate(0)">
              <g id="Grupo_1164305" data-name="Grupo 1164305">
                <g id="Grupo_1163948" data-name="Grupo 1163948">
                  <g id="Grupo_1158168" data-name="Grupo 1158168">
                    <g id="Grupo_1152576" data-name="Grupo 1152576">
                      <g id="Grupo_1148633" data-name="Grupo 1148633">
                        <g id="Grupo_1148525" data-name="Grupo 1148525">
                          <g transform="matrix(1, 0, 0, 1, -9, -6)" filter="url(#Trazado_982547)">
                            <g id="Trazado_982547-2" data-name="Trazado 982547" transform="translate(9 6)" fill="#fff4e6">
                              <path d="M 44 86.5 C 38.26187515258789 86.5 32.69618606567383 85.37651062011719 27.45755004882812 83.16075897216797 C 22.3968505859375 81.020263671875 17.85157585144043 77.95565032958984 13.94796276092529 74.05204010009766 C 10.04434967041016 70.1484375 6.979737281799316 65.6031494140625 4.839250087738037 60.54246139526367 C 2.62348747253418 55.30381393432617 1.5 49.73812484741211 1.5 44 C 1.5 38.26187515258789 2.62348747253418 32.69618606567383 4.839250087738037 27.45755004882812 C 6.979737281799316 22.3968505859375 10.04434967041016 17.85157585144043 13.94796276092529 13.94796276092529 C 17.85157585144043 10.04434967041016 22.3968505859375 6.979737281799316 27.45755004882812 4.839250087738037 C 32.69618606567383 2.62348747253418 38.26187515258789 1.5 44 1.5 C 49.73812484741211 1.5 55.30381393432617 2.62348747253418 60.54246139526367 4.839250087738037 C 65.6031494140625 6.979737281799316 70.1484375 10.04434967041016 74.05204010009766 13.94796276092529 C 77.95565032958984 17.85157585144043 81.020263671875 22.3968505859375 83.16075897216797 27.45755004882812 C 85.37651062011719 32.69618606567383 86.5 38.26187515258789 86.5 44 C 86.5 49.73812484741211 85.37651062011719 55.30381393432617 83.16075897216797 60.54246139526367 C 81.020263671875 65.6031494140625 77.95565032958984 70.1484375 74.05204010009766 74.05204010009766 C 70.1484375 77.95565032958984 65.6031494140625 81.020263671875 60.54246139526367 83.16075897216797 C 55.30381393432617 85.37651062011719 49.73812484741211 86.5 44 86.5 Z" stroke="none"/>
                              <path d="M 44 3 C 38.46371459960938 3 33.09462738037109 4.083610534667969 28.0418701171875 6.220756530761719 C 23.15997314453125 8.285614013671875 18.77495574951172 11.24228668212891 15.00862884521484 15.00862884521484 C 11.24228668212891 18.77495574951172 8.285614013671875 23.15997314453125 6.220756530761719 28.0418701171875 C 4.083610534667969 33.09462738037109 3 38.46371459960938 3 44 C 3 49.53628540039062 4.083610534667969 54.9053840637207 6.220756530761719 59.9581298828125 C 8.285614013671875 64.84002685546875 11.24228668212891 69.22504425048828 15.00862884521484 72.99138641357422 C 18.77495574951172 76.75771331787109 23.15997314453125 79.71438598632812 28.0418701171875 81.77925872802734 C 33.09462738037109 83.9163818359375 38.46371459960938 85 44 85 C 49.53628540039062 85 54.9053840637207 83.9163818359375 59.95814514160156 81.77925872802734 C 64.84002685546875 79.71438598632812 69.22504425048828 76.75771331787109 72.99138641357422 72.99138641357422 C 76.75771331787109 69.22504425048828 79.71438598632812 64.84002685546875 81.77925872802734 59.95814514160156 C 83.9163818359375 54.9053840637207 85 49.53628540039062 85 44 C 85 38.46371459960938 83.9163818359375 33.09462738037109 81.77925872802734 28.0418701171875 C 79.71438598632812 23.15997314453125 76.75771331787109 18.77495574951172 72.99138641357422 15.00862884521484 C 69.22504425048828 11.24228668212891 64.84002685546875 8.285614013671875 59.9581298828125 6.220756530761719 C 54.9053840637207 4.083610534667969 49.53628540039062 3 44 3 M 44 0 C 68.30054473876953 0 88 19.69947052001953 88 44 C 88 68.30054473876953 68.30054473876953 88 44 88 C 19.69947052001953 88 0 68.30054473876953 0 44 C 0 19.69947052001953 19.69947052001953 0 44 0 Z" stroke="none" fill="#ff9d1c"/>
                            </g>
                          </g>
                        </g>
                      </g>
                    </g>
                  </g>
                </g>
              </g>
            </g>
          </g>
        </g>
      </g>
    </g>
    <g id="company_5404936" transform="translate(194.454 2761.454)">
      <path id="Trazado_1030692" data-name="Trazado 1030692" d="M57.922,53.177H52l1.773-2.367-1.179-8.281h.594l.783-1.584.99.99,2.014-5.044,2.066.68a3.555,3.555,0,0,1,2.427,3.374V53.177Z" transform="translate(-7.238 -5.135)" fill="#d94711"/>
      <path id="Trazado_1030693" data-name="Trazado 1030693" d="M58.681,24.906a1.479,1.479,0,0,1-.3,2.927h-.887l-.043-.009a3.194,3.194,0,0,0,.043-.577V24.88h.887a1.78,1.78,0,0,1,.3.026Z" transform="translate(-7.997 -3.463)" fill="#efc8a5"/>
      <path id="Trazado_1030694" data-name="Trazado 1030694" d="M56.965,21.364v2.393a1.78,1.78,0,0,0-.3-.026h-.887A5.379,5.379,0,0,1,52.23,21.95s-1.188,2.367-5.922,1.782h-.887a1.78,1.78,0,0,0-.3.026V21.364a4.737,4.737,0,0,1,4.734-4.734H52.23a4.736,4.736,0,0,1,4.734,4.734Z" transform="translate(-6.28 -2.315)" fill="#591117"/>
      <path id="Trazado_1030695" data-name="Trazado 1030695" d="M57.246,21.364v2.393a1.78,1.78,0,0,0-.3-.026h-.887a8.056,8.056,0,0,1-1.231-.3V22.389a4.736,4.736,0,0,0-4.734-4.734H47.717a3.194,3.194,0,0,0-.577.043,4.7,4.7,0,0,1,3-1.067h2.376a4.736,4.736,0,0,1,4.734,4.734Z" transform="translate(-6.561 -2.315)" fill="#430d11"/>
      <path id="Trazado_1030696" data-name="Trazado 1030696" d="M54.4,35.88l2.608.869L55,41.794l-.99-.99-1.739-1.73Z" transform="translate(-7.276 -4.994)" fill="#656363"/>
      <path id="Trazado_1030697" data-name="Trazado 1030697" d="M55.969,24.592v2.367a3.194,3.194,0,0,1-.043.577,4.708,4.708,0,0,1-2.341,3.529,4.692,4.692,0,0,1-4.691,0,4.825,4.825,0,0,1-1.007-.758,4.7,4.7,0,0,1-1.343-2.772,3.194,3.194,0,0,1-.043-.577V24.592c4.734.585,5.922-1.782,5.922-1.782A5.379,5.379,0,0,0,55.969,24.592Z" transform="translate(-6.472 -3.175)" fill="#f2d6bd"/>
      <path id="Trazado_1030698" data-name="Trazado 1030698" d="M56.186,24.751v2.367a3.194,3.194,0,0,1-.043.577A4.708,4.708,0,0,1,53.8,31.224a4.692,4.692,0,0,1-4.691,0,4.825,4.825,0,0,1-1.007-.758.228.228,0,0,1-.043-.052,4.524,4.524,0,0,0,1.033.121,4.634,4.634,0,0,0,2.35-.628,4.708,4.708,0,0,0,2.341-3.529,3.194,3.194,0,0,0,.043-.577V23.95a7.191,7.191,0,0,0,2.359.8Z" transform="translate(-6.69 -3.334)" fill="#e5c3ac"/>
      <path id="Trazado_1030699" data-name="Trazado 1030699" d="M50.824,1h-24.1A1.727,1.727,0,0,0,25,2.722V5.3h2.582A1.727,1.727,0,0,1,29.3,7.026V16.9a4.6,4.6,0,0,1,1.042-.112h2.643a5.275,5.275,0,0,1,5.268,5.277v2.669a1.647,1.647,0,0,1-.327,3.262h-.99l-.043-.009A5.236,5.236,0,0,1,34.28,31.92l.026.034v3.3l2.91.964,1.558.516v-.783A3.555,3.555,0,0,1,41.2,32.574l2.066-.68,2.608-.869V28.064l.026-.034a4.825,4.825,0,0,1-1.007-.758A4.7,4.7,0,0,1,43.55,24.5l-.043.009h-.887a1.479,1.479,0,0,1-.3-2.927V19.189a4.737,4.737,0,0,1,4.734-4.734H49.43a4.7,4.7,0,0,1,3.116,1.171V2.722A1.727,1.727,0,0,0,50.824,1Z" transform="translate(-3.48 -0.139)" fill="#f2ac57"/>
      <path id="Trazado_1030700" data-name="Trazado 1030700" d="M37.912,3.582c3.7-2.218,9.3-1.263,14.625-.949A1.723,1.723,0,0,0,50.824,1h-24.1A1.727,1.727,0,0,0,25,2.722V5.3h2.582A1.727,1.727,0,0,1,29.3,7.026V16.9a4.6,4.6,0,0,1,1.042-.112H31.98c-.591-5.316,1.293-10.885,5.932-13.2Z" transform="translate(-3.48 -0.139)" fill="#db802e"/>
      <path id="Trazado_1030701" data-name="Trazado 1030701" d="M40.343,32.042a1.646,1.646,0,0,1-.913.274h-.99l-.043-.009a5.236,5.236,0,0,1-2.617,3.934l.026.034v3.3l2.91.964,1.558.516V40.27A3.555,3.555,0,0,1,42.7,36.9l2.066-.68,2.608-.869v-2A12.8,12.8,0,0,1,40.343,32.042Z" transform="translate(-4.98 -4.46)" fill="#db802e"/>
      <path id="Trazado_1030702" data-name="Trazado 1030702" d="M53.984,32.434V35.4L51.85,38.589l-.232.353-.241-.353L49.25,35.4V32.434l.026-.034a4.692,4.692,0,0,0,4.691,0Z" transform="translate(-6.855 -4.51)" fill="#efc8a5"/>
      <path id="Trazado_1030703" data-name="Trazado 1030703" d="M53.653,41.32,52.869,42.9H50.493L49.71,41.32l1.73-1.73.241.353.232-.353Z" transform="translate(-6.919 -5.511)" fill="#c9c5c5"/>
      <path id="Trazado_1030704" data-name="Trazado 1030704" d="M52.307,43.44l1.179,8.281-1.773,2.367L49.94,51.721l1.179-8.281Z" transform="translate(-6.951 -6.046)" fill="#e6e6e6"/>
      <path id="Trazado_1030705" data-name="Trazado 1030705" d="M48.7,50.809l1.773,2.367H44.443V45.731a3.961,3.961,0,0,0-2.7-3.753l-.74-.25v-.783a3.555,3.555,0,0,1,2.427-3.374l2.066-.68,2.014,5.044.99-.99.783,1.584h.594Z" transform="translate(-5.707 -5.135)" fill="#d94711"/>
      <path id="Trazado_1030706" data-name="Trazado 1030706" d="M53.7,52.428l.077.544L52,55.339h9.469V53.221A21.62,21.62,0,0,1,53.7,52.428Z" transform="translate(-7.238 -7.298)" fill="#bc3c15"/>
      <path id="Trazado_1030707" data-name="Trazado 1030707" d="M43.438,37.676l-.01,0A3.555,3.555,0,0,0,41,41.054v.783l.74.25a3.961,3.961,0,0,1,2.7,3.753v7.446h6.026L48.7,50.919l.276-1.939c-3.611-2.137-5.893-5.842-5.534-11.3Z" transform="translate(-5.707 -5.244)" fill="#bc3c15"/>
      <path id="Trazado_1030708" data-name="Trazado 1030708" d="M48.828,35.88l2.126,3.194-1.73,1.73-.99.99L46.22,36.749Z" transform="translate(-6.433 -4.994)" fill="#656363"/>
      <path id="Trazado_1030709" data-name="Trazado 1030709" d="M46.16,27.824l-.043.009h-.887a1.479,1.479,0,0,1-.3-2.927,1.78,1.78,0,0,1,.3-.026h.887v2.367a3.194,3.194,0,0,0,.043.577Z" transform="translate(-6.09 -3.463)" fill="#efc8a5"/>
      <path id="Trazado_1030710" data-name="Trazado 1030710" d="M39.335,60.064H32.75l1.971-2.634L33.4,48.194h.663l.878-1.756,1.1,1.1,2.247-5.63,1.558.516.74.25a3.961,3.961,0,0,1,2.7,3.753V60.064Z" transform="translate(-4.559 -5.833)" fill="#82d0d9"/>
      <path id="Trazado_1030711" data-name="Trazado 1030711" d="M40.18,28.564a1.647,1.647,0,0,1-.327,3.262h-.99l-.043-.009a5.421,5.421,0,0,0,.043-.646V28.53h.99a1.361,1.361,0,0,1,.327.034Z" transform="translate(-5.403 -3.971)" fill="#efc8a5"/>
      <path id="Trazado_1030712" data-name="Trazado 1030712" d="M38.269,24.617v2.669a1.361,1.361,0,0,0-.327-.034h-.99C34.017,26.76,33,25.28,33,25.28s-1.317,2.634-6.594,1.971h-.99a1.361,1.361,0,0,0-.327.034V24.617a5.273,5.273,0,0,1,4.227-5.165,4.6,4.6,0,0,1,1.042-.112H33a5.275,5.275,0,0,1,5.268,5.277Z" transform="translate(-3.492 -2.692)" fill="#591117"/>
      <path id="Trazado_1030713" data-name="Trazado 1030713" d="M38.532,24.617v2.669a1.361,1.361,0,0,0-.327-.034h-.99a9.042,9.042,0,0,1-1.463-.37v-.869a5.275,5.275,0,0,0-5.268-5.277H27.841a4.641,4.641,0,0,0-.861.077,5.2,5.2,0,0,1,2.6-1.36,4.6,4.6,0,0,1,1.042-.112h2.643a5.275,5.275,0,0,1,5.268,5.277Z" transform="translate(-3.755 -2.692)" fill="#430d11"/>
      <path id="Trazado_1030714" data-name="Trazado 1030714" d="M38.335,41.754l-2.247,5.63-1.1-1.1L33.05,44.345l2.376-3.555Z" transform="translate(-4.6 -5.678)" fill="#656363"/>
      <path id="Trazado_1030715" data-name="Trazado 1030715" d="M37.165,28.211v2.643a5.421,5.421,0,0,1-.043.646,5.236,5.236,0,0,1-2.617,3.934,5.283,5.283,0,0,1-6.344-.852,5.306,5.306,0,0,1-1.5-3.082,5.421,5.421,0,0,1-.043-.646V28.211c5.277.663,6.594-1.971,6.594-1.971s1.016,1.481,3.951,1.971Z" transform="translate(-3.705 -3.652)" fill="#f2d6bd"/>
      <path id="Trazado_1030716" data-name="Trazado 1030716" d="M37.509,28.385v2.643a5.421,5.421,0,0,1-.043.646,5.236,5.236,0,0,1-2.617,3.934,5.243,5.243,0,0,1-5.225,0,3.82,3.82,0,0,1-.534-.353q.258.026.516.026a5.16,5.16,0,0,0,2.608-.7,5.236,5.236,0,0,0,2.617-3.934A5.422,5.422,0,0,0,34.875,30V27.49a7.9,7.9,0,0,0,2.634.9Z" transform="translate(-4.049 -3.826)" fill="#e5c3ac"/>
      <path id="Trazado_1030717" data-name="Trazado 1030717" d="M35.76,27.33v.129c-.112-.06-.215-.129-.31-.189C35.553,27.3,35.657,27.313,35.76,27.33Z" transform="translate(-4.934 -3.796)" fill="#e5c3ac"/>
      <path id="Trazado_1030718" data-name="Trazado 1030718" d="M34.957,36.954v3.3l-2.376,3.555-.258.4-.267-.4L29.68,40.251v-3.3l.026-.034a5.243,5.243,0,0,0,5.225,0Z" transform="translate(-4.131 -5.139)" fill="#efc8a5"/>
      <path id="Trazado_1030719" data-name="Trazado 1030719" d="M34.59,46.857l-.878,1.756H31.069L30.2,46.857l1.928-1.937.267.4.258-.4Z" transform="translate(-4.204 -6.252)" fill="#c9c5c5"/>
      <path id="Trazado_1030720" data-name="Trazado 1030720" d="M33.084,49.21,34.4,58.446,32.43,61.081l-1.98-2.634,1.317-9.236Z" transform="translate(-4.238 -6.85)" fill="#e6e6e6"/>
      <path id="Trazado_1030721" data-name="Trazado 1030721" d="M24.45,60.064H20.49V46.429a3.961,3.961,0,0,1,2.7-3.753l.034-.009,2.264-.758,2.255,5.63,1.1-1.1.869,1.756h.663L29.064,57.43l1.98,2.634Z" transform="translate(-2.852 -5.833)" fill="#82d0d9"/>
      <path id="Trazado_1030722" data-name="Trazado 1030722" d="M34.607,60.117,32.75,62.6H43.295V60.542a25.739,25.739,0,0,1-8.688-.425Z" transform="translate(-4.559 -8.368)" fill="#47c6c6"/>
      <path id="Trazado_1030723" data-name="Trazado 1030723" d="M23.292,42.765l-.065.022-.034.009a3.961,3.961,0,0,0-2.7,3.753V60.183H31.044l-1.98-2.634.174-1.218C24.958,54.034,22.491,49.649,23.292,42.765Z" transform="translate(-2.852 -5.953)" fill="#47c6c6"/>
      <path id="Trazado_1030724" data-name="Trazado 1030724" d="M29.21,40.79l2.376,3.555-1.928,1.937-1.1,1.1L26.3,41.754Z" transform="translate(-3.661 -5.678)" fill="#656363"/>
      <path id="Trazado_1030725" data-name="Trazado 1030725" d="M26.938,12.026V17.6a5.273,5.273,0,0,0-4.227,5.165v2.669a1.612,1.612,0,0,0-.844.448,1.65,1.65,0,0,0,1.171,2.815h.99l.043-.009a5.306,5.306,0,0,0,1.5,3.082,5.132,5.132,0,0,0,1.119.852l-.026.034v3.3l-2.91.964-2.264.758V37.29a3.655,3.655,0,0,0-2.5-3.469l-2.126-.706-2.686-.9V29.173l-.026-.034a4.825,4.825,0,0,0,2.419-3.633l.043.009h.912a1.526,1.526,0,0,0,1.524-1.524A1.508,1.508,0,0,0,17.83,22.5V20.023A4.875,4.875,0,0,0,12.95,15.15H10.514A4.723,4.723,0,0,0,8,15.856V7.722A1.727,1.727,0,0,1,9.722,6H25.216a1.727,1.727,0,0,1,1.722,1.722Z" transform="translate(-1.114 -0.835)" fill="#f2ac57"/>
      <path id="Trazado_1030726" data-name="Trazado 1030726" d="M25.681,33.966a17.05,17.05,0,0,1-7.219-2.175q-.723-.633-1.38-1.292a4.795,4.795,0,0,1-1.943,2.05l.026.034V35.63l2.686.9,2.126.706a3.655,3.655,0,0,1,2.5,3.469v.379l2.264-.758,2.91-.964v-3.3l.026-.034a5.132,5.132,0,0,1-1.119-.852,5.315,5.315,0,0,1-.881-1.208Z" transform="translate(-2.107 -4.245)" fill="#db802e"/>
      <path id="Trazado_1030727" data-name="Trazado 1030727" d="M14.965,6H9.722A1.727,1.727,0,0,0,8,7.722v8.135a4.723,4.723,0,0,1,2.514-.706h.156a14.662,14.662,0,0,1,3.356-8.29A2.075,2.075,0,0,1,14.965,6Z" transform="translate(-1.114 -0.835)" fill="#db802e"/>
      <path id="Trazado_1030728" data-name="Trazado 1030728" d="M26.236,31.818l-.043.009H25.2a1.65,1.65,0,0,1-1.171-2.815,1.612,1.612,0,0,1,.844-.448,1.361,1.361,0,0,1,.327-.034h.99v2.643a5.421,5.421,0,0,0,.043.646Z" transform="translate(-3.278 -3.971)" fill="#efc8a5"/>
      <path id="Trazado_1030729" data-name="Trazado 1030729" d="M22.092,41.675v.379l-.034.009a3.961,3.961,0,0,0-2.7,3.753v8.47H12.33l1.834-2.436L12.941,43.31h.611l.809-1.627L15.377,42.7l2.083-5.2,2.126.706A3.655,3.655,0,0,1,22.092,41.675Z" transform="translate(-1.716 -5.22)" fill="#d94711"/>
      <path id="Trazado_1030730" data-name="Trazado 1030730" d="M19.215,25.164a1.508,1.508,0,0,1,1.214,1.489,1.526,1.526,0,0,1-1.524,1.524h-.912l-.043-.009a3.486,3.486,0,0,0,.043-.6V25.13h.912A1.267,1.267,0,0,1,19.215,25.164Z" transform="translate(-2.498 -3.498)" fill="#efc8a5"/>
      <path id="Trazado_1030731" data-name="Trazado 1030731" d="M17.448,23.973v.009a1.267,1.267,0,0,0-.31-.034h-.912c-4.881.6-6.095-1.834-6.095-1.834a5.6,5.6,0,0,1-3.658,1.834H5.551a1.156,1.156,0,0,0-.3.034V21.5a4.834,4.834,0,0,1,2.367-4.166,4.723,4.723,0,0,1,2.514-.706h2.436A4.875,4.875,0,0,1,17.448,21.5Z" transform="translate(-0.731 -2.315)" fill="#591117"/>
      <path id="Trazado_1030732" data-name="Trazado 1030732" d="M17.8,21.5v2.479a1.267,1.267,0,0,0-.31-.034H16.58a11.494,11.494,0,0,1-1.747.086v-1.7a4.875,4.875,0,0,0-4.881-4.872H7.8a1.045,1.045,0,0,1,.172-.121,4.723,4.723,0,0,1,2.514-.706h2.436A4.875,4.875,0,0,1,17.8,21.5Z" transform="translate(-1.086 -2.315)" fill="#430d11"/>
      <path id="Trazado_1030733" data-name="Trazado 1030733" d="M17.5,37.355l-2.083,5.2L14.4,41.539l-1.782-1.79,2.2-3.288Z" transform="translate(-1.757 -5.075)" fill="#656363"/>
      <path id="Trazado_1030734" data-name="Trazado 1030734" d="M16.423,24.834V27.27a3.486,3.486,0,0,1-.043.6,4.883,4.883,0,0,1-4.838,4.278A4.768,4.768,0,0,1,9.123,31.5a4.857,4.857,0,0,1-2.41-3.633,3.486,3.486,0,0,1-.043-.6V24.834A5.6,5.6,0,0,0,10.328,23S11.542,25.436,16.423,24.834Z" transform="translate(-0.928 -3.201)" fill="#f2d6bd"/>
      <path id="Trazado_1030735" data-name="Trazado 1030735" d="M16.9,25.13v2.436a3.486,3.486,0,0,1-.043.6,4.883,4.883,0,0,1-4.838,4.278,4.785,4.785,0,0,1-1.9-.387,4.741,4.741,0,0,0,1.687-.585,4.825,4.825,0,0,0,2.419-3.633,3.486,3.486,0,0,0,.043-.6V25.147A10,10,0,0,0,16.9,25.13Z" transform="translate(-1.409 -3.498)" fill="#e5c3ac"/>
      <path id="Trazado_1030736" data-name="Trazado 1030736" d="M14.381,32.914v3.047l-2.2,3.288-.25.37-.241-.37L9.5,35.962V32.914l.017-.034a4.854,4.854,0,0,0,4.838,0Z" transform="translate(-1.322 -4.577)" fill="#efc8a5"/>
      <path id="Trazado_1030737" data-name="Trazado 1030737" d="M12.251,40.28l1.782,1.79L13.224,43.7H10.788L9.97,42.07l1.79-1.79.241.37Z" transform="translate(-1.388 -5.607)" fill="#c9c5c5"/>
      <path id="Trazado_1030738" data-name="Trazado 1030738" d="M12.646,44.25l1.222,8.539-1.834,2.436L10.21,52.789l1.214-8.539Z" transform="translate(-1.421 -6.159)" fill="#e6e6e6"/>
      <path id="Trazado_1030739" data-name="Trazado 1030739" d="M4.658,54.286H1V41.675a3.659,3.659,0,0,1,2.5-3.469L5.631,37.5l2.075,5.2,1.016-1.016.818,1.627h.6L8.928,51.85l1.825,2.436Z" transform="translate(-0.139 -5.22)" fill="#d94711"/>
      <path id="Trazado_1030740" data-name="Trazado 1030740" d="M14.164,54.021,12.33,56.457h7.024V53.948a19.2,19.2,0,0,1-5.322-.846Z" transform="translate(-1.716 -7.391)" fill="#bc3c15"/>
      <path id="Trazado_1030741" data-name="Trazado 1030741" d="M2.524,38.9A3.653,3.653,0,0,0,1,41.87V54.481h9.753L8.928,52.045l.324-2.279A12.312,12.312,0,0,1,2.524,38.9Z" transform="translate(-0.139 -5.415)" fill="#bc3c15"/>
      <path id="Trazado_1030742" data-name="Trazado 1030742" d="M11.261,39.748l-1.79,1.79L8.455,42.555l-2.075-5.2,2.686-.9Z" transform="translate(-0.888 -5.075)" fill="#656363"/>
      <path id="Trazado_1030743" data-name="Trazado 1030743" d="M6.318,28.169l-.043.009H5.354A1.532,1.532,0,0,1,3.83,26.654a1.516,1.516,0,0,1,1.222-1.489,1.156,1.156,0,0,1,.3-.034h.921v2.436A3.486,3.486,0,0,0,6.318,28.169Z" transform="translate(-0.533 -3.498)" fill="#efc8a5"/>
      <path id="Trazado_1030744" data-name="Trazado 1030744" d="M52.075,31.618,47.99,30.264V28.342a5.61,5.61,0,0,0,2.169-3.109h.225a2.333,2.333,0,0,0,1.157-4.363V19.045a5.576,5.576,0,0,0-1.614-3.925V2.582A2.586,2.586,0,0,0,47.344,0h-24.1a2.586,2.586,0,0,0-2.582,2.582V4.3H8.608A2.586,2.586,0,0,0,6.026,6.886v7.669a5.731,5.731,0,0,0-2.367,4.634v1.895a2.377,2.377,0,0,0,1.166,4.454h.252a5.749,5.749,0,0,0,2.241,3.217v2.009L3.083,32.169A4.517,4.517,0,0,0,0,36.455V49.066a.861.861,0,0,0,.861.861H16.778v4.3a.861.861,0,0,0,.861.861h21.1a.861.861,0,0,0,.861-.861V48.9h5.156l.009,0,.009,0h5.9l.01,0,.01,0h3.541a.861.861,0,0,0,.861-.861V35.81a4.422,4.422,0,0,0-3.017-4.191Zm-1.717-9.345h.027a.619.619,0,1,1,0,1.238h-.027ZM4.878,23.816H4.824a.664.664,0,1,1,0-1.327h.053v1.327Zm43.758-.036a3.874,3.874,0,1,1-7.747,0V22.343A6.814,6.814,0,0,0,46,20.894a6.982,6.982,0,0,0,2.631,1.216Zm-2.367,5.384v1.462l-1.506,2.257-1.506-2.257V29.166a5.5,5.5,0,0,0,3.013,0Zm3.551-10.118v1.506h-.249a4.653,4.653,0,0,1-2.916-1.4.863.863,0,0,0-.754-.362.877.877,0,0,0-.716.449c-.041.074-1.067,1.819-5.05,1.323a.889.889,0,0,0-.107-.007h-.323V19.045a3.878,3.878,0,0,1,3.874-3.874h2.367a3.878,3.878,0,0,1,3.873,3.874ZM22.381,2.582a.862.862,0,0,1,.861-.861h24.1a.862.862,0,0,1,.861.861V13.931a5.553,5.553,0,0,0-2.26-.481H43.578a5.6,5.6,0,0,0-5.6,5.6V20.87a2.333,2.333,0,0,0,1.157,4.363h.223a5.6,5.6,0,0,0,1.443,2.508,5.772,5.772,0,0,0,.728.606v1.919l-4.089,1.356a4.411,4.411,0,0,0-2.982,3.8l-2.778-.925V32.235a6.146,6.146,0,0,0,2.439-3.513h.326a2.5,2.5,0,0,0,1.191-4.7V21.927a6.142,6.142,0,0,0-6.135-6.135H26.869c-.062,0-.122.008-.184.009V6.886A2.586,2.586,0,0,0,24.1,4.3H22.381ZM39.167,22.273v1.238H39.14a.619.619,0,0,1,0-1.238Zm-10.979,9.34A4.406,4.406,0,0,1,23.776,27.2V25.493c3.191.183,4.94-.832,5.792-1.636A7.631,7.631,0,0,0,32.6,25.264V27.2a4.42,4.42,0,0,1-4.414,4.413Zm1.776,1.457v1.78l-1.776,2.664-1.776-2.664V33.074a6.137,6.137,0,0,0,3.552,0Zm-6.943-9.362a.889.889,0,0,0-.107-.007h-.458V21.925a4.418,4.418,0,0,1,4.413-4.413h2.637a4.418,4.418,0,0,1,4.413,4.413V23.7h-.384a5.257,5.257,0,0,1-3.32-1.605.869.869,0,0,0-1.471.089C28.7,22.272,27.542,24.273,23.021,23.708ZM34.323,27V25.423h.127a.788.788,0,1,1,0,1.575ZM7.747,6.886a.862.862,0,0,1,.861-.861H24.1a.862.862,0,0,1,.861.861V16.1a6.143,6.143,0,0,0-4.23,5.829v2.091a2.5,2.5,0,0,0,1.191,4.7h.325a6.132,6.132,0,0,0,1.6,2.822,6.227,6.227,0,0,0,.84.695V34.49l-3.528,1.174a4.512,4.512,0,0,0-3.02-3.5l-4.226-1.406V28.757a5.882,5.882,0,0,0,.762-.633,5.736,5.736,0,0,0,1.481-2.588h.25a2.377,2.377,0,0,0,1.166-4.454V19.188a5.746,5.746,0,0,0-5.739-5.739H9.4a5.716,5.716,0,0,0-1.65.244V6.886ZM22.053,25.424V27h-.128a.788.788,0,0,1,0-1.575Zm-5.7-1.608V22.489h.053a.664.664,0,1,1,0,1.327ZM5.665,20.767H5.38V19.189A4.022,4.022,0,0,1,9.4,15.172h2.439a4.022,4.022,0,0,1,4.017,4.017v1.578h-.359a.733.733,0,0,0-.107.007c-4.125.514-5.186-1.3-5.221-1.36a.862.862,0,0,0-.7-.467A.872.872,0,0,0,8.7,19.3a4.8,4.8,0,0,1-3.031,1.468Zm.935,3.3V22.326A7.157,7.157,0,0,0,9.338,21.06c.807.741,2.417,1.648,5.3,1.5v1.509a4.017,4.017,0,1,1-8.034,0Zm5.6,5.516v1.546l-1.58,2.364L9.038,31.125V29.58a5.666,5.666,0,0,0,3.157,0ZM8.1,47.144l.8,1.061H5.38V39.311a.861.861,0,1,0-1.722,0v8.895H1.722V36.455A2.794,2.794,0,0,1,3.628,33.8l1.361-.452L6.768,37.8a.86.86,0,0,0,.627.523.844.844,0,0,0,.173.018.861.861,0,0,0,.609-.252l.172-.172.278.558a.854.854,0,0,0,.4.386L7.935,46.507a.863.863,0,0,0,.164.637ZM7.882,35.949,6.627,32.807l1.2-.4,1.438,2.159Zm2.734,11.682L9.689,46.4l.927-6.486.927,6.486Zm.687-10.4H9.93l-.3-.6.759-.759a.863.863,0,0,0,.221.03h0a.86.86,0,0,0,.226-.032l.761.761Zm2.106-4.821,1.2.4-1.256,3.141-1.383-1.382ZM16.778,40.6v7.609h-4.44l.8-1.061a.86.86,0,0,0,.164-.639L12.205,38.86a.854.854,0,0,0,.4-.386l.278-.558.172.172a.861.861,0,0,0,.609.252.844.844,0,0,0,.173-.018.861.861,0,0,0,.627-.523l1.778-4.449L17.6,33.8a2.789,2.789,0,0,1,1.9,2.468A4.809,4.809,0,0,0,16.778,40.6Zm8.743,11.514.945,1.259H22.456V43.683a.861.861,0,0,0-1.722,0V53.37H18.5V40.6a3.094,3.094,0,0,1,2.114-2.934l1.531-.51,1.947,4.871a.86.86,0,0,0,.627.523.844.844,0,0,0,.173.018.861.861,0,0,0,.609-.252l.256-.256.343.69a.851.851,0,0,0,.448.405l-1.188,8.319a.854.854,0,0,0,.162.64Zm-.315-11.939-1.426-3.565,1.418-.472,1.617,2.427ZM28.188,52.8l-1.076-1.434,1.076-7.529,1.076,7.529ZM28.973,41.5H27.4l-.363-.729.921-.921a.907.907,0,0,0,.455,0l.921.921Zm2.2-5.367,1.418.472-1.425,3.565-1.611-1.61Zm6.7,17.234H35.642V43.683a.861.861,0,0,0-1.722,0V53.37H29.91l.945-1.259a.86.86,0,0,0,.164-.639L29.83,43.153a.851.851,0,0,0,.448-.405l.343-.69.256.256a.861.861,0,0,0,.609.252.844.844,0,0,0,.173-.018.861.861,0,0,0,.627-.523l1.947-4.871,1.529.509A3.093,3.093,0,0,1,37.877,40.6V53.37ZM42.3,46.194l.741.987H39.6V40.6a4.813,4.813,0,0,0-3.292-4.568l-.151-.05V35.81a2.7,2.7,0,0,1,1.837-2.557l1.3-.43L41,37.119a.86.86,0,0,0,.627.523.844.844,0,0,0,.173.018.861.861,0,0,0,.609-.252l.143-.143.254.51a.858.858,0,0,0,.384.378l-1.057,7.4a.857.857,0,0,0,.163.639Zm-.181-10.926L40.924,32.28l1.119-.371,1.374,2.059Zm2.644,11.342-.873-1.164.873-6.11.873,6.11Zm.651-10.078h-1.3l-.274-.549.751-.751a.9.9,0,0,0,.345,0l.751.751Zm2.069-4.622,1.119.371-1.194,2.987-1.3-1.3ZM53.37,47.181H51.541V38.575a.861.861,0,0,0-1.722,0v8.606H46.485l.741-.987a.86.86,0,0,0,.164-.639l-1.057-7.4a.849.849,0,0,0,.384-.378l.254-.51.143.143a.861.861,0,0,0,.609.252.844.844,0,0,0,.173-.018.861.861,0,0,0,.627-.523l1.717-4.3,1.291.428a2.7,2.7,0,0,1,1.84,2.558Z" transform="translate(0)"/>
      <path id="Trazado_1030745" data-name="Trazado 1030745" d="M52,4h1.722V5.722H52Z" transform="translate(-7.238 -0.557)"/>
      <path id="Trazado_1030746" data-name="Trazado 1030746" d="M52,8h1.722V9.722H52Z" transform="translate(-7.238 -1.114)"/>
      <path id="Trazado_1030747" data-name="Trazado 1030747" d="M52,12h1.722v1.722H52Z" transform="translate(-7.238 -1.67)"/>
      <path id="Trazado_1030748" data-name="Trazado 1030748" d="M48,4h1.722V5.722H48Z" transform="translate(-6.681 -0.557)"/>
      <path id="Trazado_1030749" data-name="Trazado 1030749" d="M48,8h1.722V9.722H48Z" transform="translate(-6.681 -1.114)"/>
      <path id="Trazado_1030750" data-name="Trazado 1030750" d="M48,12h1.722v1.722H48Z" transform="translate(-6.681 -1.67)"/>
      <path id="Trazado_1030751" data-name="Trazado 1030751" d="M44,4h1.722V5.722H44Z" transform="translate(-6.124 -0.557)"/>
      <path id="Trazado_1030752" data-name="Trazado 1030752" d="M44,8h1.722V9.722H44Z" transform="translate(-6.124 -1.114)"/>
      <path id="Trazado_1030753" data-name="Trazado 1030753" d="M44,12h1.722v1.722H44Z" transform="translate(-6.124 -1.67)"/>
      <path id="Trazado_1030754" data-name="Trazado 1030754" d="M40,4h1.722V5.722H40Z" transform="translate(-5.568 -0.557)"/>
      <path id="Trazado_1030755" data-name="Trazado 1030755" d="M40,8h1.722V9.722H40Z" transform="translate(-5.568 -1.114)"/>
      <path id="Trazado_1030756" data-name="Trazado 1030756" d="M40,12h1.722v1.722H40Z" transform="translate(-5.568 -1.67)"/>
      <path id="Trazado_1030757" data-name="Trazado 1030757" d="M36,4h1.722V5.722H36Z" transform="translate(-5.011 -0.557)"/>
      <path id="Trazado_1030758" data-name="Trazado 1030758" d="M36,8h1.722V9.722H36Z" transform="translate(-5.011 -1.114)"/>
      <path id="Trazado_1030759" data-name="Trazado 1030759" d="M36,12h1.722v1.722H36Z" transform="translate(-5.011 -1.67)"/>
      <path id="Trazado_1030760" data-name="Trazado 1030760" d="M32,4h1.722V5.722H32Z" transform="translate(-4.454 -0.557)"/>
      <path id="Trazado_1030761" data-name="Trazado 1030761" d="M32,8h1.722V9.722H32Z" transform="translate(-4.454 -1.114)"/>
      <path id="Trazado_1030762" data-name="Trazado 1030762" d="M32,12h1.722v1.722H32Z" transform="translate(-4.454 -1.67)"/>
      <path id="Trazado_1030763" data-name="Trazado 1030763" d="M24,8h1.722V9.722H24Z" transform="translate(-3.341 -1.114)"/>
      <path id="Trazado_1030764" data-name="Trazado 1030764" d="M24,12h1.722v1.722H24Z" transform="translate(-3.341 -1.67)"/>
      <path id="Trazado_1030765" data-name="Trazado 1030765" d="M24,16h1.722v1.722H24Z" transform="translate(-3.341 -2.227)"/>
      <path id="Trazado_1030766" data-name="Trazado 1030766" d="M20,8h1.722V9.722H20Z" transform="translate(-2.784 -1.114)"/>
      <path id="Trazado_1030767" data-name="Trazado 1030767" d="M20,12h1.722v1.722H20Z" transform="translate(-2.784 -1.67)"/>
      <path id="Trazado_1030768" data-name="Trazado 1030768" d="M20,16h1.722v1.722H20Z" transform="translate(-2.784 -2.227)"/>
      <path id="Trazado_1030769" data-name="Trazado 1030769" d="M16,8h1.722V9.722H16Z" transform="translate(-2.227 -1.114)"/>
      <path id="Trazado_1030770" data-name="Trazado 1030770" d="M16,12h1.722v1.722H16Z" transform="translate(-2.227 -1.67)"/>
      <path id="Trazado_1030771" data-name="Trazado 1030771" d="M12,8h1.722V9.722H12Z" transform="translate(-1.67 -1.114)"/>
      <path id="Trazado_1030772" data-name="Trazado 1030772" d="M12,12h1.722v1.722H12Z" transform="translate(-1.67 -1.67)"/>
      <path id="Trazado_1030773" data-name="Trazado 1030773" d="M40,16h1.722v1.722H40Z" transform="translate(-5.568 -2.227)"/>
      <path id="Trazado_1030774" data-name="Trazado 1030774" d="M36,16h1.722v1.722H36Z" transform="translate(-5.011 -2.227)"/>
      <path id="Trazado_1030775" data-name="Trazado 1030775" d="M32,16h1.722v1.722H32Z" transform="translate(-4.454 -2.227)"/>
    </g>
  </g>
</svg>
