<svg xmlns="http://www.w3.org/2000/svg" width="135.368" height="44.686" viewBox="0 0 135.368 44.686">
  <g id="Grupo_1173923" data-name="Grupo 1173923" transform="translate(-509.086 -3002.525)">
    <path id="Trazado_1031120" data-name="Trazado 1031120" d="M8.78,0,8.209-3.524H2.865L.826,0H-.914L6.592-12.6H8.139L10.336,0ZM7.163-10.222q-.009-.088-.013-.2t0-.229q0-.123,0-.229t0-.193H7.11q-.026.079-.07.189t-.1.229q-.053.119-.11.233l-.1.2L3.621-4.86H7.972Zm11.445-1.854a1.507,1.507,0,0,0-.211-.083q-.123-.04-.264-.075a2.912,2.912,0,0,0-.294-.057,2.084,2.084,0,0,0-.294-.022,1.365,1.365,0,0,0-1.112.47,3.276,3.276,0,0,0-.593,1.4L15.514-9h2.127l-.29,1.222H15.224l-2.3,10.767H11.463l2.32-10.767H12.236L12.509-9h1.547l.36-1.67a4.884,4.884,0,0,1,.466-1.318,3.026,3.026,0,0,1,.712-.888,2.653,2.653,0,0,1,.936-.5,3.947,3.947,0,0,1,1.147-.158,3.817,3.817,0,0,1,.637.053,3.907,3.907,0,0,1,.532.123Z" transform="translate(510 3027)" fill="#212429"/>
    <path id="Trazado_1031121" data-name="Trazado 1031121" d="M10.3-6.539H2.039V-7.7H10.3Zm0,3.744H2.039v-1.16H10.3Z" transform="translate(533 3031)" fill="#212429"/>
    <path id="Trazado_1031122" data-name="Trazado 1031122" d="M10.635,23.122H.448v-.686L6.39,14.676.773,7.188V6.4h9.51V7.75H2.936l5.221,6.891L2.663,21.777h7.972ZM16.311,13H15.47V10.006q0-1.671-1.22-1.671a1.323,1.323,0,0,0-1.043.474,1.758,1.758,0,0,0-.413,1.2V13h-.841V7.75h.841v.872h.021a1.9,1.9,0,0,1,1.723-.995,1.606,1.606,0,0,1,1.318.556,2.478,2.478,0,0,1,.456,1.607Zm2.016,5.417a.533.533,0,0,1-.385-.154.519.519,0,0,1-.159-.39.538.538,0,0,1,.543-.549.543.543,0,0,1,.392.156.548.548,0,0,1,0,.777A.538.538,0,0,1,18.327,18.417ZM18.737,25H17.9V19.75h.841ZM29.89,12.461H21.628V11.3H29.89Zm0,3.744H21.628v-1.16H29.89ZM35.616,25h-.841V18.648a1.946,1.946,0,0,1-.285.223,4.638,4.638,0,0,1-.42.249q-.233.123-.492.231a3.577,3.577,0,0,1-.5.169v-.851a4.888,4.888,0,0,0,.587-.208q.31-.131.61-.292t.566-.338a4.5,4.5,0,0,0,.461-.346h.318ZM42.8,21.865H41.52A11.232,11.232,0,0,1,38.8,14.192,11.658,11.658,0,0,1,41.52,6.4h1.3a11.845,11.845,0,0,0-2.76,7.778A11.638,11.638,0,0,0,42.8,21.865ZM55.964,10l-3.023,4.553L55.912,19H54.233l-1.767-2.918q-.167-.272-.4-.686h-.035q-.044.079-.413.686L49.821,19H48.16l3.067-4.412L48.292,10H49.97l1.74,3.076q.193.343.378.7h.035L54.374,10Zm1.512,8.417a.533.533,0,0,1-.384-.154.519.519,0,0,1-.159-.39.538.538,0,0,1,.543-.549.543.543,0,0,1,.392.156.548.548,0,0,1,0,.777A.538.538,0,0,1,57.476,18.417ZM57.886,25h-.841V19.75h.841ZM64.8,14.553H60V13.419h4.8ZM73.972,10l-3.023,4.553L73.919,19H72.24l-1.767-2.918q-.167-.272-.4-.686h-.035q-.044.079-.413.686L67.828,19H66.167l3.067-4.412L66.3,10h1.679l1.74,3.076q.193.343.378.7h.035L72.381,10Zm2.463-1.705H71.97V7.337h4.465Zm4.194,13.57H79.346a11.638,11.638,0,0,0,2.742-7.69A11.845,11.845,0,0,0,79.328,6.4h1.3a11.611,11.611,0,0,1,2.742,7.8A11.188,11.188,0,0,1,80.629,21.865Zm8.825-10.947a2.143,2.143,0,0,1-.187.9,2,2,0,0,1-.528.7,2.437,2.437,0,0,1-.818.449,3.308,3.308,0,0,1-1.051.159,3.054,3.054,0,0,1-1.671-.4v-.9a2.678,2.678,0,0,0,1.7.584,2.313,2.313,0,0,0,.695-.1,1.558,1.558,0,0,0,.533-.282,1.252,1.252,0,0,0,.343-.446,1.393,1.393,0,0,0,.12-.59q0-1.441-2.051-1.441h-.61V8.842h.579q1.815,0,1.815-1.353,0-1.251-1.384-1.251a2.357,2.357,0,0,0-1.461.523V5.946a3.194,3.194,0,0,1,1.671-.42,2.568,2.568,0,0,1,.836.128,1.915,1.915,0,0,1,.641.359,1.59,1.59,0,0,1,.413.554,1.709,1.709,0,0,1,.146.713,1.794,1.794,0,0,1-1.466,1.866v.021a2.319,2.319,0,0,1,.692.182,1.847,1.847,0,0,1,.549.367,1.634,1.634,0,0,1,.361.531A1.694,1.694,0,0,1,89.454,10.919Z" transform="translate(555 2997)" fill="#212429"/>
    <path id="Trazado_1031123" data-name="Trazado 1031123" d="M8.93,0H7.488V-5.133Q7.488-8,5.4-8a2.269,2.269,0,0,0-1.789.813A3.013,3.013,0,0,0,2.9-5.133V0H1.459V-9H2.9v1.494h.035A3.248,3.248,0,0,1,5.889-9.211a2.753,2.753,0,0,1,2.259.954A4.248,4.248,0,0,1,8.93-5.5ZM11.1-.325V-1.872A4.266,4.266,0,0,0,13.7-1q1.9,0,1.9-1.266a1.1,1.1,0,0,0-.163-.611,1.621,1.621,0,0,0-.439-.444,3.383,3.383,0,0,0-.65-.347q-.374-.154-.8-.321a10.357,10.357,0,0,1-1.05-.479,3.173,3.173,0,0,1-.756-.545,2.028,2.028,0,0,1-.457-.69,2.441,2.441,0,0,1-.154-.905,2.15,2.15,0,0,1,.29-1.121,2.572,2.572,0,0,1,.773-.817,3.607,3.607,0,0,1,1.1-.5,4.893,4.893,0,0,1,1.279-.167,5.164,5.164,0,0,1,2.092.4v1.459A4.077,4.077,0,0,0,14.372-8a2.671,2.671,0,0,0-.729.092,1.786,1.786,0,0,0-.558.259,1.2,1.2,0,0,0-.36.4,1.053,1.053,0,0,0-.127.514,1.233,1.233,0,0,0,.127.589,1.3,1.3,0,0,0,.374.422,2.855,2.855,0,0,0,.6.334q.352.149.8.325a11.131,11.131,0,0,1,1.072.47,3.678,3.678,0,0,1,.809.545,2.129,2.129,0,0,1,.514.7,2.254,2.254,0,0,1,.18.94,2.217,2.217,0,0,1-.294,1.16,2.523,2.523,0,0,1-.787.817,3.6,3.6,0,0,1-1.134.483,5.6,5.6,0,0,1-1.345.158A5.106,5.106,0,0,1,11.1-.325ZM22.714-8.081a2.143,2.143,0,0,1-.187.9,2,2,0,0,1-.528.7,2.437,2.437,0,0,1-.818.449,3.308,3.308,0,0,1-1.051.159,3.054,3.054,0,0,1-1.671-.4v-.9a2.678,2.678,0,0,0,1.7.584,2.313,2.313,0,0,0,.695-.1,1.558,1.558,0,0,0,.533-.282,1.252,1.252,0,0,0,.343-.446,1.393,1.393,0,0,0,.12-.59q0-1.441-2.051-1.441h-.61v-.713h.579q1.815,0,1.815-1.353,0-1.251-1.384-1.251a2.357,2.357,0,0,0-1.461.523v-.815a3.194,3.194,0,0,1,1.671-.42,2.568,2.568,0,0,1,.836.128,1.915,1.915,0,0,1,.641.359,1.59,1.59,0,0,1,.413.554,1.709,1.709,0,0,1,.146.713,1.794,1.794,0,0,1-1.466,1.866v.021a2.319,2.319,0,0,1,.692.182,1.847,1.847,0,0,1,.549.367,1.634,1.634,0,0,1,.361.531A1.694,1.694,0,0,1,22.714-8.081Z" transform="translate(589 3047)" fill="#212429"/>
    <path id="Trazado_1029423" data-name="Trazado 1029423" d="M6785,2972.5h92.983" transform="translate(-6234.752 53.876)" fill="none" stroke="#212429" stroke-width="1"/>
  </g>
</svg>
