<svg xmlns="http://www.w3.org/2000/svg" xmlns:xlink="http://www.w3.org/1999/xlink" width="108" height="108" viewBox="0 0 108 108">
  <defs>
    <filter id="Trazado_904820" x="0" y="0" width="108" height="108" filterUnits="userSpaceOnUse">
      <feOffset dy="3" input="SourceAlpha"/>
      <feGaussianBlur stdDeviation="3" result="blur"/>
      <feFlood flood-opacity="0.161"/>
      <feComposite operator="in" in2="blur"/>
      <feComposite in="SourceGraphic"/>
    </filter>
  </defs>
  <g id="Grupo_1173916" data-name="Grupo 1173916" transform="translate(-620 -3045)">
    <g id="Grupo_1173747" data-name="Grupo 1173747" transform="translate(629 3051)">
      <g id="Grupo_1173428" data-name="Grupo 1173428" transform="translate(0 0)">
        <g id="Grupo_1171958" data-name="Grupo 1171958" transform="translate(0)">
          <g id="Grupo_1167341" data-name="Grupo 1167341">
            <g id="Grupo_1166792" data-name="Grupo 1166792">
              <g transform="matrix(1, 0, 0, 1, -9, -6)" filter="url(#Trazado_904820)">
                <g id="Trazado_904820-2" data-name="Trazado 904820" transform="translate(9 6)" fill="#e9f9fd">
                  <path d="M 44.99999618530273 88.49999237060547 C 39.12687301635742 88.49999237060547 33.43022155761719 87.35006713867188 28.06829643249512 85.08216857910156 C 22.88852119445801 82.89130401611328 18.23629570007324 79.75457763671875 14.24084663391113 75.75914001464844 C 10.24540901184082 71.76369476318359 7.108683586120605 67.11146545410156 4.917821407318115 61.93169403076172 C 2.649921178817749 56.56976699829102 1.499996185302734 50.87311553955078 1.499996185302734 44.99999237060547 C 1.499996185302734 39.12686920166016 2.649921178817749 33.43021774291992 4.917821407318115 28.06829261779785 C 7.108683586120605 22.88851737976074 10.24540901184082 18.23630523681641 14.24084663391113 14.24085521697998 C 18.23629570007324 10.24540519714355 22.88852119445801 7.108692169189453 28.06829643249512 4.917829990386963 C 33.43022155761719 2.649929761886597 39.12687301635742 1.500004887580872 44.99999618530273 1.500004887580872 C 50.87311935424805 1.500004887580872 56.56977081298828 2.649929761886597 61.93169784545898 4.917829990386963 C 67.11147308349609 7.108692169189453 71.76369476318359 10.24540519714355 75.75914764404297 14.24085521697998 C 79.75458526611328 18.23630523681641 82.89131164550781 22.88851737976074 85.08216857910156 28.06829261779785 C 87.35007476806641 33.43021774291992 88.5 39.12686920166016 88.5 44.99999237060547 C 88.5 50.87311553955078 87.35007476806641 56.56976699829102 85.08216857910156 61.93169403076172 C 82.89131164550781 67.11146545410156 79.75458526611328 71.76369476318359 75.75914764404297 75.75914001464844 C 71.76369476318359 79.75457763671875 67.11147308349609 82.89130401611328 61.93169784545898 85.08216857910156 C 56.56977081298828 87.35006713867188 50.87311935424805 88.49999237060547 44.99999618530273 88.49999237060547 Z" stroke="none"/>
                  <path d="M 44.99999618530273 2.999992370605469 C 39.32870864868164 2.999992370605469 33.82865142822266 4.11004638671875 28.65262603759766 6.299331665039062 C 23.65165710449219 8.414566040039062 19.15968322753906 11.44333648681641 15.301513671875 15.30150604248047 C 11.44333648681641 19.15967559814453 8.414566040039062 23.65164947509766 6.299339294433594 28.65262222290039 C 4.110054016113281 33.82864761352539 2.999992370605469 39.32870483398438 2.999992370605469 44.99999237060547 C 2.999992370605469 50.67127990722656 4.110054016113281 56.17132186889648 6.299339294433594 61.34736633300781 C 8.414566040039062 66.34833526611328 11.44333648681641 70.84029388427734 15.301513671875 74.69846343994141 C 19.15968322753906 78.55663299560547 23.65165710449219 81.58540344238281 28.65262603759766 83.70063781738281 C 33.82865142822266 85.88992309570312 39.32870864868164 86.99997711181641 44.99999618530273 86.99997711181641 C 50.67128372192383 86.99997711181641 56.17134094238281 85.88992309570312 61.34736633300781 83.70063781738281 C 66.34834289550781 81.58540344238281 70.84030914306641 78.55663299560547 74.69847869873047 74.69846343994141 C 78.55665588378906 70.84029388427734 81.58542633056641 66.34833526611328 83.70065307617188 61.34736633300781 C 85.88993835449219 56.17132186889648 87 50.67127990722656 87 44.99999237060547 C 87 39.32870483398438 85.88993835449219 33.82864761352539 83.70065307617188 28.65262222290039 C 81.58542633056641 23.65164947509766 78.55665588378906 19.15967559814453 74.69847869873047 15.30150604248047 C 70.84030914306641 11.44333648681641 66.34834289550781 8.414566040039062 61.34736633300781 6.299331665039062 C 56.17134094238281 4.11004638671875 50.67128372192383 2.999992370605469 44.99999618530273 2.999992370605469 M 44.99999618530273 -7.62939453125e-06 C 69.85281372070312 -7.62939453125e-06 90 20.14717864990234 90 44.99999237060547 C 90 69.85279083251953 69.85281372070312 89.99997711181641 44.99999618530273 89.99997711181641 C 20.14717864990234 89.99997711181641 -7.62939453125e-06 69.85279083251953 -7.62939453125e-06 44.99999237060547 C -7.62939453125e-06 20.14717864990234 20.14717864990234 -7.62939453125e-06 44.99999618530273 -7.62939453125e-06 Z" stroke="none" fill="#36ceef"/>
                </g>
              </g>
            </g>
          </g>
        </g>
      </g>
    </g>
    <g id="arrow-chart_1968980" transform="translate(646.304 3067.246)">
      <path id="Trazado_1031005" data-name="Trazado 1031005" d="M22.9,59.714l2.944,2.6a1.136,1.136,0,0,1,.384.851V92.715l-6.174,13.379a1.135,1.135,0,0,1-1.03.659H8.644a1.134,1.134,0,0,1-.866-1.867l10.3-12.17V63.162a1.136,1.136,0,0,1,.384-.851l2.944-2.6a1.134,1.134,0,0,1,1.5,0Zm0,0" transform="translate(-6.695 -52.555)" fill="#00d2f9"/>
      <path id="Trazado_1031006" data-name="Trazado 1031006" d="M101.589,367.094l-6.174,13.378a1.135,1.135,0,0,1-1.03.66H92a1.135,1.135,0,0,0,1.03-.66l6.174-13.378Zm0,0" transform="translate(-82.05 -326.934)" fill="#00abef"/>
      <path id="Trazado_1031007" data-name="Trazado 1031007" d="M113.353,63.161V92.715H105.2V63.161a1.137,1.137,0,0,1,.383-.85l2.506-2.21.439-.387a1.134,1.134,0,0,1,1.5,0l2.944,2.6a1.135,1.135,0,0,1,.384.85Zm0,0" transform="translate(-93.815 -52.555)" fill="#00abef"/>
      <path id="Trazado_1031008" data-name="Trazado 1031008" d="M260.829,8.275l2.945,2.6a1.135,1.135,0,0,1,.384.851V46.842l5.735,12.428a1.134,1.134,0,0,1-1.03,1.61H257.135A1.134,1.134,0,0,1,256,59.746V11.724a1.136,1.136,0,0,1,.384-.851l2.944-2.6a1.135,1.135,0,0,1,1.5,0Zm0,0" transform="translate(-228.304 -6.682)" fill="#ffc26d"/>
      <path id="Trazado_1031009" data-name="Trazado 1031009" d="M312.312,367.094l5.736,12.427a1.136,1.136,0,0,1-1.031,1.611h-2.326a1.136,1.136,0,0,0,1.031-1.611L310,367.094Zm0,0" transform="translate(-276.458 -326.934)" fill="#ffa730"/>
      <path id="Trazado_1031010" data-name="Trazado 1031010" d="M260.829,8.275l2.945,2.6a1.135,1.135,0,0,1,.384.851V46.842H256V11.724a1.136,1.136,0,0,1,.384-.851l2.944-2.6a1.135,1.135,0,0,1,1.5,0Zm0,0" transform="translate(-228.304 -6.682)" fill="#ffa730"/>
      <path id="Trazado_1031011" data-name="Trazado 1031011" d="M137.272,176.6l2.944,2.6a1.136,1.136,0,0,1,.384.851v29.811a1.135,1.135,0,0,1-1.134,1.135H127.736a1.135,1.135,0,0,1-1.03-1.61l5.735-12.428V180.049a1.134,1.134,0,0,1,.384-.851l2.945-2.6a1.135,1.135,0,0,1,1.5,0Zm0,0" transform="translate(-112.904 -156.796)" fill="#00d2b4"/>
      <path id="Trazado_1031012" data-name="Trazado 1031012" d="M227.553,367.094V380a1.136,1.136,0,0,1-1.135,1.135H224.1A1.136,1.136,0,0,0,225.236,380v-12.9Zm0,0" transform="translate(-199.856 -326.934)" fill="#00b7a0"/>
      <path id="Trazado_1031013" data-name="Trazado 1031013" d="M188.748,180.048v16.908H180.59V180.048a1.135,1.135,0,0,1,.384-.851l2.945-2.6a1.135,1.135,0,0,1,1.5,0l2.944,2.6A1.136,1.136,0,0,1,188.748,180.048Zm0,0" transform="translate(-161.052 -156.796)" fill="#00b7a0"/>
      <path id="Trazado_1031014" data-name="Trazado 1031014" d="M209.8,180.048v16.908H207.48V180.7a1.135,1.135,0,0,0-.384-.85l-2.9-2.562.775-.685a1.135,1.135,0,0,1,1.5,0l2.943,2.6a1.131,1.131,0,0,1,.384.85Zm0,0" transform="translate(-182.1 -156.796)" fill="#009a8d"/>
      <path id="Trazado_1031015" data-name="Trazado 1031015" d="M134.39,63.161V92.715h-2.316V63.81a1.135,1.135,0,0,0-.384-.85L128.785,60.4l.776-.685a1.134,1.134,0,0,1,1.5,0l2.943,2.6a1.131,1.131,0,0,1,.384.85Zm0,0" transform="translate(-114.852 -52.555)" fill="#0092ce"/>
      <path id="Trazado_1031016" data-name="Trazado 1031016" d="M336.24,104.369l2.944,2.6a1.136,1.136,0,0,1,.384.851v24.721l10.3,12.17a1.134,1.134,0,0,1-.866,1.867H338.615a1.135,1.135,0,0,1-1.03-.659l-6.174-13.379V107.818a1.136,1.136,0,0,1,.384-.851l2.944-2.6A1.136,1.136,0,0,1,336.24,104.369Zm0,0" transform="translate(-295.556 -92.379)" fill="#ff4a59"/>
      <path id="Trazado_1031017" data-name="Trazado 1031017" d="M385.3,367.094l10.3,12.17a1.135,1.135,0,0,1-.866,1.868h2.326a1.135,1.135,0,0,0,.866-1.868l-10.3-12.17Zm0,0" transform="translate(-343.62 -326.934)" fill="#f92f41"/>
      <path id="Trazado_1031018" data-name="Trazado 1031018" d="M336.24,104.369l2.944,2.6a1.136,1.136,0,0,1,.384.851v24.721H331.41V107.818a1.136,1.136,0,0,1,.384-.851l2.944-2.6a1.136,1.136,0,0,1,1.5,0Zm0,0" transform="translate(-295.556 -92.379)" fill="#f92f41"/>
      <path id="Trazado_1031019" data-name="Trazado 1031019" d="M285.2,11.725V46.843h-2.316V12.374a1.135,1.135,0,0,0-.384-.852L279.6,8.96l.775-.683a1.134,1.134,0,0,1,1.5,0l2.945,2.6a1.134,1.134,0,0,1,.384.852Zm0,0" transform="translate(-249.348 -6.682)" fill="#f47e14"/>
      <path id="Trazado_1031020" data-name="Trazado 1031020" d="M360.612,107.819V132.54H358.3V108.468a1.133,1.133,0,0,0-.384-.85l-2.9-2.564.775-.684a1.134,1.134,0,0,1,1.5,0l2.945,2.6A1.135,1.135,0,0,1,360.612,107.819Zm0,0" transform="translate(-316.6 -92.38)" fill="#e32334"/>
      <path id="Trazado_1031021" data-name="Trazado 1031021" d="M54.929,51.806,44.823,39.864V15.439a1.947,1.947,0,0,0-.658-1.459l-2.944-2.6a1.95,1.95,0,0,0-2.575,0l-1.98,1.747V5.042a1.946,1.946,0,0,0-.658-1.459L33.062.985a1.95,1.95,0,0,0-2.575,0l-2.944,2.6a1.947,1.947,0,0,0-.658,1.459v15.9L24.9,19.2a1.949,1.949,0,0,0-2.575,0l-1.98,1.747V10.608a1.948,1.948,0,0,0-.658-1.459l-2.944-2.6a1.949,1.949,0,0,0-2.575,0l-2.944,2.6a1.946,1.946,0,0,0-.658,1.459V28.483a.811.811,0,0,0,1.623,0V10.608a.325.325,0,0,1,.109-.243l2.944-2.6a.323.323,0,0,1,.428,0l2.944,2.6a.323.323,0,0,1,.109.243V39.349H12.192V32.218a.811.811,0,1,0-1.623,0v7.646L.464,51.806a1.946,1.946,0,0,0,1.485,3.2H12.334a1.948,1.948,0,0,0,1.248-.455,1.937,1.937,0,0,0,1.251.455H18.8a.811.811,0,0,0,0-1.623H14.833a.323.323,0,0,1-.293-.459l5.518-11.956h6.827V53.063a.323.323,0,0,1-.323.323h-4.03a.811.811,0,1,0,0,1.623h4.03a1.932,1.932,0,0,0,1.134-.368,1.933,1.933,0,0,0,1.135.368H40.56a1.937,1.937,0,0,0,1.251-.455,1.948,1.948,0,0,0,1.248.455H53.443a1.946,1.946,0,0,0,1.485-3.2ZM36.775,15.2l2.944-2.6a.323.323,0,0,1,.428,0l2.944,2.6a.323.323,0,0,1,.109.243v23.91H36.666V15.439a.324.324,0,0,1,.109-.243ZM28.508,5.042a.324.324,0,0,1,.109-.243l2.945-2.6a.324.324,0,0,1,.428,0l2.944,2.6a.325.325,0,0,1,.109.243V39.349H28.508ZM12.334,53.386H1.949a.323.323,0,0,1-.247-.532L11.757,40.972H18.27L12.627,53.2a.324.324,0,0,1-.293.188Zm8.016-14.037v-16.1a.325.325,0,0,1,.109-.243l2.944-2.6a.323.323,0,0,1,.428,0l2.944,2.6a.323.323,0,0,1,.109.243v16.1ZM53.737,53.2a.31.31,0,0,1-.293.187H43.059a.324.324,0,0,1-.293-.188.8.8,0,0,0-.269-.322,1.942,1.942,0,0,0-.17-.629L40.015,47.24a.811.811,0,1,0-1.474.68l2.311,5.008a.323.323,0,0,1-.293.459H28.831a.324.324,0,0,1-.323-.323V40.972h6.827l1.483,3.214a.811.811,0,0,0,1.474-.68l-1.169-2.534h6.513L53.69,52.855a.31.31,0,0,1,.046.344Zm0,0" transform="translate(0)"/>
      <path id="Trazado_1031022" data-name="Trazado 1031022" d="M137.014,219.133V206.573a.811.811,0,0,0-1.623,0v12.559a.811.811,0,0,0,1.623,0Zm0,0" transform="translate(-120.743 -183.056)"/>
      <path id="Trazado_1031023" data-name="Trazado 1031023" d="M362.42,244.162a.811.811,0,0,0,.811-.811V233.73a.811.811,0,0,0-1.623,0v9.621A.811.811,0,0,0,362.42,244.162Zm0,0" transform="translate(-322.487 -207.274)"/>
      <path id="Trazado_1031024" data-name="Trazado 1031024" d="M211.6,244.918a.812.812,0,0,0-.811.811v8.323a.811.811,0,0,0,1.623,0v-8.323A.811.811,0,0,0,211.6,244.918Zm0,0" transform="translate(-187.988 -217.976)"/>
      <path id="Trazado_1031025" data-name="Trazado 1031025" d="M287.018,292.317a.812.812,0,0,0,.811-.811v-3.779a.811.811,0,0,0-1.623,0v3.779A.811.811,0,0,0,287.018,292.317Zm0,0" transform="translate(-255.243 -255.428)"/>
    </g>
  </g>
</svg>
